<svg id="Layer_1" data-name="Layer 1" xmlns="http://www.w3.org/2000/svg" xmlns:xlink="http://www.w3.org/1999/xlink" viewBox="0 0 1080 1080"><defs><style>.cls-1{fill:url(#radial-gradient);}.cls-2{fill:#ff7f18;}</style><radialGradient id="radial-gradient" cx="-2017.1" cy="5192.55" r="15.87" gradientTransform="matrix(47.4, 0, 0, -45.87, 95971.84, 238467.64)" gradientUnits="userSpaceOnUse"><stop offset="0" stop-color="#423325" stop-opacity="0.98"/><stop offset="1" stop-color="#1c0a00"/></radialGradient></defs><g id="adobe-illustrator-cc"><path id="Path_688" data-name="Path 688" class="cls-1" d="M44.93,58.49H1035v963H44.93Z"/><path id="Path_689" data-name="Path 689" class="cls-2" d="M45,58.49h990v963H45Zm-45,1008H1080V13.49H0ZM707.4,388.8c0-3.6,1.34-5.41,5.41-5.41h70.65c3.6,0,5.41,1.34,5.41,5.41V743.86c0,3.59-.89,5.4-5.41,5.4H713.7c-4.49,0-5.85-2.25-5.85-5.85V388.8Zm-5-102.16a45.91,45.91,0,0,1,91.8,0,43,43,0,0,1-39.82,46,44.41,44.41,0,0,1-6.92-.06,42.29,42.29,0,0,1-45.1-39.29,43,43,0,0,1,.06-6.62ZM499.92,536.86c-12.6-49.95-42.29-158.86-53.55-211.51h-.9C436,378,412.17,467.1,393.27,536.86ZM374.81,609.75l-35.44,135c-.89,3.6-2.25,4.49-6.74,4.49H266.4c-4.49,0-5.41-1.34-4.49-6.74l127.8-447.31a146,146,0,0,0,4.49-37.35c0-3.15,1.34-4.49,3.6-4.49h94.49c3.15,0,4.5.9,5.41,4.49L640.81,743.39c.89,3.6,0,5.85-3.6,5.85h-74.7c-3.6,0-5.86-.89-6.75-4.06l-36.9-135.45h-144Z"/></g></svg>