<svg id="Layer_1" data-name="Layer 1" xmlns="http://www.w3.org/2000/svg" viewBox="0 0 1133.17 1080"><defs><style>.cls-1{fill:#36b8ba;}.cls-2{fill:#fff;}</style></defs><g id="Group_94" data-name="Group 94"><path id="blob" class="cls-1" d="M960.41,281.07C1037.73,442.81,1020,630.83,934.16,789s-240.49,286.6-402.23,290.89-331.29-115-386.63-255.42,2.84-302.21,88-468.91c84.42-166,195.79-337,337-354C711.41-16.17,883.08,119.33,960.41,281.07Z"/><g id="Services-04"><path id="Path_505" data-name="Path 505" class="cls-2" d="M477,617.55a13.69,13.69,0,0,1-21.17,13.82L342.32,554a13.72,13.72,0,0,1,0-22.63l113.53-77.45a13.49,13.49,0,0,1,7.67-2.39,13.69,13.69,0,0,1,7.75,25l-96.94,66.14,96.88,66.2a13.64,13.64,0,0,1,5.75,8.77Z"/><path id="Path_506" data-name="Path 506" class="cls-2" d="M803.45,542.6a13.71,13.71,0,0,1-6,11.34L684,631.37a13.69,13.69,0,0,1-15.44-22.61l96.91-66.2-96.91-66.2A13.68,13.68,0,0,1,684,453.76l113.48,77.58A13.67,13.67,0,0,1,803.45,542.6Z"/><path id="Path_507" data-name="Path 507" class="cls-2" d="M640,445.92,523.68,652.71a13.68,13.68,0,1,1-24.58-12c.24-.48.5-.94.78-1.39l116.29-206.8a13.52,13.52,0,0,1,8.16-6.46,14.16,14.16,0,0,1,3.72-.53A13.69,13.69,0,0,1,640,445.92Z"/></g></g></svg>