<svg id="Layer_1" data-name="Layer 1" xmlns="http://www.w3.org/2000/svg" viewBox="0 0 1062.64 1080"><defs><style>.cls-1{fill:#f5f5f5;}.cls-2{fill:#e0e0e0;}.cls-3{fill:#ebebeb;}.cls-4{fill:#36b8ba;}.cls-12,.cls-5{opacity:0.15;}.cls-11,.cls-16,.cls-18,.cls-19,.cls-20,.cls-21,.cls-6{fill:#fff;}.cls-7{fill:#37474f;}.cls-8{fill:#263238;}.cls-9{fill:#455a64;}.cls-10{fill:#fafafa;}.cls-11{opacity:0.3;}.cls-11,.cls-12,.cls-13,.cls-15,.cls-16,.cls-17,.cls-18,.cls-19,.cls-20,.cls-21,.cls-22{isolation:isolate;}.cls-13{opacity:0.2;}.cls-14{fill:#f28f8f;}.cls-15{opacity:0.1;}.cls-16{opacity:0.35;}.cls-17{opacity:0.05;}.cls-18{opacity:0.95;}.cls-19{opacity:0.8;}.cls-20{opacity:0.7;}.cls-21{opacity:0.4;}.cls-22{opacity:0.25;}</style></defs><g id="Email_campaign-amico" data-name="Email campaign-amico"><g id="freepik--Floor--inject-27"><ellipse id="freepik--floor--inject-27-2" class="cls-1" cx="532.21" cy="755.4" rx="530.43" ry="324.6"/></g><g id="freepik--Shadows--inject-27"><path id="freepik--Shadow--inject-27" class="cls-2" d="M800.6,890.1a15.92,15.92,0,0,1-7.91-1.87L698.91,834a9.72,9.72,0,0,1,0-17.37l155.38-89.66a16.79,16.79,0,0,1,15.85,0l93.79,54.14a9.71,9.71,0,0,1,0,17.36L808.54,888.22a16,16,0,0,1-7.93,1.87Z"/><path id="freepik--shadow--inject-27-2" class="cls-2" d="M603.52,1008.8a151.72,151.72,0,0,1-35.14-4,129.42,129.42,0,0,1-31-11.44l-.22-.12c-1.89-1.07-4.31-2.51-7.44-4.46s-5.92-3.77-9-5.79-6-4-8.71-5.85-5-3.48-6.61-4.74a63.05,63.05,0,0,1-18.06-21.32,42.28,42.28,0,0,1-3.79-27.39,56.52,56.52,0,0,1,14.22-26.54c7.29-8.17,17.53-15.68,31.28-23a206.4,206.4,0,0,1,43.81-17.6,162.54,162.54,0,0,1,39.78-5.71h1.18a129.61,129.61,0,0,1,34.5,4.48,149,149,0,0,1,30.5,12.18q5.57,3.09,12,7.32c4.36,2.84,8,5.4,11.13,7.82a36.25,36.25,0,0,1,12.21,14.21A27,27,0,0,1,716.27,912H718a19.77,19.77,0,0,1,11.85,3.77,14.23,14.23,0,0,1,5.95,13.93,84,84,0,0,1-2.89,12.11,49.18,49.18,0,0,1-8.63,15.49,93.81,93.81,0,0,1-15.71,15.14,189.26,189.26,0,0,1-65.46,31.44,168.85,168.85,0,0,1-38.7,4.9Zm-8.32-80.3c.43.31.91.64,1.45,1A28.14,28.14,0,0,0,609,934.21c.75,0,1.49.12,2.17.12a14.78,14.78,0,0,0,5.07-.83c-.37-.28-.8-.57-1.27-.87a30,30,0,0,0-12.49-5,17.6,17.6,0,0,0-2.18-.14A15.33,15.33,0,0,0,595.2,928.5Z"/><path id="freepik--shadow--inject-27-3" class="cls-2" d="M325.52,965.61,20.51,789.9c-6.42-3.7-6.42-9.72,0-13.44l619-357.23a25.7,25.7,0,0,1,23.29,0l305,175.69c6.45,3.7,6.45,9.74,0,13.44l-619,357.25a25.88,25.88,0,0,1-23.29,0Z"/></g><g id="freepik--Clouds--inject-27"><g id="freepik--clouds--inject-27-2"><path id="Path_696" data-name="Path 696" class="cls-3" d="M305.08,71.65,289.56,80.6a19.59,19.59,0,0,0,.14-2v-4.5c0-8-5.62-11.25-12.56-7.25a24.67,24.67,0,0,0-7.49,7.11c-1.13-10.07-9-13.81-18.62-8.29a41.55,41.55,0,0,0-18.77,32.53v6.73a17.66,17.66,0,0,0,1.59,7.8L221,120.12a15.42,15.42,0,0,0-7,12.28c0,4.44,3.13,6.23,7,4l84.12-48.55a15.36,15.36,0,0,0,7-12.06C312,71.22,308.93,69.42,305.08,71.65Z"/><path id="Path_697" data-name="Path 697" class="cls-3" d="M202.46,30.51l-8.55,3.3v-19c0-15-11.85-18.55-24.88-11.06h0c-13,7.47-23.47,25.66-23.47,40.61v2.7a12.56,12.56,0,0,0-10.87,1.68h0A37.32,37.32,0,0,0,117.83,78v1.23L106,86.14a24.6,24.6,0,0,0-11.11,19.27c0,7.11,5,10,11.11,6.4l96.57-55.75A24.56,24.56,0,0,0,213.67,36.8C213.58,29.73,208.6,26.86,202.46,30.51Z"/></g></g><g id="freepik--Plant--inject-27"><g id="freepik--Plants--inject-27"><path id="Path_698" data-name="Path 698" class="cls-4" d="M74.61,721.3,90.75,712s9.6-39.88,5.78-75.82c-5.38-50.44-38.59-69.42-51.22-65.08S29,590,49.93,620.18C62.24,638,77.38,675,74.61,721.3Z"/><g id="Group_161" data-name="Group 161" class="cls-5"><path id="Path_699" data-name="Path 699" d="M74.61,721.3,90.75,712s9.6-39.88,5.78-75.82c-5.38-50.44-38.59-69.42-51.22-65.08S29,590,49.93,620.18C62.24,638,77.38,675,74.61,721.3Z"/></g><path id="Path_700" data-name="Path 700" class="cls-6" d="M81.29,701.71h-.15a1.12,1.12,0,0,1-.9-1.29h0C89,653.85,72.83,601.53,52.71,579.8a1.11,1.11,0,0,1,0-1.57h0a1.12,1.12,0,0,1,1.59,0c20.47,22.22,37.06,75.44,28.15,122.59A1.08,1.08,0,0,1,81.29,701.71Z"/><path id="Path_701" data-name="Path 701" class="cls-4" d="M30.06,752.77c-2.55,1.3-9.33-4.51-11.2-5.9a23.56,23.56,0,0,1-7.42-9.49A22.24,22.24,0,0,1,10.14,724a52.79,52.79,0,0,1,2-7c.78-2.25,1.56-4.51,2.36-6.78a17.2,17.2,0,0,0,1.38-6.86c-.38-4.74-4.38-8.22-8-11.26-4-3.34-8.18-7.7-7.87-13.34a19.9,19.9,0,0,1,5.56-11.58c2.89-3.3,6.26-6.16,8.87-9.65a13.94,13.94,0,0,0,3.24-8.62,14.34,14.34,0,0,0-1.63-5.57,80.46,80.46,0,0,1-5.45-11.3c-1.19-4-.74-8.93,2.37-11.61a13,13,0,0,1,9.85-1.94,22.57,22.57,0,0,1,8.88,3.64c8.72,5.45,13.3,16.33,22.63,20.64a92.27,92.27,0,0,0,11.37,3.41,14.26,14.26,0,0,1,9.2,7c3.12,7.11-3.79,15.43-1.71,23,1.85,6.69,8.1,9.49,11.37,15.59a13.72,13.72,0,0,1,1.23,8.68,40.83,40.83,0,0,1-4.33,14.22,128.33,128.33,0,0,1-8.62,13.24S30.44,752.58,30.06,752.77Z"/><path id="Path_702" data-name="Path 702" class="cls-6" d="M54.75,739.9h0a1.11,1.11,0,0,1-1-1.21h0c4.08-44.26-14.36-94.3-28.83-109.27a1.14,1.14,0,0,1,0-1.59,1.11,1.11,0,0,1,1.57,0h0C41.26,643.17,60.07,693.94,55.83,739a1.1,1.1,0,0,1-1.07.95Z"/><path id="Path_703" data-name="Path 703" class="cls-6" d="M50.35,685.34a1,1,0,0,1-.34,0,148.74,148.74,0,0,0-31.91-6.8,1.17,1.17,0,0,1-1-1.24,1.09,1.09,0,0,1,1.16-1h.05a154.54,154.54,0,0,1,32.51,7,1.14,1.14,0,0,1,.58,1.5,1.15,1.15,0,0,1-1,.68Z"/></g></g><g id="freepik--Device--inject-27"><g id="freepik--device--inject-27-2"><g id="freepik--Mobile--inject-27"><path id="Path_704" data-name="Path 704" class="cls-7" d="M40.7,778.69,324.27,942.38a30.56,30.56,0,0,0,29.59.54l570.9-329.54c9-5.19,16.28-16.82,16.3-26.07s-7.29-20.75-16.3-25.94L642.24,398.3a36,36,0,0,0-32.56,0L40.7,726.8c-9,5.21-16.3,16.82-16.3,25.94S31.7,773.5,40.7,778.69Z"/><path id="Path_705" data-name="Path 705" class="cls-8" d="M324.27,942.39,40.7,778.69c-9-5.19-16.3-16.8-16.3-25.94s7.3-20.74,16.3-26l299-172.66v392.3a30.11,30.11,0,0,1-15.42-4.05Z"/><path id="Path_706" data-name="Path 706" class="cls-9" d="M331,913.22a31.92,31.92,0,0,0,28.72,0L924.83,587c12.16-7.11,12.16-18.51,0-25.52L642.26,398.31a36,36,0,0,0-32.55,0L40.73,726.8c-9,5.19-9,13.65,0,18.81Z"/><path id="Path_707" data-name="Path 707" class="cls-7" d="M358.46,880.36a34.09,34.09,0,0,0,30.94,0L875.62,599.61c8.55-4.93,8.55-12.94,0-17.86L609.85,428.31a34.23,34.23,0,0,0-31,0L92.64,709c-8.51,4.93-8.51,13,0,17.89Z"/><path id="Path_708" data-name="Path 708" class="cls-8" d="M595.3,424.66a31.29,31.29,0,0,1,14.55,3.65L875.62,581.75c8.55,4.92,8.55,12.93,0,17.86L823,630,595.3,484.58Z"/><path id="Path_709" data-name="Path 709" class="cls-10" d="M578.72,439.91a34.27,34.27,0,0,1,30.94,0L875.48,593.35a16.14,16.14,0,0,1,4,3.25,15.45,15.45,0,0,1-3.86,3L389.4,880.36a34.09,34.09,0,0,1-30.94,0L92.64,726.92a16,16,0,0,1-4-3.23,15.43,15.43,0,0,1,3.84-3Z"/><path id="Path_710" data-name="Path 710" class="cls-8" d="M778.48,510l-47.11-27.2c-2.82-1.64-3-4.17-.33-5.69a10.91,10.91,0,0,1,9.89.16l47,27.13c2.82,1.64,3,4.17.3,5.71a10.93,10.93,0,0,1-9.78-.12Z"/><path id="Path_711" data-name="Path 711" class="cls-8" d="M697.61,463.35a2.92,2.92,0,0,1,0-5.52,10.57,10.57,0,0,1,9.49,0,2.92,2.92,0,0,1,0,5.52A10.63,10.63,0,0,1,697.61,463.35Z"/><path id="Path_712" data-name="Path 712" class="cls-8" d="M678.51,452.26a2.92,2.92,0,0,1,0-5.52,10.63,10.63,0,0,1,9.49,0,2.92,2.92,0,0,1,0,5.52A10.57,10.57,0,0,1,678.51,452.26Z"/><path id="Path_713" data-name="Path 713" class="cls-8" d="M831.29,540.52a2.92,2.92,0,0,1,0-5.52,10.63,10.63,0,0,1,9.49,0,2.92,2.92,0,0,1,0,5.52A10.57,10.57,0,0,1,831.29,540.52Z"/><path id="Path_714" data-name="Path 714" class="cls-8" d="M812.19,529.48a2.92,2.92,0,0,1,0-5.52,10.57,10.57,0,0,1,9.49,0,2.92,2.92,0,0,1,0,5.52A10.63,10.63,0,0,1,812.19,529.48Z"/></g><g id="freepik--mail-notification--inject-27"><path id="Path_715" data-name="Path 715" class="cls-4" d="M346.59,802v1a5.71,5.71,0,0,0,2.56,4.48l55.32,31.94a5.85,5.85,0,0,0,5.16,0l91.63-52.84a5.76,5.76,0,0,0,2.56-4.48v-1a5.71,5.71,0,0,0-2.56-4.48L445.94,744.6a5.87,5.87,0,0,0-5.17,0l-91.62,52.88A5.69,5.69,0,0,0,346.59,802Z"/><path id="Path_716" data-name="Path 716" class="cls-4" d="M346.59,802v1a5.71,5.71,0,0,0,2.56,4.48l55.32,31.94a5.85,5.85,0,0,0,5.16,0l91.63-52.84a5.76,5.76,0,0,0,2.56-4.48v-1a5.71,5.71,0,0,0-2.56-4.48L445.94,744.6a5.87,5.87,0,0,0-5.17,0l-91.62,52.88A5.69,5.69,0,0,0,346.59,802Z"/><path id="Path_717" data-name="Path 717" class="cls-11" d="M501.26,776.53l-55.33-31.94a5.87,5.87,0,0,0-5.17,0l-33.69,19.48v75.82h0a5.37,5.37,0,0,0,2.58-.62l91.6-52.76a5.72,5.72,0,0,0,2.56-4.48v-1a5.67,5.67,0,0,0-2.56-4.48Z"/><path id="Path_718" data-name="Path 718" class="cls-12" d="M501.26,776.53l-55.33-31.94a5.87,5.87,0,0,0-5.17,0l-33.69,19.48v75.82h0a5.37,5.37,0,0,0,2.58-.62l91.6-52.76a5.72,5.72,0,0,0,2.56-4.48v-1a5.67,5.67,0,0,0-2.56-4.48Z"/><path id="Path_719" data-name="Path 719" class="cls-11" d="M407.06,764.07l-57.91,33.41a5.69,5.69,0,0,0-2.56,4.48v1a5.71,5.71,0,0,0,2.56,4.48l55.32,31.94a5.28,5.28,0,0,0,2.58.61h0Z"/><path id="Path_720" data-name="Path 720" class="cls-13" d="M407.06,764.07l-57.91,33.41a5.69,5.69,0,0,0-2.56,4.48v1a5.71,5.71,0,0,0,2.56,4.48l55.32,31.94a5.28,5.28,0,0,0,2.58.61h0Z"/><path id="Path_721" data-name="Path 721" class="cls-4" d="M395.61,827.28l-46.46-26.72a1.59,1.59,0,0,1,0-3l91.6-52.87a5.78,5.78,0,0,1,5.16,0l55.35,31.84a1.59,1.59,0,0,1,0,3l-15.21,8.76-5.31,3.08-71.08,41a5.66,5.66,0,0,1-5.16,0l-4.5-2.6Z"/><path id="Path_722" data-name="Path 722" class="cls-11" d="M395.61,827.28l-46.46-26.72a1.59,1.59,0,0,1,0-3l91.6-52.87a5.78,5.78,0,0,1,5.16,0l55.35,31.84a1.59,1.59,0,0,1,0,3l-15.21,8.76-5.31,3.08-71.08,41a5.66,5.66,0,0,1-5.16,0l-4.5-2.6Z"/><path id="Path_723" data-name="Path 723" class="cls-12" d="M437.79,782.72l63.47-6.19-62.88,3.56,7.56-35.54a5.78,5.78,0,0,0-2.83-.6l-11.84,48-83.15,6.87a1.78,1.78,0,0,0,1,1.61l67.15-3.88L407.07,833l11.84-36.61h0l11.47-.66a6.1,6.1,0,0,0,3.77-1.59h0a6.3,6.3,0,0,0,1.92-3.32Z"/><path id="Path_724" data-name="Path 724" class="cls-11" d="M367.94,797.22,431.25,792l2.36-9.05,1.26-5L443.24,744a5.61,5.61,0,0,0-2.37.59L395.07,771l-45.92,26.44a1.92,1.92,0,0,0-1,1.37l12.7-1Z"/><path id="Path_725" data-name="Path 725" class="cls-14" d="M432.86,737a23.13,23.13,0,0,1,20.94,0c5.78,3.34,5.78,8.74,0,12.08a23.13,23.13,0,0,1-20.94,0C427.08,745.78,427.08,740.38,432.86,737Z"/><path id="Path_726" data-name="Path 726" class="cls-10" d="M436,745.07a1.09,1.09,0,0,1-.43-.14.37.37,0,0,1-.12-.31l.88-3.79v-.36a.62.62,0,0,1,.31-.33l2.13-1.23a.89.89,0,0,1,.45-.12,1,1,0,0,1,.48.12l11.23,6.47a.28.28,0,0,1,.19.35.28.28,0,0,1-.19.19l-2.37,1.33a1,1,0,0,1-.48,0,.94.94,0,0,1-.47,0L440,742.87l-.5,2.08c0,.12-.12.19-.26.26a.85.85,0,0,1-.5,0Z"/></g><g id="freepik--Notification--inject-27"><path id="Path_727" data-name="Path 727" class="cls-4" d="M539.17,761.58,477,725.66c-1.41-.83-1.41-2.16,0-3L702.8,592.38a5.7,5.7,0,0,1,5.12,0l62.24,36c1.42.8,1.42,2.13,0,3L544.32,761.6a5.59,5.59,0,0,1-5.14,0Z"/><path id="Path_728" data-name="Path 728" class="cls-10" d="M527.33,721a1.23,1.23,0,0,1-.64.17h-.5l-12.94-1.47,7.65,4.44a.31.31,0,0,1,.17.4.29.29,0,0,1-.17.17l-1.51.87a.72.72,0,0,1-.5,0,.85.85,0,0,1-.5,0l-12-6.91c-.14,0-.22-.19-.22-.31a.37.37,0,0,1,.22-.29l1.3-.76a1.32,1.32,0,0,1,.64-.16h.52l12.94,1.47-7.67-4.44a.31.31,0,0,1-.16-.41.31.31,0,0,1,.16-.16l1.52-.88a1,1,0,0,1,.49-.12,1.06,1.06,0,0,1,.5.12l12,6.94a.29.29,0,0,1,.28.29.28.28,0,0,1-.28.28Z"/><path id="Path_729" data-name="Path 729" class="cls-10" d="M526.5,715.85a6.28,6.28,0,0,1-1.64-1.3,2.73,2.73,0,0,1-.69-1.45,2.46,2.46,0,0,1,.38-1.47,4,4,0,0,1,1.5-1.3,8.23,8.23,0,0,1,2.25-.88,11,11,0,0,1,2.49-.23,11.87,11.87,0,0,1,2.37.33,8.76,8.76,0,0,1,2.13.87l.83.48a.31.31,0,0,1,0,.57l-6.21,3.6a3.25,3.25,0,0,0,1,.33,5.68,5.68,0,0,0,1,0,7,7,0,0,0,1-.22,4.5,4.5,0,0,0,.9-.4,3.67,3.67,0,0,0,.85-.61,1.21,1.21,0,0,0,.31-.55.73.73,0,0,1,.14-.31,1.09,1.09,0,0,1,.29-.23l1.49-.86a1.06,1.06,0,0,1,.5-.12.88.88,0,0,1,.5.12.9.9,0,0,1,.38.55,1.6,1.6,0,0,1,0,.92,2.94,2.94,0,0,1-.67,1.16,5.72,5.72,0,0,1-1.54,1.23,9.07,9.07,0,0,1-2.25.88,11,11,0,0,1-2.49.23,10.68,10.68,0,0,1-2.37-.4A10.47,10.47,0,0,1,526.5,715.85Zm1.77-4.24a3,3,0,0,0-.76.62,1.23,1.23,0,0,0-.23.61,1,1,0,0,0,.16.55,1.36,1.36,0,0,0,.41.45l4.19-2.37a4.66,4.66,0,0,0-.71-.26,3.38,3.38,0,0,0-.9-.14,4.29,4.29,0,0,0-1,.12,6,6,0,0,0-1.14.42Z"/><path id="Path_730" data-name="Path 730" class="cls-10" d="M547.75,704.67l-3.63-4a.59.59,0,0,1-.14-.27.34.34,0,0,1,.21-.28l1.4-.83a1.17,1.17,0,0,1,.52-.12,1,1,0,0,1,.49.12h0l5.79,6.56a1.11,1.11,0,0,1,.14.29.37.37,0,0,1-.22.31l-1.41.8a.79.79,0,0,1-.52.12h-.5l-6.75-1.81,3.15,3.91a.74.74,0,0,1,.14.28.34.34,0,0,1-.21.29l-1.4.83a.86.86,0,0,1-.52.11,1.4,1.4,0,0,1-.5,0l-11.37-3.31h-.14a.29.29,0,0,1-.29-.29.28.28,0,0,1,.29-.28l1.39-.83a.82.82,0,0,1,.53-.12h.45l7,2.08-3.52-4.1a.3.3,0,0,1,0-.26.28.28,0,0,1,.19-.29l1.41-.83a1.06,1.06,0,0,1,.5,0,1.85,1.85,0,0,1,.47,0Z"/><path id="Path_731" data-name="Path 731" class="cls-10" d="M556.16,698.67a6.1,6.1,0,0,1-1.63-1.32,2.59,2.59,0,0,1-.69-1.45,2,2,0,0,1,.36-1.44,4.33,4.33,0,0,1,1.49-1.33,8.34,8.34,0,0,1,2.37-.87,11.76,11.76,0,0,1,2.37-.24,11.21,11.21,0,0,1,2.37.35,7.74,7.74,0,0,1,2.13.86l.83.47c.14.1.21.19.21.29s0,.21-.21.31l-6.21,3.57a2.61,2.61,0,0,0,.93.34,5.68,5.68,0,0,0,1,0,4.2,4.2,0,0,0,1-.22,3.64,3.64,0,0,0,.9-.4,2.91,2.91,0,0,0,.85-.62,1.31,1.31,0,0,0,.31-.52.93.93,0,0,1,.12-.33.66.66,0,0,1,.31-.21l1.49-.88a1.1,1.1,0,0,1,1,0,1.22,1.22,0,0,1,.38.57,1.6,1.6,0,0,1,0,.92,3.83,3.83,0,0,1-.67,1.16,6.15,6.15,0,0,1-1.56,1.22,8.21,8.21,0,0,1-2.25.87A9.45,9.45,0,0,1,561,700a10.21,10.21,0,0,1-2.51-.41A9.28,9.28,0,0,1,556.16,698.67Zm1.78-4.23a2.06,2.06,0,0,0-.76.61,1,1,0,0,0-.24.62.93.93,0,0,0,.14.54,2.78,2.78,0,0,0,.41.43l4.22-2.37A4.07,4.07,0,0,0,561,694a3.28,3.28,0,0,0-.88-.12,2.81,2.81,0,0,0-1,.12,3.31,3.31,0,0,0-1.14.49Z"/><path id="Path_732" data-name="Path 732" class="cls-10" d="M565.83,688.65a1.51,1.51,0,0,1,.26-1.11,2.74,2.74,0,0,1,1-.93,6.6,6.6,0,0,1,2.37-.85,8.48,8.48,0,0,1,2.36,0,2.12,2.12,0,0,1,0-.71,2.18,2.18,0,0,1,.26-.74,2.8,2.8,0,0,1,.53-.66,3.83,3.83,0,0,1,.73-.54,6.69,6.69,0,0,1,2.11-.81,7.28,7.28,0,0,1,2.08-.12,8.21,8.21,0,0,1,2,.45,12.05,12.05,0,0,1,1.82.85l5,2.89a.34.34,0,0,1,.15.45.29.29,0,0,1-.15.14l-1.41.81a1.11,1.11,0,0,1-.5.12,1.17,1.17,0,0,1-.52-.12l-4.9-2.84a5,5,0,0,0-2.25-.74,3.75,3.75,0,0,0-1.85.5,1.29,1.29,0,0,0-.78,1c0,.38.33.83,1.11,1.3l5,2.89a.28.28,0,0,1,.28.29.27.27,0,0,1-.28.28h0l-1.41.83a.9.9,0,0,1-.5.12,1.06,1.06,0,0,1-.5-.12L573,688.45a4.48,4.48,0,0,0-2.25-.73,3.15,3.15,0,0,0-1.84.49,1.32,1.32,0,0,0-.81,1c0,.41.38.86,1.23,1.33l4.9,2.83a.38.38,0,0,1,.19.31.35.35,0,0,1-.19.28l-1.41.81a1.15,1.15,0,0,1-1,0l-8.68-5a.29.29,0,1,1,0-.57l1.41-.83a1,1,0,0,1,.5-.12,1.11,1.11,0,0,1,.5.12Z"/><path id="Path_733" data-name="Path 733" class="cls-10" d="M582,681a2.1,2.1,0,0,1-.5-.68,1.48,1.48,0,0,1,0-.93,2.4,2.4,0,0,1,.55-1.06,4.66,4.66,0,0,1,1.41-1.12,8.47,8.47,0,0,1,4-1.18,6.79,6.79,0,0,1,2.06.23,8.16,8.16,0,0,1,2,.78l5.48,3.16a.38.38,0,0,1,.19.3.34.34,0,0,1-.19.29l-1.42.81a.85.85,0,0,1-.49.12.86.86,0,0,1-.5-.12l-.62-.36a1.61,1.61,0,0,1-.21,1.19,3.9,3.9,0,0,1-1.49,1.3,7.68,7.68,0,0,1-1.64.71,7.18,7.18,0,0,1-1.66.26,9.49,9.49,0,0,1-1.59-.14,4.92,4.92,0,0,1-1.39-.55c-.86-.49-1.22-1.06-1.09-1.68a3.58,3.58,0,0,1,1.44-2l2.51-2a2.39,2.39,0,0,0-1.59-.33,4.29,4.29,0,0,0-1.56.52,1.9,1.9,0,0,0-.59.5,1.2,1.2,0,0,0-.14.5,1.6,1.6,0,0,1,0,.31,1,1,0,0,1-.26.19l-1.73,1a.79.79,0,0,1-.43,0,.45.45,0,0,1-.54,0Zm8.34,1.23a3.32,3.32,0,0,0,1-.76,1.34,1.34,0,0,0,.35-.75,1,1,0,0,0-.16-.67,1.61,1.61,0,0,0-.59-.54l-.19-.12-2.09,1.73a1.79,1.79,0,0,0-.71.85.54.54,0,0,0,.33.59,1.47,1.47,0,0,0,1,0,3.74,3.74,0,0,0,1.14-.33Z"/><path id="Path_734" data-name="Path 734" class="cls-10" d="M588.67,670.24a1.15,1.15,0,0,1,1,0l1.45.83a.34.34,0,0,1,.21.29c0,.11,0,.21-.21.3l-1.59.93a1.08,1.08,0,0,1-.5.12,1.17,1.17,0,0,1-.52-.12l-1.44-.85a.31.31,0,0,1-.17-.41.3.3,0,0,1,.17-.16Zm13.1,7.11c.14,0,.21.19.21.31s0,.19-.21.28l-1.41.81a1.11,1.11,0,0,1-.5.12.86.86,0,0,1-.5-.12l-8.68-5a.34.34,0,0,1-.19-.28.3.3,0,0,1,.19-.29l1.41-.83a1.11,1.11,0,0,1,.5-.12,1.06,1.06,0,0,1,.5.12Z"/><path id="Path_735" data-name="Path 735" class="cls-10" d="M606.75,674.53a.31.31,0,0,1,.16.4.3.3,0,0,1-.16.17l-1.4.83a1.11,1.11,0,0,1-.5.12,1.17,1.17,0,0,1-.52-.12l-12.2-7.11a.4.4,0,0,1-.19-.31.34.34,0,0,1,.19-.28l1.41-.81a.85.85,0,0,1,.5,0,.92.92,0,0,1,.52,0Z"/><path id="Path_736" data-name="Path 736" class="cls-10" d="M533,731,717.27,624.61a8.22,8.22,0,0,1,7.4-.45c1.81,1,1.47,3-.78,4.26L539.6,734.83a8.3,8.3,0,0,1-7.42.45C530.36,734.21,530.74,732.32,533,731Z"/><path id="Path_737" data-name="Path 737" class="cls-10" d="M545.92,738.49,730.21,632.1a8.23,8.23,0,0,1,7.39-.47c1.85,1.06,1.47,3-.78,4.29L552.53,742.3a8.28,8.28,0,0,1-7.41.48C543.31,741.7,543.67,739.78,545.92,738.49Z"/></g></g></g><g id="freepik--Character--inject-27"><g id="freepik--character-envelope--inject-27"><path id="freepik--shadow--inject-27-4" class="cls-2" d="M272.33,807.52,176.09,752,607.22,503l98.21,54.45Z"/><g id="freepik--Back--inject-27"><path id="Path_738" data-name="Path 738" class="cls-4" d="M246.29,461.1,656.34,224.35l16.39,9.49a17.16,17.16,0,0,1,7.73,13.36V549.66A17.15,17.15,0,0,1,672.73,563L278.14,790.87a17.18,17.18,0,0,1-15.43,0l-8.69-5a17.18,17.18,0,0,1-7.73-13.37Z"/><path id="Path_739" data-name="Path 739" class="cls-13" d="M246.29,461.1,656.34,224.35l16.39,9.49a17.16,17.16,0,0,1,7.73,13.36V549.66A17.15,17.15,0,0,1,672.73,563L278.14,790.87a17.18,17.18,0,0,1-15.43,0l-8.69-5a17.18,17.18,0,0,1-7.73-13.37Z"/><path id="Path_740" data-name="Path 740" class="cls-4" d="M654.06,197.77l1.68-.9-6.37-3.72h0a11.91,11.91,0,0,0-1.68-.83L467.24,125.48a12.46,12.46,0,0,0-13.86,4.41L251.51,424.68a35,35,0,0,0-5.22,16.82v19.6l6.26,3.63L656.34,224.37V204.79A13.23,13.23,0,0,0,654.06,197.77Z"/><path id="Path_741" data-name="Path 741" class="cls-15" d="M461.72,131.31a11,11,0,0,0-2.09,2.22L257.76,428.31a30.62,30.62,0,0,0-3.74,8.43l-6.28-3.63a37.16,37.16,0,0,1,1.63-4.46v-.14c.29-.61.57-1.18.88-1.77a1.55,1.55,0,0,1,.14-.29,17.85,17.85,0,0,1,1.07-1.78L453.37,130a9.94,9.94,0,0,1,1-1.23c.35-.33.71-.69,1.09-1Z"/><path id="Path_742" data-name="Path 742" class="cls-16" d="M655.67,196.82a9.5,9.5,0,0,0-1.73-.83L473.47,129.1a12.39,12.39,0,0,0-11.85,2.21l-6.16-3.65a12.53,12.53,0,0,1,11.85-2.21l180.38,66.89a9.71,9.71,0,0,1,1.68.83Z"/><path id="Path_743" data-name="Path 743" class="cls-4" d="M250.44,426.46a16.14,16.14,0,0,1,1.07-1.78A16.14,16.14,0,0,0,250.44,426.46Z"/><path id="Path_744" data-name="Path 744" class="cls-4" d="M454.39,128.67a11.1,11.1,0,0,1,1.07-1A11.1,11.1,0,0,0,454.39,128.67Z"/><path id="Path_745" data-name="Path 745" class="cls-4" d="M247.74,433.12a37.61,37.61,0,0,1,1.66-4.48A37.61,37.61,0,0,0,247.74,433.12Z"/><path id="Path_746" data-name="Path 746" class="cls-4" d="M249.42,428.57c.26-.62.57-1.21.85-1.78C250.11,427.31,249.68,427.9,249.42,428.57Z"/><path id="Path_750" data-name="Path 750" class="cls-13" d="M250.27,426.74a1.61,1.61,0,0,1,.17-.28A1.61,1.61,0,0,0,250.27,426.74Z"/><path id="Path_751" data-name="Path 751" class="cls-13" d="M453.37,129.89a8.42,8.42,0,0,1,1-1.21A8.42,8.42,0,0,0,453.37,129.89Z"/><path id="Path_752" data-name="Path 752" class="cls-4" d="M459.63,133.54,257.76,428.31a35.08,35.08,0,0,0-5.28,16.84v19.58L662.52,228V208.4A14.21,14.21,0,0,0,653.87,196L473.49,129.13A12.38,12.38,0,0,0,459.63,133.54Z"/><path id="Path_753" data-name="Path 753" class="cls-17" d="M662.59,208.41a13.26,13.26,0,0,0-2.2-6.9L254,436.74h0a30.16,30.16,0,0,0-1.54,8.42v19.57L662.52,228Z"/></g><g id="freepik--Paper--inject-27"><path id="Path_754" data-name="Path 754" class="cls-4" d="M645.08,125.29a4.71,4.71,0,0,0-1.92-4.29l-12.53-7.11a4.77,4.77,0,0,0-4.74.47L289.44,308.65a14.73,14.73,0,0,0-6.66,11.54V723a4.74,4.74,0,0,0,1.94,4.32l12.49,7.11A4.75,4.75,0,0,0,302,734L638.4,539.78a14.71,14.71,0,0,0,6.68-11.7Z"/><path id="Path_755" data-name="Path 755" class="cls-18" d="M645.08,125.29a4.71,4.71,0,0,0-1.92-4.29l-12.53-7.11a4.77,4.77,0,0,0-4.74.47L289.44,308.65a14.73,14.73,0,0,0-6.66,11.54V723a4.74,4.74,0,0,0,1.94,4.32l12.49,7.11A4.75,4.75,0,0,0,302,734L638.4,539.78a14.71,14.71,0,0,0,6.68-11.7Z"/><path id="Path_756" data-name="Path 756" class="cls-4" d="M302.09,733.81,638.54,539.64a14.75,14.75,0,0,0,6.54-11.56V125.29c0-4.24-3-6-6.66-3.84L302.09,315.74a14.76,14.76,0,0,0-6.66,11.54V730.07C295.43,734.22,298.42,735.92,302.09,733.81Z"/><path id="Path_757" data-name="Path 757" class="cls-19" d="M302.09,733.81,638.54,539.64a14.75,14.75,0,0,0,6.54-11.56V125.29c0-4.24-3-6-6.66-3.84L302.09,315.74a14.76,14.76,0,0,0-6.66,11.54V730.07C295.43,734.22,298.42,735.92,302.09,733.81Z"/><path id="Path_758" data-name="Path 758" class="cls-4" d="M295.43,730A5,5,0,0,0,297,734c-2.25-1.28-11-6.35-12.09-7a4.62,4.62,0,0,1-2-4.29V320a13.39,13.39,0,0,1,2-6.54l12.49,7.11a13.47,13.47,0,0,0-2,6.59Z"/><path id="Path_759" data-name="Path 759" class="cls-20" d="M295.43,730A5,5,0,0,0,297,734c-2.25-1.28-11-6.35-12.09-7a4.62,4.62,0,0,1-2-4.29V320a13.39,13.39,0,0,1,2-6.54l12.49,7.11a13.47,13.47,0,0,0-2,6.59Z"/><path id="Path_760" data-name="Path 760" class="cls-17" d="M295.43,730A5,5,0,0,0,297,734c-2.25-1.28-11-6.35-12.09-7a4.62,4.62,0,0,1-2-4.29V320a13.39,13.39,0,0,1,2-6.54l12.49,7.11a13.47,13.47,0,0,0-2,6.59Z"/></g><g id="freepik--Front--inject-27"><path id="Path_778" data-name="Path 778" class="cls-4" d="M670.06,553.69a3.27,3.27,0,0,1-.43.62L498.75,500.12a29.46,29.46,0,0,0-36.91,11.37L279.16,783l-6.76,3.91h0a5.45,5.45,0,0,1-5.21.57L455.06,507.63A29.52,29.52,0,0,1,492,496.24Z"/><path id="Path_779" data-name="Path 779" class="cls-21" d="M445,538.15l.43-.38L279.16,783l-6.78,3.91h0a5.59,5.59,0,0,1-5.24.59L438.47,534.19Z"/><path id="Path_780" data-name="Path 780" class="cls-21" d="M670.06,553.72a4.45,4.45,0,0,1-.43.61L498.75,500.12a29.43,29.43,0,0,0-36.93,11.38l-6.76-3.94A29.49,29.49,0,0,1,492,496.24Z"/><path id="Path_781" data-name="Path 781" class="cls-4" d="M680.31,245.25h0c-.38-2.2-1.54-2.82-3-1.78a9.3,9.3,0,0,0-2,2l-.85,1.19L505.81,503.06l-25.16,35.07a14.39,14.39,0,0,1-13.89,5.19L445,538.15,279.18,477.09a8.79,8.79,0,0,0-3.39-.14,8.06,8.06,0,0,0-1.26.41l6.26-3.6L439.85,532l20.94,7.48a14.2,14.2,0,0,0,13.86-5.21l25.19-35L669.27,241.72a7.32,7.32,0,0,1,1.92-1.76l-14.66-8.45,6.16-3.53,10.14,5.85a17.65,17.65,0,0,1,7.48,11.42Z"/><path id="Path_782" data-name="Path 782" class="cls-21" d="M505.79,503,480.6,538.13a14.39,14.39,0,0,1-13.86,5.19L445,538.15l.43-.38,1-1.66,14.21,3.39a14.23,14.23,0,0,0,13.87-5.19l24.95-34.66Z"/><path id="Path_783" data-name="Path 783" class="cls-15" d="M672.73,233.8,662.59,228l-6.14,3.53L671.1,240h0a7,7,0,0,0-1.92,1.76L499.72,499.27l-.24.33h0l6.28,3.41,168.6-256.35.88-1.21a8,8,0,0,1,2-2c1.5-1.05,2.68-.45,3,1.77h0A17.59,17.59,0,0,0,672.73,233.8Z"/><path id="Path_784" data-name="Path 784" class="cls-4" d="M282.47,482l-36.18-20.9V772.48A17.16,17.16,0,0,0,254,785.84l8.69,5a17.18,17.18,0,0,0,15.43,0l4.33-2.51Z"/><path id="Path_785" data-name="Path 785" class="cls-12" d="M282.47,482l-36.18-20.9V772.48A17.16,17.16,0,0,0,254,785.84l8.69,5a17.18,17.18,0,0,0,15.43,0l4.33-2.51Z"/><path id="Path_786" data-name="Path 786" class="cls-4" d="M680.46,247.19V549.67a15.69,15.69,0,0,1-2.37,7.79,17,17,0,0,1-4.53,5.1l-.31.14-.47.33L278.14,790.84h0a5.53,5.53,0,0,1-5.26.62,4.72,4.72,0,0,1-2.37-3.7,7.84,7.84,0,0,1,0-1.37V483.91a6.7,6.7,0,0,1,6.27-7.11,6.79,6.79,0,0,1,2.41.29L445,538.15l21.73,5.16a14.35,14.35,0,0,0,13.88-5.18l25.15-35.07L674.43,246.69l.85-1.18C678.13,241.53,680.46,242.29,680.46,247.19Z"/><path id="Path_787" data-name="Path 787" class="cls-4" d="M672.76,563a3.12,3.12,0,0,0,.49-.31l.29-.19a16.51,16.51,0,0,0,4.52-5,15.87,15.87,0,0,0,2.37-7.67L505.79,503.06l117,88.83Z"/><path id="Path_788" data-name="Path 788" class="cls-13" d="M672.76,563a3.12,3.12,0,0,0,.49-.31l.29-.19a16.51,16.51,0,0,0,4.52-5,15.87,15.87,0,0,0,2.37-7.67L505.79,503.06l117,88.83Z"/><path id="Path_789" data-name="Path 789" class="cls-4" d="M270.41,786.34a5.29,5.29,0,0,0,2.37,5.07,5.49,5.49,0,0,0,5.26-.59h0L413.9,712.39l31-174.26L270.44,781.37Z"/><path id="Path_790" data-name="Path 790" class="cls-12" d="M461.76,511.5l-188.93,280a5.28,5.28,0,0,1-2.37-5.07v-5L455,507.66h0Z"/><path id="Path_791" data-name="Path 791" class="cls-4" d="M678.06,557.49a16.51,16.51,0,0,1-4.52,5l-.29.19L278.14,790.84h0a5.5,5.5,0,0,1-5.26.6L461.78,511.5A29.66,29.66,0,0,1,498.88,500Z"/><path id="Path_792" data-name="Path 792" class="cls-12" d="M247.74,433.12l6.28,3.63a30.16,30.16,0,0,0-1.54,8.41v19.55l-6.28-3.63V441.5A29.88,29.88,0,0,1,247.74,433.12Z"/><path id="Path_793" data-name="Path 793" class="cls-4" d="M280.72,473.76l-6.26,3.6-6.35-3.65-15.56-9,6-3.6Z"/><path id="Path_794" data-name="Path 794" class="cls-15" d="M280.91,473.87l-22.39-12.75-6,3.6,15.56,9,6.35,3.65h0a5.5,5.5,0,0,1,1.19-.38,8.28,8.28,0,0,1,3.36.12l12.61,4.74,144.84,53.33,2.37-3.36Z"/></g></g></g><g id="freepik--paper-planes--inject-27"><g id="freepik--paper-plane--inject-27"><path id="Path_835" data-name="Path 835" class="cls-4" d="M724.46,415.51l83.82-53.68,36.92,11.84Z"/><path id="Path_836" data-name="Path 836" class="cls-4" d="M724.46,415.51l72.45-60.42-16.11-18.6Z"/><path id="Path_837" data-name="Path 837" class="cls-4" d="M796.91,355.09v14l-72.45,46.42Z"/><path id="Path_838" data-name="Path 838" class="cls-22" d="M796.91,355.09v14l-72.45,46.42Z"/><path id="Path_839" data-name="Path 839" class="cls-2" d="M814,347a2.36,2.36,0,0,1-1.54-4.17c1.44-1.25,2.89-2.55,4.29-3.88a2.37,2.37,0,0,1,3.27,3.41c-1.47,1.4-2.94,2.75-4.48,4.08A2.41,2.41,0,0,1,814,347Z"/><path id="Path_840" data-name="Path 840" class="cls-2" d="M826.55,334.55a2.37,2.37,0,0,1-1.78-3.93c2.37-2.85,4.91-5.86,7.11-9a2.37,2.37,0,0,1,3.82,2.82h0c-2.37,3.23-4.88,6.33-7.44,9.27A2.39,2.39,0,0,1,826.55,334.55Zm13.89-18.77a2.37,2.37,0,0,1-2.36-2.38,2.29,2.29,0,0,1,.37-1.25c2-3.2,3.93-6.57,5.73-10a2.37,2.37,0,0,1,4.19,2.2c-1.87,3.53-3.86,7-5.92,10.3a2.38,2.38,0,0,1-2,1.11Zm10.92-20.64a2.23,2.23,0,0,1-1-.21,2.37,2.37,0,0,1-1.21-3.13h0c1.52-3.48,3-7.11,4.29-10.69a2.37,2.37,0,0,1,4.45,1.62c-1.35,3.72-2.84,7.41-4.44,11a2.34,2.34,0,0,1-2.15,1.41Zm8-22a2.51,2.51,0,0,1-.67,0,2.37,2.37,0,0,1-1.61-2.94h0c1.06-3.65,2-7.42,2.89-11.16a2.43,2.43,0,1,1,4.74,1h0c-.88,3.84-1.87,7.7-3,11.45a2.37,2.37,0,0,1-2.39,1.61Zm5.14-22.8h-.38a2.37,2.37,0,0,1-2-2.71h0c.6-3.77,1.09-7.61,1.45-11.44a2.38,2.38,0,1,1,4.74.45h0c-.38,3.93-.9,7.89-1.52,11.84a2.35,2.35,0,0,1-2.32,1.87Zm2.2-23.25h0a2.37,2.37,0,0,1-2.37-2.37h0V213.22a2.37,2.37,0,0,1,4.74,0v11.85a2.38,2.38,0,0,1-2.37,2.11Zm-.83-23.34a2.37,2.37,0,0,1-2.37-2.13c-.4-3.84-.92-7.67-1.59-11.42a2.4,2.4,0,0,1,4.73-.87v.06c.69,3.83,1.23,7.8,1.64,11.85a2.37,2.37,0,0,1-2.11,2.6h0Zm-4-23a2.36,2.36,0,0,1-2.37-1.78c-1-3.74-2-7.44-3.25-11a2.37,2.37,0,0,1,4.42-1.73c0,.07,0,.14.07.21,1.25,3.72,2.37,7.53,3.36,11.4a2.37,2.37,0,0,1-1.73,2.87,2.28,2.28,0,0,1-.64.06Zm-7.53-22.13a2.36,2.36,0,0,1-2.18-1.41,111.66,111.66,0,0,0-5-10.33,2.4,2.4,0,0,1,4.17-2.37c1.87,3.46,3.6,7.11,5.19,10.71a2.37,2.37,0,0,1-1.26,3.08,2.19,2.19,0,0,1-.92.31Zm-11.07-20.54a2.38,2.38,0,0,1-2-1.07q-3.11-4.85-6.68-9.36a2.37,2.37,0,0,1,3.69-3c2.37,3.06,4.74,6.3,7.11,9.62a2.37,2.37,0,0,1-.67,3.28,2.32,2.32,0,0,1-1.29.39Zm-14.6-18.25a2.33,2.33,0,0,1-1.7-.73c-2.61-2.73-5.38-5.43-8.28-8a2.38,2.38,0,0,1,3.2-3.53h0c3,2.68,5.83,5.47,8.51,8.28a2.37,2.37,0,0,1-.08,3.35,2.4,2.4,0,0,1-1.65.65Zm-17.32-15.68a2.48,2.48,0,0,1-1.46-.5c-3-2.37-6.09-4.74-9.27-6.86a2.37,2.37,0,0,1,2.32-4.13,2.25,2.25,0,0,1,.36.24c3.29,2.37,6.49,4.74,9.49,7.11a2.3,2.3,0,0,1-1.35,4.15ZM792.12,90.84a2.35,2.35,0,0,1-1.23-.36c-3.24-2-6.61-3.91-10-5.75a2.37,2.37,0,0,1,2.22-4.17c3.51,1.89,7,3.86,10.26,5.9a2.37,2.37,0,0,1-1.23,4.38ZM771.56,79.73a2.5,2.5,0,0,1-1-.24c-3.46-1.63-7.11-3.23-10.57-4.74a2.37,2.37,0,1,1,1.7-4.43l.12.05c3.63,1.51,7.25,3.15,10.78,4.74a2.37,2.37,0,0,1-1,4.5ZM532.25,73.85a2.37,2.37,0,0,1-.78-4.62c3.7-1.33,7.44-2.59,11.14-3.77a2.37,2.37,0,0,1,1.73,4.41,1.4,1.4,0,0,1-.29.09c-3.63,1.16-7.32,2.37-11,3.75a2.64,2.64,0,0,1-.69.14ZM750,70.79a2,2,0,0,1-.8-.16c-3.56-1.31-7.25-2.56-11-3.75a2.37,2.37,0,1,1,1-4.63,2,2,0,0,1,.41.13c3.79,1.21,7.56,2.49,11.18,3.81a2.36,2.36,0,0,1-.83,4.6Zm-195.42-4A2.39,2.39,0,1,1,554,62c3.71-1.07,7.55-2.09,11.37-3.06a2.37,2.37,0,0,1,1.14,4.6c-3.77,1-7.54,2-11.21,3a2.16,2.16,0,0,1-.62.09ZM727.8,63.68a3.21,3.21,0,0,1-.62,0c-3.67-1-7.44-2-11.26-2.83A2.43,2.43,0,0,1,717,56.11c3.88.9,7.72,1.85,11.44,2.87a2.39,2.39,0,0,1-.54,4.75h-.07ZM577.32,61a2.38,2.38,0,1,1-.5-4.74h0c3.81-.83,7.7-1.59,11.52-2.37a2.41,2.41,0,0,1,.85,4.74c-3.77.68-7.61,1.44-11.37,2.37ZM705,58.42h-.45c-3.72-.71-7.59-1.35-11.45-1.9a2.37,2.37,0,0,1,.69-4.69c3.93.57,7.84,1.21,11.63,1.92a2.38,2.38,0,0,1-.42,4.74ZM600.3,56.8a2.38,2.38,0,1,1-.35-4.74c3.88-.57,7.81-1.06,11.68-1.49a2.38,2.38,0,0,1,.52,4.74c-3.82.42-7.67.92-11.52,1.49Zm81.55-1.75h-.23c-3.79-.41-7.67-.74-11.56-1a2.38,2.38,0,1,1,0-4.75,2,2,0,0,1,.35,0c4,.28,7.89.61,11.73,1a2.35,2.35,0,0,1-.26,4.69Zm-58.35-.86a2.37,2.37,0,0,1-.19-4.73c3.93-.29,7.87-.53,11.84-.69a2.37,2.37,0,0,1,0,4.74h0c-3.81.16-7.72.4-11.58.68Zm35-.78h0c-3.39,0-6.8-.16-10.14-.16h-1.47a2.37,2.37,0,0,1,0-4.74h1.49c3.39,0,6.85,0,10.3.16a2.37,2.37,0,1,1,0,4.74h-.18Z"/><path id="Path_841" data-name="Path 841" class="cls-2" d="M515.74,80.27a2.37,2.37,0,0,1-.9-4.55l5.52-2.37a2.38,2.38,0,0,1,1.73,4.44L516.64,80a2.64,2.64,0,0,1-.9.29Z"/></g><g id="freepik--paper-plane--inject-27-2"><path id="Path_842" data-name="Path 842" class="cls-4" d="M168.22,270.2l109-53.41-78.57,74.73Z"/><path id="Path_843" data-name="Path 843" class="cls-4" d="M277.19,216.79,157,256.31,126.69,235Z"/><path id="Path_844" data-name="Path 844" class="cls-4" d="M157,256.31l4.76,30.51,6.42-16.63,109-53.4Z"/><path id="Path_845" data-name="Path 845" class="cls-22" d="M157,256.31l4.76,30.51,6.42-16.63,109-53.4Z"/><path id="Path_846" data-name="Path 846" class="cls-4" d="M161.8,286.83l16.56-9.53-10.14-7.11Z"/><path id="Path_847" data-name="Path 847" class="cls-22" d="M168.22,270.2l10.14,7.1-2.65,1.52Z"/><path id="Path_848" data-name="Path 848" class="cls-2" d="M176.42,590a2.46,2.46,0,0,1-.81-.14c-3.83-1.38-7.58-2.8-11.16-4.19a2.37,2.37,0,1,1,1.76-4.41c3.5,1.37,7.1,2.77,11,4.15a2.37,2.37,0,0,1-.8,4.59Zm-22-8.74a2.37,2.37,0,0,1-.95-.19c-3.7-1.64-7.32-3.32-10.83-5a2.37,2.37,0,0,1,2.09-4.26c3.43,1.68,7.1,3.34,10.66,5a2.37,2.37,0,0,1-1,4.53Zm-21.33-10.43a2.4,2.4,0,0,1-1.14-.28c-3.53-1.95-7.1-4-10.35-6a2.37,2.37,0,0,1,2.37-4c3.27,2,6.68,4,10.14,5.88a2.37,2.37,0,0,1,1,3.21,2.35,2.35,0,0,1-2.1,1.24Zm-20.14-12.44a2.42,2.42,0,0,1-1.35-.42c-3.31-2.37-6.54-4.74-9.62-7.11a2.45,2.45,0,0,1,3-3.87l.07,0c3,2.37,6.14,4.74,9.49,7a2.37,2.37,0,0,1-1.35,4.31Zm-18.5-14.73a2.39,2.39,0,0,1-1.59-.63c-3-2.72-5.85-5.54-8.55-8.43a2.37,2.37,0,0,1,3.43-3.25c2.62,2.8,5.42,5.55,8.32,8.18a2.36,2.36,0,0,1,.16,3.34,2.41,2.41,0,0,1-1.78.78Zm-16.21-17.2a2.42,2.42,0,0,1-1.85-.9c-2.51-3.11-4.9-6.35-7.1-9.67a2.37,2.37,0,0,1,3.93-2.65c2.15,3.2,4.5,6.35,6.92,9.48a2.25,2.25,0,0,1-.18,3.18,2.29,2.29,0,0,1-1.62.57ZM65,506.87a2.36,2.36,0,0,1-2.06-1.21C61,502.2,59.11,498.55,57.43,495a2.37,2.37,0,1,1,4.27-2.08.36.36,0,0,1,0,.09c1.62,3.53,3.42,7.11,5.29,10.35a2.38,2.38,0,0,1-.88,3.24h0a2.5,2.5,0,0,1-1.07.31Zm-9.8-21.44a2.37,2.37,0,0,1-2.22-1.54c-1.38-3.7-2.63-7.54-3.75-11.42a2.37,2.37,0,0,1,4.48-1.55,2.17,2.17,0,0,1,.07.24c1.09,3.77,2.37,7.49,3.63,11.09a2.35,2.35,0,0,1-1.37,3,2.39,2.39,0,0,1-.83.15Zm-6.61-22.72a2.37,2.37,0,0,1-2.37-1.88C45.35,457,44.59,453.06,44,449a2.38,2.38,0,0,1,4.7-.74c.59,3.91,1.32,7.78,2.13,11.52a2.36,2.36,0,0,1-1.8,2.82,1.78,1.78,0,0,1-.45.08Zm-3.7-23.39a2.37,2.37,0,0,1-2.37-2.13c-.4-3.82-.73-7.82-1-11.85a2.37,2.37,0,0,1,4.74-.26c.24,4,.55,7.94,1,11.71a2.38,2.38,0,0,1-2.11,2.58Zm-1.23-23.69h0a2.37,2.37,0,0,1-2.37-2.37h0a117.62,117.62,0,0,1,.71-12,2.37,2.37,0,1,1,4.72.41v.06c-.38,3.87-.61,7.78-.68,11.64a2.38,2.38,0,0,1-2.37,2.27ZM46,392.08h-.43a2.37,2.37,0,0,1-1.89-2.75c.71-3.94,1.61-7.87,2.62-11.85a2.37,2.37,0,0,1,4.58,1.23h0c-1,3.74-1.85,7.58-2.56,11.37a2.38,2.38,0,0,1-2.32,2Zm6.11-22.75a2.36,2.36,0,0,1-2.35-2.4,2.27,2.27,0,0,1,.13-.77c1.33-3.75,2.83-7.52,4.46-11.19a2.37,2.37,0,1,1,4.42,1.69c0,.09-.07.17-.11.26-1.56,3.53-3,7.1-4.31,10.82a2.37,2.37,0,0,1-2.24,1.59Zm9.62-21.63a2.37,2.37,0,0,1-2.35-2.39,2.31,2.31,0,0,1,.29-1.12c1.9-3.51,4-7.11,6.16-10.33a2.37,2.37,0,0,1,4,2.58c-2.11,3.25-4.12,6.61-6,10a2.39,2.39,0,0,1-2.09,1.12Zm13.06-19.95a2.38,2.38,0,0,1-2.37-2.38,2.44,2.44,0,0,1,.5-1.44c2.37-3.17,5-6.28,7.72-9.21a2.37,2.37,0,1,1,3.51,3.19h0c-2.59,2.85-5.12,5.86-7.49,8.91a2.38,2.38,0,0,1-1.87.93Zm15.94-17.49a2.37,2.37,0,0,1-1.61-4.1c2.91-2.75,6-5.38,9.12-7.84a2.37,2.37,0,0,1,2.94,3.72c-3,2.37-6,4.93-8.84,7.58a2.36,2.36,0,0,1-1.73.64Zm18.57-14.66a2.37,2.37,0,0,1-1.34-4.45c3.32-2.2,6.78-4.29,10.29-6.23a2.39,2.39,0,1,1,2.37,4.15h0c-3.39,1.87-6.75,3.91-10,6a2.38,2.38,0,0,1-1.47.5ZM129.85,284a2.37,2.37,0,0,1-1-4.52c3.64-1.64,7.37-3.18,11.14-4.53a2.37,2.37,0,0,1,1.61,4.46c-3.65,1.32-7.26,2.79-10.8,4.38a2.46,2.46,0,0,1-1,.22Z"/></g></g><g id="freepik--Icon--inject-27"><g id="freepik--At--inject-27"><path id="Path_849" data-name="Path 849" class="cls-4" d="M724,915.19a2.37,2.37,0,0,0-1.23-2.11,7.69,7.69,0,0,0-5.21-1.54,12.21,12.21,0,0,0-5.5,1.32l-9.49,5a16.62,16.62,0,0,0,1.73-4.34,14.58,14.58,0,0,0,.38-3.55V896a16.53,16.53,0,0,0-1.41-6.54,25.15,25.15,0,0,0-8.48-9.6c-2.91-2.22-6.39-4.74-10.49-7.37s-7.8-4.93-11.14-6.8a136.92,136.92,0,0,0-28-11.18,116.74,116.74,0,0,0-32.47-4.15,151.17,151.17,0,0,0-36.87,5.26,191.63,191.63,0,0,0-41.25,16.59q-18.56,9.81-28,20.4a44.64,44.64,0,0,0-11.45,20.87,31.05,31.05,0,0,0-.59,6.3V934a30.73,30.73,0,0,0,3.37,13.81,50.85,50.85,0,0,0,14.69,17.3c1.4,1.09,3.41,2.53,6.06,4.36s5.48,3.72,8.51,5.68,5.92,3.87,8.79,5.64,5.17,3.18,7,4.2A117.82,117.82,0,0,0,571,995.31,139.23,139.23,0,0,0,604.21,999a155.88,155.88,0,0,0,36-4.55,177.28,177.28,0,0,0,60.88-29.23A81.94,81.94,0,0,0,714.83,952a37.23,37.23,0,0,0,6.61-11.68A70.58,70.58,0,0,0,723.93,930a3.38,3.38,0,0,0,0-.45C724,928.84,724,915.33,724,915.19Zm-35.54,17a39.86,39.86,0,0,1-5.45,6.16,78.53,78.53,0,0,1-9.22,7.11,156.31,156.31,0,0,1-14.43,8.45,112.76,112.76,0,0,1-25.06,9.84,111.53,111.53,0,0,1-25,3.57,101.88,101.88,0,0,1-23.69-2.1A86.78,86.78,0,0,1,564.48,958a70.21,70.21,0,0,1-6.92-3.91q-4-2.49-8.18-5.21c-2.77-1.83-5.4-3.58-7.87-5.29a51.68,51.68,0,0,1-5.59-4.28A37.43,37.43,0,0,1,525.66,926c-.21-.55-.43-1.07-.62-1.62a34.39,34.39,0,0,1,8.08-12.27,76.58,76.58,0,0,1,19.19-13.67,162.63,162.63,0,0,1,27.93-11.85,113.59,113.59,0,0,1,14.22-3.41l-2.37,1.3a4.4,4.4,0,0,0-2.62,3.08,3.09,3.09,0,0,0,1.66,3.11l1.61,1a51.32,51.32,0,0,0-12.63,0,45.41,45.41,0,0,0-15.18,5.43,32,32,0,0,0-11.5,9.24,15.43,15.43,0,0,0-3.17,9.12v14.55q0,.66,0,1.32a21.73,21.73,0,0,0,4.74,11,50.13,50.13,0,0,0,12.49,10.92,73.83,73.83,0,0,0,17.24,8.41,76,76,0,0,0,18.45,3.77,69.46,69.46,0,0,0,18.32-1,59.45,59.45,0,0,0,16.84-5.87,62.79,62.79,0,0,0,10.19-6.45,24,24,0,0,0,5.14-5.45,10.57,10.57,0,0,0,1.69-4.74,27.15,27.15,0,0,0,0-4.23,64.06,64.06,0,0,0,14.43-1,65.39,65.39,0,0,0,19-7.11l1.09-.64a7.83,7.83,0,0,1-1.39,3.23Zm-84.56-14A41.16,41.16,0,0,1,621.39,925a40.1,40.1,0,0,1,5.28,4.07,25.46,25.46,0,0,1-2.77,1.71,27.44,27.44,0,0,1-16.28,3,40.11,40.11,0,0,1-17.53-6.68,34.54,34.54,0,0,1-5.4-4.22,18.77,18.77,0,0,1,2.48-1.56A27.56,27.56,0,0,1,604,918.24Zm66-14a23.31,23.31,0,0,1-8.47,1.9,16.48,16.48,0,0,1-9.86-2.56l-32.09-21a82,82,0,0,1,9.6,1.66,99.2,99.2,0,0,1,22.53,8.44,120.1,120.1,0,0,1,10.47,6.11c2.89,1.85,5.45,3.72,7.89,5.47Z"/><path id="Path_850" data-name="Path 850" class="cls-13" d="M724,915.19a2.37,2.37,0,0,0-1.23-2.11,7.69,7.69,0,0,0-5.21-1.54,12.21,12.21,0,0,0-5.5,1.32l-9.49,5a16.62,16.62,0,0,0,1.73-4.34,14.58,14.58,0,0,0,.38-3.55V896a16.53,16.53,0,0,0-1.41-6.54,25.15,25.15,0,0,0-8.48-9.6c-2.91-2.22-6.39-4.74-10.49-7.37s-7.8-4.93-11.14-6.8a136.92,136.92,0,0,0-28-11.18,116.74,116.74,0,0,0-32.47-4.15,151.17,151.17,0,0,0-36.87,5.26,191.63,191.63,0,0,0-41.25,16.59q-18.56,9.81-28,20.4a44.64,44.64,0,0,0-11.45,20.87,31.05,31.05,0,0,0-.59,6.3V934a30.73,30.73,0,0,0,3.37,13.81,50.85,50.85,0,0,0,14.69,17.3c1.4,1.09,3.41,2.53,6.06,4.36s5.48,3.72,8.51,5.68,5.92,3.87,8.79,5.64,5.17,3.18,7,4.2A117.82,117.82,0,0,0,571,995.31,139.23,139.23,0,0,0,604.21,999a155.88,155.88,0,0,0,36-4.55,177.28,177.28,0,0,0,60.88-29.23A81.94,81.94,0,0,0,714.83,952a37.23,37.23,0,0,0,6.61-11.68A70.58,70.58,0,0,0,723.93,930a3.38,3.38,0,0,0,0-.45C724,928.84,724,915.33,724,915.19Zm-35.54,17a39.86,39.86,0,0,1-5.45,6.16,78.53,78.53,0,0,1-9.22,7.11,156.31,156.31,0,0,1-14.43,8.45,112.76,112.76,0,0,1-25.06,9.84,111.53,111.53,0,0,1-25,3.57,101.88,101.88,0,0,1-23.69-2.1A86.78,86.78,0,0,1,564.48,958a70.21,70.21,0,0,1-6.92-3.91q-4-2.49-8.18-5.21c-2.77-1.83-5.4-3.58-7.87-5.29a51.68,51.68,0,0,1-5.59-4.28A37.43,37.43,0,0,1,525.66,926c-.21-.55-.43-1.07-.62-1.62a34.39,34.39,0,0,1,8.08-12.27,76.58,76.58,0,0,1,19.19-13.67,162.63,162.63,0,0,1,27.93-11.85,113.59,113.59,0,0,1,14.22-3.41l-2.37,1.3a4.4,4.4,0,0,0-2.62,3.08,3.09,3.09,0,0,0,1.66,3.11l1.61,1a51.32,51.32,0,0,0-12.63,0,45.41,45.41,0,0,0-15.18,5.43,32,32,0,0,0-11.5,9.24,15.43,15.43,0,0,0-3.17,9.12v14.55q0,.66,0,1.32a21.73,21.73,0,0,0,4.74,11,50.13,50.13,0,0,0,12.49,10.92,73.83,73.83,0,0,0,17.24,8.41,76,76,0,0,0,18.45,3.77,69.46,69.46,0,0,0,18.32-1,59.45,59.45,0,0,0,16.84-5.87,62.79,62.79,0,0,0,10.19-6.45,24,24,0,0,0,5.14-5.45,10.57,10.57,0,0,0,1.69-4.74,27.15,27.15,0,0,0,0-4.23,64.06,64.06,0,0,0,14.43-1,65.39,65.39,0,0,0,19-7.11l1.09-.64a7.83,7.83,0,0,1-1.39,3.23Zm-84.56-14A41.16,41.16,0,0,1,621.39,925a40.1,40.1,0,0,1,5.28,4.07,25.46,25.46,0,0,1-2.77,1.71,27.44,27.44,0,0,1-16.28,3,40.11,40.11,0,0,1-17.53-6.68,34.54,34.54,0,0,1-5.4-4.22,18.77,18.77,0,0,1,2.48-1.56A27.56,27.56,0,0,1,604,918.24Zm66-14a23.31,23.31,0,0,1-8.47,1.9,16.48,16.48,0,0,1-9.86-2.56l-32.09-21a82,82,0,0,1,9.6,1.66,99.2,99.2,0,0,1,22.53,8.44,120.1,120.1,0,0,1,10.47,6.11c2.89,1.85,5.45,3.72,7.89,5.47Z"/><path id="Path_851" data-name="Path 851" class="cls-15" d="M525.21,924.47a34.39,34.39,0,0,1,8.08-12.27,76.58,76.58,0,0,1,19.19-13.67,162.63,162.63,0,0,1,27.93-11.85,113.59,113.59,0,0,1,14.22-3.41l8.62-4.57a11.21,11.21,0,0,1,5.48-1.21,9.3,9.3,0,0,1,5.07,1.3l5.68,3.72a82,82,0,0,1,9.6,1.66,99.47,99.47,0,0,1,22.53,8.43,117.88,117.88,0,0,1,10.48,6.12c2.82,1.85,5.37,3.67,7.81,5.47a12.14,12.14,0,0,0,1.38-.62,8.5,8.5,0,0,0,5-5.44c.48-2.14-1-4.53-4.55-7.11-2.91-2.22-6.11-4.51-9.48-6.78a108.43,108.43,0,0,0-10.48-6.11,97,97,0,0,0-22.53-8.44,83,83,0,0,0-23.5-2.15,103.15,103.15,0,0,0-25.23,4.73,163.06,163.06,0,0,0-27.94,11.85,76.25,76.25,0,0,0-19.19,13.65A32.38,32.38,0,0,0,524.65,912a21.74,21.74,0,0,0,1.21,14.22,32.94,32.94,0,0,0,4.08,6.82,32.94,32.94,0,0,1-4.08-6.82C525.62,925.54,525.4,925,525.21,924.47Z"/><path id="Path_852" data-name="Path 852" class="cls-15" d="M621.46,910.5A41.19,41.19,0,0,0,604,903.7a27.47,27.47,0,0,0-16.59,3.08c-5,2.62-7.11,5.71-6.61,9.26a12.55,12.55,0,0,0,4.15,6.85h0a22,22,0,0,1,2.48-1.57A27.48,27.48,0,0,1,604,918.27a41.16,41.16,0,0,1,17.51,6.78,40.1,40.1,0,0,1,5.28,4.07l-1.25.83q6.25-3.84,5.59-8.46C630.56,918,627.38,914.29,621.46,910.5Z"/><path id="Path_853" data-name="Path 853" class="cls-15" d="M603.52,951.11a76.14,76.14,0,0,1-35.7-12.18A49.66,49.66,0,0,1,555.33,928a21.67,21.67,0,0,1-4.74-11,14.86,14.86,0,0,1,0-2.11v15.3c0,.44,0,.89,0,1.33a21.74,21.74,0,0,0,4.74,11,50.13,50.13,0,0,0,12.49,10.92,74.33,74.33,0,0,0,17.25,8.42,75.53,75.53,0,0,0,18.45,3.76Z"/><path id="Path_854" data-name="Path 854" class="cls-15" d="M655.79,923.39v14.54a62.92,62.92,0,0,0,14.43-1V922.37a62.88,62.88,0,0,1-14.43,1Z"/><path id="Path_855" data-name="Path 855" class="cls-15" d="M571.13,981A116.73,116.73,0,0,1,543,970.58c-1.8-1-4.12-2.37-7-4.17s-5.79-3.67-8.8-5.63-5.85-3.89-8.5-5.69-4.74-3.27-6.07-4.36a51.23,51.23,0,0,1-14.69-17.32,30.87,30.87,0,0,1-3.34-13.89v14.55A30.73,30.73,0,0,0,498,947.88a50.85,50.85,0,0,0,14.69,17.3c1.4,1.09,3.41,2.53,6.06,4.36s5.48,3.72,8.51,5.69,5.92,3.86,8.79,5.63,5.16,3.18,7,4.2a118.28,118.28,0,0,0,28.17,10.38,139.73,139.73,0,0,0,33.17,3.64V984.55A139.47,139.47,0,0,1,571.13,981Z"/><path id="Path_856" data-name="Path 856" class="cls-4" d="M694.79,879.81a25.21,25.21,0,0,1,8.47,9.6,15.1,15.1,0,0,1,1,9.64,19.75,19.75,0,0,1-5.1,8.88,37.51,37.51,0,0,1-10,7.37,64.61,64.61,0,0,1-19,7.11,62.92,62.92,0,0,1-14.43,1v4.24a10.3,10.3,0,0,1-1.69,4.73,23.55,23.55,0,0,1-5.14,5.45,62.23,62.23,0,0,1-10.19,6.47A59.89,59.89,0,0,1,622,950.19a69.46,69.46,0,0,1-18.32,1A76.24,76.24,0,0,1,568,939a49.9,49.9,0,0,1-12.49-11,21.72,21.72,0,0,1-4.74-11,15.11,15.11,0,0,1,3.11-10.47,31.92,31.92,0,0,1,11.49-9.25A45.25,45.25,0,0,1,580.55,892a51.32,51.32,0,0,1,12.63,0l-1.61-1a3.09,3.09,0,0,1-1.66-3.11,4.4,4.4,0,0,1,2.62-3.08l11.07-5.87a11.27,11.27,0,0,1,5.47-1.22,9.4,9.4,0,0,1,5.07,1.31l37.77,24.74a16.4,16.4,0,0,0,9.86,2.55,22.55,22.55,0,0,0,9.85-2.51,8.54,8.54,0,0,0,5-5.45c.47-2.13-1.05-4.52-4.55-7.1-2.92-2.22-6.12-4.51-9.49-6.78a108.27,108.27,0,0,0-10.47-6.11,97,97,0,0,0-22.53-8.44,83.19,83.19,0,0,0-23.48-2.16,102.93,102.93,0,0,0-25.26,4.74,163.06,163.06,0,0,0-27.94,11.85,76.25,76.25,0,0,0-19.19,13.65A32.38,32.38,0,0,0,525,912.13a21.68,21.68,0,0,0,1.22,14.22,37.29,37.29,0,0,0,10.25,13.27,52.89,52.89,0,0,0,5.6,4.29c2.37,1.7,5.09,3.45,7.87,5.28s5.49,3.55,8.17,5.21a68.24,68.24,0,0,0,6.92,3.91,86.36,86.36,0,0,0,21.13,7.27,102.47,102.47,0,0,0,23.7,2.11,112,112,0,0,0,25-3.58,113.49,113.49,0,0,0,25.07-9.83,161.47,161.47,0,0,0,14.43-8.46,79.26,79.26,0,0,0,9.21-7.11A35.84,35.84,0,0,0,692,927.27a20.42,20.42,0,0,1,1.71-3.32,8.49,8.49,0,0,1,3.1-2.37l15.26-8.74a12.09,12.09,0,0,1,5.5-1.33,7.69,7.69,0,0,1,5.21,1.54,2.38,2.38,0,0,1,1.19,2.53,73.69,73.69,0,0,1-2.49,10.36,37.65,37.65,0,0,1-6.61,11.68,83.34,83.34,0,0,1-13.77,13.17A174.69,174.69,0,0,1,640.25,980a156.38,156.38,0,0,1-36,4.57,139.19,139.19,0,0,1-33.17-3.67,116.84,116.84,0,0,1-28.17-10.38c-1.8-1-4.13-2.37-7-4.17s-5.78-3.67-8.79-5.64-5.85-3.88-8.51-5.68-4.74-3.27-6.06-4.36a51,51,0,0,1-14.69-17.32,30.49,30.49,0,0,1-2.78-19.86,44.64,44.64,0,0,1,11.45-20.87q9.48-10.59,28-20.4a191.63,191.63,0,0,1,41.25-16.59,151,151,0,0,1,36.8-5.28A116.88,116.88,0,0,1,645,854.36a137.53,137.53,0,0,1,28,11.19q5,2.79,11.14,6.8C688.44,875.12,691.87,877.59,694.79,879.81ZM590.16,927.08a40.11,40.11,0,0,0,17.53,6.68,27.44,27.44,0,0,0,16.28-3c5.24-2.77,7.6-5.9,7.11-9.34s-3.7-7.1-9.62-11a41.32,41.32,0,0,0-17.51-6.8,27.54,27.54,0,0,0-16.59,3.08c-5,2.63-7.11,5.71-6.61,9.27s3.63,7.25,9.41,11Z"/></g></g><g id="freepik--Envelope--inject-27"><g id="freepik--Mail--inject-27"><path id="Path_857" data-name="Path 857" class="cls-4" d="M698.11,815.27V817a9.64,9.64,0,0,0,4.36,7.58l93.78,54.17a9.62,9.62,0,0,0,8.74,0l155.29-89.66a9.66,9.66,0,0,0,4.36-7.58v-1.73a9.64,9.64,0,0,0-4.36-7.58L866.5,718.06a9.62,9.62,0,0,0-8.74,0l-155.29,89.6A9.67,9.67,0,0,0,698.11,815.27Z"/><path id="Path_858" data-name="Path 858" class="cls-4" d="M698.11,815.27V817a9.64,9.64,0,0,0,4.36,7.58l93.78,54.17a9.62,9.62,0,0,0,8.74,0l155.29-89.66a9.66,9.66,0,0,0,4.36-7.58v-1.73a9.64,9.64,0,0,0-4.36-7.58L866.5,718.06a9.62,9.62,0,0,0-8.74,0l-155.29,89.6A9.67,9.67,0,0,0,698.11,815.27Z"/><path id="Path_859" data-name="Path 859" class="cls-13" d="M800.61,751l-98.14,56.65a9.66,9.66,0,0,0-4.36,7.58V817a9.66,9.66,0,0,0,4.36,7.58l93.78,54.19a8.94,8.94,0,0,0,4.36,1h0Z"/><path id="Path_860" data-name="Path 860" class="cls-12" d="M800.61,751l-98.14,56.65a9.66,9.66,0,0,0-4.36,7.58V817a9.66,9.66,0,0,0,4.36,7.58l93.78,54.19a8.94,8.94,0,0,0,4.36,1h0Z"/><path id="Path_861" data-name="Path 861" class="cls-13" d="M960.28,772.13,866.5,718a9.62,9.62,0,0,0-8.74,0l-57.15,33V879.73h0a9.16,9.16,0,0,0,4.38-1.05L960.28,789a9.67,9.67,0,0,0,4.36-7.58v-1.73a9.67,9.67,0,0,0-4.36-7.59Z"/><path id="Path_862" data-name="Path 862" class="cls-4" d="M781.23,858.2l-78.76-45.46a2.67,2.67,0,0,1-1.7-3.35,2.62,2.62,0,0,1,1.7-1.7L857.76,718a9.68,9.68,0,0,1,8.74,0l93.78,54.09a2.66,2.66,0,0,1,0,5L934.5,792.05l-9,5.21L805,866.89a9.68,9.68,0,0,1-8.74,0l-7.65-4.41Z"/><path id="Path_863" data-name="Path 863" class="cls-12" d="M852.73,782.67l107.55-10.54-106.62,6L866.48,718a9,9,0,0,0-4.74-1l-20.12,81.34L700.69,810a2.94,2.94,0,0,0,1.78,2.72l113.73-6.61-15.69,61.79,20-62h0L840,804.77a10.62,10.62,0,0,0,6.42-2.67h0a10.49,10.49,0,0,0,3.27-5.64Z"/><path id="Path_864" data-name="Path 864" class="cls-11" d="M734.31,807.22l107.31-8.84L845.46,783l2.13-8.55L861.8,717a8.78,8.78,0,0,0-4,1l-77.64,44.83-77.72,44.81a3.15,3.15,0,0,0-1.77,2.37l21.53-1.78Z"/></g></g></g></svg>