<svg id="Layer_1" data-name="Layer 1" xmlns="http://www.w3.org/2000/svg" viewBox="0 0 1133.17 1080"><defs><style>.cls-1{fill:#36b8ba;}.cls-2{fill:#fff;}</style></defs><g id="Group_95" data-name="Group 95"><path id="blob1" class="cls-1" d="M1027.51,256.1c70.23,122.12,82.69,275,19.24,444.23-62.51,168.27-201.92,351.93-382.7,376.93-181.76,24-403.84-112.51-522.11-312.51S10.2,299.37,121.78,153.22,469.86-19.86,650.63,11.88C832.32,43.61,958.28,134,1027.51,256.1Z"/><g id="Services-05"><path id="Path_508" data-name="Path 508" class="cls-2" d="M793.45,305.92H738.14a11.42,11.42,0,0,0-11.41,11.41v16.23H608.8l-1-2.68a39,39,0,0,0-72.86,0l-1,2.68h-118V317.33a11.42,11.42,0,0,0-11.42-11.41H349.18a11.42,11.42,0,0,0-11.43,11.41v55.31A11.42,11.42,0,0,0,349.18,384h55.29a11.42,11.42,0,0,0,11.41-11.4V356.21h67.58l-11.24,7.63A180.53,180.53,0,0,0,394.4,499.25l-.16,2.64-2.52.9a39.05,39.05,0,1,0,28.23.34L417.08,502l.28-3a155.5,155.5,0,0,1,36-86.92,153.13,153.13,0,0,1,78.79-50.65l3.18-.84,1.56,3a39,39,0,0,0,68.73,0l1.55-2.9,3.19.84a153.31,153.31,0,0,1,78.78,50.65A155.54,155.54,0,0,1,725.23,499l.26,3.07-2.86,1.16a39.06,39.06,0,1,0,28.21-.34l-2.51-.89-.2-2.69a180.09,180.09,0,0,0-77.74-135.25l-11.23-7.66h67.57v16.24A11.42,11.42,0,0,0,738.14,384h55.31a11.42,11.42,0,0,0,11.41-11.4V317.33A11.42,11.42,0,0,0,793.45,305.92ZM393.06,361.23H360.55V328.72h32.51Zm28.62,178.22a16.26,16.26,0,1,1-16.31-16.2h.05A16.25,16.25,0,0,1,421.68,539.45ZM571.31,361.23a16.29,16.29,0,1,1,11.54-4.78A16.28,16.28,0,0,1,571.31,361.23Zm165.91,162A16.24,16.24,0,1,1,721,539.5h0A16.24,16.24,0,0,1,737.22,523.26Zm44.8-162H749.51V328.72H782Z"/><path id="Path_509" data-name="Path 509" class="cls-2" d="M690,602.83a11.44,11.44,0,0,0,1.43-14.41L580.82,422.58l-.15-.22a5.11,5.11,0,0,0-.45-.59,11.44,11.44,0,0,0-18.31.6l-.22.33L451.16,588.4a11.46,11.46,0,0,0,1.42,14.41,178.36,178.36,0,0,1,50.51,102.63l.29,2.27-1.79,1.47c-1.83,1.52-3.59,3.14-5.27,4.84a67.69,67.69,0,0,0-19.5,47.55A11.43,11.43,0,0,0,488.24,773h166a11.43,11.43,0,0,0,11.41-11.41A67.69,67.69,0,0,0,646.19,714c-1.5-1.53-3.27-3.17-5.27-4.86l-1.79-1.48.3-2.25A178.3,178.3,0,0,1,690,602.83ZM571.32,578.56a16.24,16.24,0,1,1-16.22,16.25h0A16.24,16.24,0,0,1,571.32,578.56Zm68,165.85,2.45,5.8h-141l2.44-5.8a44.78,44.78,0,0,1,40.4-27.61H599a44.71,44.71,0,0,1,40.34,27.58Zm-20.88-52.14-.78,4.29-4.24-.9A66.64,66.64,0,0,0,599,694H543.66a66.71,66.71,0,0,0-14.49,1.63l-4.25.9-.78-4.29a200.32,200.32,0,0,0-46.75-96.36l-2.12-2.41,84.62-126.87v90.74l-2.68,1a39.05,39.05,0,1,0,28.18,0l-2.69-1V466.6l84.62,126.92-2.12,2.41a200,200,0,0,0-46.73,96.31Z"/></g></g></svg>