<svg id="Layer_1" data-name="Layer 1" xmlns="http://www.w3.org/2000/svg" viewBox="0 0 466.95 466.45"><defs><style>.cls-1{fill:#36b8ba;}</style></defs><path id="Icon_awesome-dribbble" data-name="Icon awesome-dribbble" class="cls-1" d="M233.47,0C104.67,0,.25,104.42.25,233.22S104.67,466.45,233.47,466.45,466.7,362,466.7,233.22h0C466.55,104.48,362.22.15,233.47,0Zm154.2,107.55a198.24,198.24,0,0,1,45,124.1A465.5,465.5,0,0,0,294,225.24c-5.41-13.21-10.52-24.82-17.5-39.07A265.3,265.3,0,0,0,387.67,107.55Zm-22.14-23A225,225,0,0,1,261.12,156.4,1063.14,1063.14,0,0,0,186.79,39.85,198.73,198.73,0,0,1,365.53,84.51ZM148.77,53.26a1270.81,1270.81,0,0,1,73.86,115.2A743,743,0,0,1,38.46,192.8,199.93,199.93,0,0,1,148.77,53.24ZM34.26,233.52c0-2,0-4.06.09-6.09a735.21,735.21,0,0,0,204.72-28.35c5.7,11.16,11.16,22.49,16.14,33.8A308.5,308.5,0,0,0,85.47,366.71,198.39,198.39,0,0,1,34.26,233.52Zm76.93,157.15c20.81-42.54,77.28-97.45,157.59-124.85a828.46,828.46,0,0,1,42.49,151.07A198.82,198.82,0,0,1,111.19,390.67Zm233.58,8a859.75,859.75,0,0,0-38.69-142,292.5,292.5,0,0,1,124.08,8.51A199.56,199.56,0,0,1,344.77,398.66Z"/></svg>