<svg id="Layer_1" data-name="Layer 1" xmlns="http://www.w3.org/2000/svg" viewBox="0 0 1080 1080"><defs><style>.cls-1{fill:#0acf83;}.cls-2{fill:#a259ff;}.cls-3{fill:#f24e1e;}.cls-4{fill:#ff7262;}.cls-5{fill:#1abcfe;}</style></defs><g id="figma-1"><path id="Path_680" data-name="Path 680" class="cls-1" d="M362.79,1080a180.06,180.06,0,0,0,180-180V720h-180A180,180,0,1,0,359,1080Z"/><path id="Path_681" data-name="Path 681" class="cls-2" d="M182.79,540a180.07,180.07,0,0,1,180-180h180V720h-180A180.07,180.07,0,0,1,182.79,540Z"/><path id="Path_682" data-name="Path 682" class="cls-3" d="M182.79,180a180.06,180.06,0,0,1,180-180h180V360h-180A180.05,180.05,0,0,1,182.79,180Z"/><path id="Path_683" data-name="Path 683" class="cls-4" d="M542.78,0h180C822.2-1,903.64,78.69,904.7,178.1S826,359,726.61,360c-1.27,0-2.55,0-3.82,0h-180Z"/><path id="Path_684" data-name="Path 684" class="cls-5" d="M902.77,540a180,180,0,1,1-180-180h0A180.07,180.07,0,0,1,902.77,540Z"/></g></svg>