<svg id="Layer_1" data-name="Layer 1" xmlns="http://www.w3.org/2000/svg" viewBox="0 0 1080 1080"><defs><style>.cls-1{fill:#de4c36;}</style></defs><path id="git-icon" class="cls-1" d="M1059.71,491.94,588.16,20.36a69.57,69.57,0,0,0-98.36,0l-97.93,98,124.2,124.21a82.61,82.61,0,0,1,104.6,105.3L740.39,467.57a82.67,82.67,0,1,1-49.57,46.74L579.22,402.6V696.38A82.57,82.57,0,1,1,511.16,694V397.46a81.58,81.58,0,0,1-27.09-18.07,82.73,82.73,0,0,1-17.85-90.47L343.74,166.44,20.36,489.8a69.57,69.57,0,0,0,0,98.36l471.47,471.48a69.57,69.57,0,0,0,98.36,0L1059.63,590.2a69.6,69.6,0,0,0,0-98.4"/></svg>