<svg id="Layer_1" data-name="Layer 1" xmlns="http://www.w3.org/2000/svg" viewBox="0 0 1080 1080"><defs><style>.cls-1{fill:#161614;}</style></defs><g id="github-icon-1"><path id="Path_694" data-name="Path 694" class="cls-4" d="M540,13.32C241.7,13.37,0,255.21,0,553.49a540.08,540.08,0,0,0,369.28,512.26c27,5,36.9-11.71,36.9-26,0-12.88-.51-55.41-.73-100.53-150.26,32.64-181.94-63.73-181.94-63.73-24.57-62.41-59.95-79-59.95-79-49-33.51,3.7-32.84,3.7-32.84a113.52,113.52,0,0,1,82.66,55.66c48.17,82.55,126.33,58.69,157.15,44.89A115,115,0,0,1,441.36,792c-119.9-13.66-246-60-246-266.87A209,209,0,0,1,251,380.21a194.08,194.08,0,0,1,5.22-142.91s45.34-14.51,148.54,55.36a512.37,512.37,0,0,1,270.44,0c103.07-69.87,148.35-55.36,148.35-55.36a193.79,193.79,0,0,1,5.3,142.91,208.54,208.54,0,0,1,55.58,144.93c0,207.41-126.32,253.07-246.56,266.44a129.13,129.13,0,0,1,36.58,100c0,72.24-.63,130.4-.63,148.18,0,14.37,9.71,31.22,37.09,25.91C993.79,971.18,1146.53,665.22,1052,382.3a540.08,540.08,0,0,0-512-369"/><path id="Path_695" data-name="Path 695" class="cls-4" d="M202.23,782.56c-1.18,2.68-5.41,3.5-9.25,1.65s-6.09-5.43-4.85-8.13,5.38-3.54,9.3-1.69,6.1,5.45,4.8,8.13m26.56,23.69c-2.58,2.4-7.62,1.29-11-2.49a8.25,8.25,0,0,1-1.59-11.22c2.66-2.38,7.54-1.28,11.08,2.5s4.22,8.8,1.52,11.21m18.29,30.32c-3.31,2.3-8.72.15-12.07-4.65s-3.31-10.57,0-12.86,8.68-.23,12.07,4.53,3.31,10.65,0,13m30.83,35.11c-3,3.25-9.27,2.4-13.88-2a10.39,10.39,0,0,1-3.07-13.8c3-3.27,9.33-2.36,14,2s6.1,10.57,3,13.8m39.83,11.87c-1.3,4.23-7.38,6.1-13.5,4.35s-10.16-6.81-8.88-11.08,7.38-6.26,13.54-4.33,10.16,6.77,8.84,11.06m45.34,5c.16,4.45-5,8.13-11.47,8.13s-11.68-3.46-11.74-7.85,5.06-8.13,11.52-8.27,11.69,3.46,11.69,7.89m44.52-1.71c.77,4.35-3.7,8.8-10.16,10s-12.07-1.55-12.86-5.85,3.76-8.92,10-10.16,12.19,1.5,12.9,5.91"/></g></svg>