<svg id="Layer_1" data-name="Layer 1" xmlns="http://www.w3.org/2000/svg" viewBox="0 0 466.95 466.45"><defs><style>.cls-1{fill:#36b8ba;}</style></defs><path id="Icon_awesome-medium-m" data-name="Icon awesome-medium-m" class="cls-1" d="M55,123.42a18.26,18.26,0,0,0-5.89-15.29L5.53,55.5V47.71H141.07L245.88,277.52,338,47.71H467.3V55.5L430,91.37a10.93,10.93,0,0,0-4.16,10.45v262.9A10.92,10.92,0,0,0,430,375.17l36.45,35.77v7.8H283v-7.8l37.8-36.64c3.68-3.68,3.68-4.84,3.68-10.45V151.35L219.38,418.1h-14.2L83,151.35V330.12a24.36,24.36,0,0,0,6.76,20.49l49.13,59.55V418H-.35v-7.8l49.12-59.64A23.6,23.6,0,0,0,55,330Z"/></svg>