<svg xmlns="http://www.w3.org/2000/svg" width="29.988" height="23.795" viewBox="0 0 29.988 23.795">
  <path id="Icon_awesome-medium-m" data-name="Icon awesome-medium-m" d="M4.551,9.355a1.17,1.17,0,0,0-.378-.98L1.377,5V4.5h8.692L16.79,19.237,22.7,4.5h8.289V5L28.594,7.3a.7.7,0,0,0-.267.67V24.829a.7.7,0,0,0,.267.67l2.337,2.294v.5H19.17v-.5l2.424-2.35c.236-.236.236-.31.236-.67V11.146L15.091,28.252h-.911L6.343,11.146V22.61a1.562,1.562,0,0,0,.434,1.314l3.15,3.819v.5H1v-.5l3.15-3.825a1.511,1.511,0,0,0,.4-1.314Z" transform="translate(-0.998 -4.5)" fill="#fff"/>
</svg>
