<svg id="Layer_1" data-name="Layer 1" xmlns="http://www.w3.org/2000/svg" viewBox="0 0 1080 1080"><defs><style>.cls-2{fill:#61dafb;}</style></defs><g id="react-2"><path id="Path_679" data-name="Path 679" class="cls-2" d="M1080,540.09c0-71.56-89.6-139.35-227-181.4,31.7-140,17.62-251.4-44.46-287.07a96.6,96.6,0,0,0-49.32-12.33v49.1a50.89,50.89,0,0,1,25.09,5.73c29.94,17.17,42.92,82.54,32.8,166.64-2.42,20.69-6.38,42.49-11.21,64.72a1067.43,1067.43,0,0,0-139.8-24,1073.87,1073.87,0,0,0-91.57-110.06c71.76-66.7,139.12-103.26,184.93-103.26V59.08c-60.54,0-139.8,43.15-219.93,118C459.42,102.68,380.17,60,319.63,60v49.1c45.56,0,113.15,36.31,184.93,102.58A1039.5,1039.5,0,0,0,413.64,321.5a1027.85,1027.85,0,0,0-140,24.23c-5.06-22-8.8-43.37-11.44-63.83-10.35-84.1,2.41-149.47,32.15-166.87a49,49,0,0,1,25.32-5.73V60.18A98.17,98.17,0,0,0,269.9,72.52c-61.86,35.66-75.72,146.82-43.82,286.4C89.15,401.19,0,468.78,0,540.09S89.6,679.44,227,721.48c-31.7,140-17.62,251.41,44.46,287.08A96.91,96.91,0,0,0,321,1020.89c60.54,0,139.79-43.14,219.92-118C621,977.3,700.28,1020,760.82,1020a98.2,98.2,0,0,0,49.75-12.34c61.86-35.66,75.72-146.83,43.81-286.4C990.87,679.23,1080,611.42,1080,540.11ZM793.46,393.26c-8.13,28.45-18.29,57.68-29.71,87-9-17.62-18.5-35.22-28.84-52.84s-20.91-34.79-31.7-51.51c31.25,4.61,61.41,10.34,90.25,17.39ZM692.64,627.72c-17.17,29.71-34.79,57.9-53.06,84.09-32.8,2.87-66.05,4.41-99.58,4.41s-66.47-1.54-99.07-4.19q-27.42-39.3-53.28-83.64-25.11-43.27-45.79-87.61c13.66-29.51,29.06-58.93,45.56-87.83,17.17-29.71,34.79-57.9,53.06-84.1,32.8-2.86,66-4.41,99.58-4.41s66.47,1.55,99.07,4.19q27.42,39.3,53.29,83.65,25.1,43.26,45.78,87.61C724.34,569.39,709.14,598.82,692.64,627.72Zm71.13-28.62c11.89,29.51,22,58.94,30.38,87.61-28.84,7.06-59.22,13-90.7,17.62,10.79-17,21.58-34.34,31.7-52.16s19.49-35.47,28.52-53.07ZM540.55,834a908.17,908.17,0,0,1-61.19-70.44c19.81.88,40.07,1.55,60.54,1.55s41.17-.45,61.19-1.55A861.17,861.17,0,0,1,540.43,834ZM376.75,704.35C345.5,699.74,315.34,694,286.5,687c8.13-28.45,18.29-57.68,29.71-87,9,17.62,18.5,35.22,28.84,52.84s20.73,34.75,31.6,51.49ZM539.43,246.23a908.17,908.17,0,0,1,61.19,70.44c-19.81-.88-40.07-1.55-60.54-1.55s-41.17.45-61.21,1.55a859,859,0,0,1,60.46-70.46ZM376.53,375.89c-10.79,16.94-21.58,34.34-31.7,52.16s-19.59,35.22-28.62,52.84c-11.89-29.51-22-58.93-30.38-87.61C314.67,386.45,345.05,380.52,376.53,375.89ZM177.37,651.52C99.44,618.27,49,574.68,49,540.13s50.42-78.36,128.33-111.39c18.94-8.12,39.63-15.4,61-22.23a1057.48,1057.48,0,0,0,49.52,134.13,1043.32,1043.32,0,0,0-48.77,133.41c-21.79-6.83-42.49-14.22-61.64-22.35ZM295.81,966.1c-29.94-17.17-42.92-82.55-32.8-166.64,2.42-20.69,6.38-42.49,11.22-64.73a1067,1067,0,0,0,139.79,24A1075.16,1075.16,0,0,0,505.59,868.8c-71.75,66.7-139.12,103.26-184.93,103.26a52.54,52.54,0,0,1-25-6ZM818.09,798.34c10.34,84.1-2.42,149.47-32.15,166.87a49,49,0,0,1-25.32,5.73c-45.57,0-113.16-36.32-184.93-102.59a1039.92,1039.92,0,0,0,90.92-109.86,1028.09,1028.09,0,0,0,140-24.22,617.54,617.54,0,0,1,11.19,64.05Zm84.76-146.82c-18.94,8.12-39.63,15.4-61,22.23a1057.53,1057.53,0,0,0-49.53-134.13,1041.8,1041.8,0,0,0,48.77-133.41c21.79,6.83,42.5,14.22,61.86,22.35,77.94,33.25,128.34,76.84,128.34,111.39s-50.64,78.36-128.56,111.38Z"/><circle id="Ellipse_4" data-name="Ellipse 4" class="cls-2" cx="539.78" cy="540.11" r="100.61"/></g></svg>