<svg id="Layer_1" data-name="Layer 1" xmlns="http://www.w3.org/2000/svg" viewBox="0 0 466.95 466.45"><defs><style>.cls-1{fill:#36b8ba;}</style></defs><path id="Icon_awesome-twitter" data-name="Icon awesome-twitter" class="cls-1" d="M418.94,138.05c.29,4.15.29,8.3.29,12.52C419.23,277.08,323,422.85,147,422.85a270.49,270.49,0,0,1-147-43A200.41,200.41,0,0,0,23.11,381a191.67,191.67,0,0,0,118.81-40.9,95.85,95.85,0,0,1-89.48-66.31,121.34,121.34,0,0,0,18.07,1.49A101.42,101.42,0,0,0,95.69,272,95.7,95.7,0,0,1,19,178.18v-1.36A96.3,96.3,0,0,0,62.21,189,95.83,95.83,0,0,1,32.59,61.06,272,272,0,0,0,230,161.18a108.24,108.24,0,0,1-2.38-21.91,95.79,95.79,0,0,1,165.58-65.5,188.37,188.37,0,0,0,60.74-23.1,95.39,95.39,0,0,1-42.07,52.73A191.71,191.71,0,0,0,467,88.59,205.79,205.79,0,0,1,418.94,138.05Z"/></svg>