<svg id="Layer_1" data-name="Layer 1" xmlns="http://www.w3.org/2000/svg" viewBox="0 0 1133.17 1080"><defs><style>.cls-1{fill:#36b8ba;}.cls-2{fill:#fff;}</style></defs><g id="Group_88" data-name="Group 88"><path id="blob" class="cls-1" d="M1057.69,311c107.24,196.26,98.14,451.19-14.14,594.84-113.32,144.67-328.79,177-540.23,174-210.42-3-415.78-42.49-479.49-157.81C-40.91,805.7,36,612.47,138.15,419.24,241.34,226,369.84,31.79,546.84,3.46,723.85-23.88,949.45,113.7,1057.69,311Z"/><g id="Services-03"><path id="Path_499" data-name="Path 499" class="cls-2" d="M861.44,453.94a38.46,38.46,0,0,0-54.3,0l-47.27,47.32V383.47a38.12,38.12,0,0,0-11.25-27.15l-39.24-39.25a38.15,38.15,0,0,0-27.15-11.24H444a38.47,38.47,0,0,0-38.4,38.39V734.6A38.47,38.47,0,0,0,444,773H721.47a38.47,38.47,0,0,0,38.4-38.4V609.89L861.43,508.24a38.38,38.38,0,0,0,0-54.28l0,0ZM676.62,327.1h3.86a17.68,17.68,0,0,1,13.87,5l39.25,39.26a17.61,17.61,0,0,1,5,13.87v3.84h-62Zm62,407.5a17.13,17.13,0,0,1-17.12,17.11H444a17.12,17.12,0,0,1-17.12-17.11V344.22A17.14,17.14,0,0,1,444,327.1H655.34v72.66A10.65,10.65,0,0,0,666,410.4H738.6V522.55l-.9.89c-31.45,31.46-39,39-41,40.92l.07.06L677.08,584.1a10.69,10.69,0,0,0-2.55,4.15L654.9,647.12a10.64,10.64,0,0,0,13.42,13.42l58.87-19.62a10.62,10.62,0,0,0,4.15-2.57l7.22-7.22ZM728.42,611.24l-10.31,10.32L681.8,633.67l12.11-36.31,10.33-10.3Zm15-15L719.26,572l71.28-71.34,24.19,24.21Zm102.94-103L829.8,509.79l-24.21-24.15,16.6-16.6a17.11,17.11,0,1,1,24.6,23.78l-.41.41Z"/><path id="Path_500" data-name="Path 500" class="cls-2" d="M676.61,455.22A10.64,10.64,0,0,1,666,465.86H471.71a10.64,10.64,0,1,1,0-21.27H666A10.63,10.63,0,0,1,676.61,455.22Z"/><path id="Path_501" data-name="Path 501" class="cls-2" d="M621.11,510.73a10.64,10.64,0,0,1-10.64,10.64H471.71a10.64,10.64,0,1,1,0-21.27H610.47A10.64,10.64,0,0,1,621.11,510.73Z"/><path id="Path_502" data-name="Path 502" class="cls-2" d="M621.11,566.24a10.65,10.65,0,0,1-10.64,10.64H471.71a10.64,10.64,0,0,1,0-21.28H610.47A10.65,10.65,0,0,1,621.11,566.24Z"/><path id="Path_503" data-name="Path 503" class="cls-2" d="M621.11,621.74a10.65,10.65,0,0,1-10.64,10.64H471.71a10.64,10.64,0,1,1-.06-21.28H610.47A10.65,10.65,0,0,1,621.11,621.74Z"/><path id="Path_504" data-name="Path 504" class="cls-2" d="M676.61,706.85A10.65,10.65,0,0,1,666,717.49H582.72a10.64,10.64,0,0,1,0-21.28H666A10.65,10.65,0,0,1,676.61,706.85Z"/></g></g></svg>