<svg xmlns="http://www.w3.org/2000/svg" width="29.848" height="29.848" viewBox="0 0 29.848 29.848">
  <path id="Icon_awesome-dribbble" data-name="Icon awesome-dribbble" d="M15.487.563A14.924,14.924,0,1,0,30.411,15.487,14.941,14.941,0,0,0,15.487.563Zm9.867,6.882a12.687,12.687,0,0,1,2.879,7.941,29.79,29.79,0,0,0-8.876-.41c-.346-.845-.673-1.588-1.12-2.5A16.98,16.98,0,0,0,25.354,7.445ZM23.937,5.971a14.393,14.393,0,0,1-6.681,4.6A68.043,68.043,0,0,0,12.5,3.113,12.714,12.714,0,0,1,23.937,5.971Zm-13.87-2a81.337,81.337,0,0,1,4.726,7.372A47.548,47.548,0,0,1,3.008,12.9,12.794,12.794,0,0,1,10.067,3.97ZM2.739,15.506c0-.13,0-.26.006-.39a47.023,47.023,0,0,0,13.1-1.814c.365.714.714,1.439,1.033,2.163A19.745,19.745,0,0,0,6.016,24.029,12.7,12.7,0,0,1,2.739,15.506ZM7.662,25.562c1.332-2.722,4.945-6.236,10.084-7.989a52.987,52.987,0,0,1,2.719,9.667A12.722,12.722,0,0,1,7.662,25.562Zm14.947.511a55.019,55.019,0,0,0-2.476-9.089,18.71,18.71,0,0,1,7.94.545,12.77,12.77,0,0,1-5.464,8.544Z" transform="translate(-0.563 -0.563)" fill="#fff"/>
</svg>
