<svg id="Layer_1" data-name="Layer 1" xmlns="http://www.w3.org/2000/svg" viewBox="0 0 466.95 466.45"><defs><style>.cls-1{fill:#36b8ba;}</style></defs><path id="Icon_awesome-github" data-name="Icon awesome-github" class="cls-1" d="M156.27,372.13c0,1.87-2.16,3.39-4.89,3.39-3.13.28-5.27-1.22-5.27-3.39,0-1.88,2.16-3.39,4.89-3.39C153.83,368.39,156.27,369.89,156.27,372.13ZM127,367.89c-.65,1.88,1.22,4.05,4,4.61a4.41,4.41,0,0,0,5.83-1.87c.56-1.88-1.22-4.05-4-4.89a4.82,4.82,0,0,0-5.81,2.09Zm41.57-1.56c-2.73.66-4.61,2.44-4.33,4.61.29,1.87,2.74,3.12,5.55,2.44s4.61-2.44,4.33-4.33-2.81-3.17-5.53-2.83ZM230.47,5.85C106,3.23,2.89,102.05.27,226.57q-.09,4.37,0,8.75a235.79,235.79,0,0,0,159.4,225c12,2.15,16.27-5.27,16.27-11.38,0-5.83-.28-38-.28-57.74,0,0-65.83,14.06-79.7-28,0,0-10.72-27.37-26.15-34.39,0,0-21.53-14.76,1.56-14.48a49.66,49.66,0,0,1,36.31,24.27A49.7,49.7,0,0,0,175,358.73c.41-.21.81-.44,1.21-.67a52.22,52.22,0,0,1,15-31.69c-52.57-5.83-105.61-13.46-105.61-103.92a71.28,71.28,0,0,1,22.19-55.39,88.87,88.87,0,0,1,2.45-63.73c19.66-6.11,64.89,25.4,64.89,25.4a222.1,222.1,0,0,1,118.11,0s45.24-31.65,64.84-25.4a88.85,88.85,0,0,1,2.44,63.86,73.11,73.11,0,0,1,24.27,55.38c0,90.75-55.39,98-108,103.92a55.66,55.66,0,0,1,16,43.64c0,31.69-.28,70.9-.28,78.62,0,6.11,4.33,13.55,16.26,11.37A233.58,233.58,0,0,0,466.69,235.37C466.71,104.9,360.91,5.85,230.47,5.85ZM91.66,330.21c-1.21.94-.93,3.13.66,4.9,1.56,1.56,3.67,2.15,4.89.93,1.22-.93.94-3.12-.65-4.89C95.06,329.65,92.88,329,91.66,330.21Zm-10.14-7.62c-.65,1.22.28,2.73,2.16,3.67a2.8,2.8,0,0,0,3.93-.49l.12-.17c.65-1.22-.28-2.73-2.16-3.67C83.68,321.37,82.16,321.65,81.52,322.59ZM112,356.06c-1.57,1.22-.94,4.05,1.22,5.83,2.15,2.16,4.89,2.44,6.11.94,1.21-1.22.65-4.05-1.22-5.83-2.08-2.16-4.91-2.44-6.13-.92Zm-10.72-13.83c-1.57.94-1.57,3.39,0,5.55s4,3.12,5.26,2.16a4.28,4.28,0,0,0,0-5.83c-1.33-2.14-3.78-3.08-5.28-1.86Z"/></svg>