<svg xmlns="http://www.w3.org/2000/svg" width="29.848" height="29.102" viewBox="0 0 29.848 29.102">
  <path id="Icon_awesome-github" data-name="Icon awesome-github" d="M9.983,24c0,.12-.138.217-.313.217-.2.018-.337-.078-.337-.217,0-.12.138-.217.313-.217C9.827,23.761,9.983,23.857,9.983,24Zm-1.872-.271c-.042.12.078.259.259.295a.282.282,0,0,0,.373-.12c.036-.12-.078-.259-.259-.313A.309.309,0,0,0,8.112,23.725Zm2.66-.1c-.175.042-.295.156-.277.295.018.12.175.2.355.156s.295-.156.277-.277S10.946,23.6,10.772,23.622ZM14.731.562A14.43,14.43,0,0,0,0,15.246,15.087,15.087,0,0,0,10.2,29.64c.77.138,1.041-.337,1.041-.728,0-.373-.018-2.431-.018-3.695,0,0-4.212.9-5.1-1.793,0,0-.686-1.751-1.673-2.2,0,0-1.378-.945.1-.927a3.177,3.177,0,0,1,2.323,1.553A3.181,3.181,0,0,0,11.259,23.1a3.345,3.345,0,0,1,.963-2.028c-3.364-.373-6.758-.861-6.758-6.65a4.561,4.561,0,0,1,1.42-3.544A5.686,5.686,0,0,1,7.041,6.8c1.258-.391,4.152,1.625,4.152,1.625a14.216,14.216,0,0,1,7.558,0S21.646,6.4,22.9,6.8a5.683,5.683,0,0,1,.156,4.086,4.678,4.678,0,0,1,1.553,3.544c0,5.807-3.544,6.27-6.908,6.65a3.559,3.559,0,0,1,1.023,2.792c0,2.028-.018,4.537-.018,5.031,0,.391.277.867,1.041.728a14.948,14.948,0,0,0,10.1-14.382C29.848,6.9,23.078.562,14.731.562ZM5.849,21.318c-.078.06-.06.2.042.313.1.1.235.138.313.06.078-.06.06-.2-.042-.313C6.066,21.282,5.927,21.239,5.849,21.318ZM5.2,20.83c-.042.078.018.175.138.235a.179.179,0,0,0,.259-.042c.042-.078-.018-.175-.138-.235C5.338,20.752,5.241,20.77,5.2,20.83Zm1.95,2.142c-.1.078-.06.259.078.373.138.138.313.156.391.06.078-.078.042-.259-.078-.373C7.408,22.894,7.227,22.876,7.149,22.973Zm-.686-.885c-.1.06-.1.217,0,.355s.259.2.337.138a.274.274,0,0,0,0-.373C6.716,22.07,6.559,22.01,6.463,22.088Z" transform="translate(0 -0.563)" fill="#ffffff"/>
</svg>
