<svg xmlns="http://www.w3.org/2000/svg" width="29.848" height="29.847" viewBox="0 0 29.848 29.847">
  <path id="Icon_awesome-linkedin-in" data-name="Icon awesome-linkedin-in" d="M6.681,29.848H.493V9.92H6.681ZM3.584,7.2A3.6,3.6,0,1,1,7.168,3.584,3.614,3.614,0,0,1,3.584,7.2ZM29.841,29.848H23.667v-9.7c0-2.312-.047-5.277-3.217-5.277-3.217,0-3.71,2.512-3.71,5.11v9.867H10.557V9.92h5.935v2.718h.087a6.5,6.5,0,0,1,5.855-3.218c6.263,0,7.414,4.124,7.414,9.481V29.848Z" transform="translate(0 -0.001)" fill="#fff"/>
</svg>
