<svg id="Layer_1" data-name="Layer 1" xmlns="http://www.w3.org/2000/svg" viewBox="0 0 1080 1035.66"><defs><style>.cls-1{fill:#f0f0f0;}.cls-2{fill:#e0e0e0;}.cls-3{fill:#36b8ba;}.cls-4{opacity:0.1;}.cls-10,.cls-11,.cls-13,.cls-14,.cls-15,.cls-17,.cls-18,.cls-20,.cls-27,.cls-31,.cls-4,.cls-5,.cls-6,.cls-7,.cls-8,.cls-9{isolation:isolate;}.cls-17,.cls-20,.cls-21,.cls-5,.cls-7,.cls-8{fill:#fff;}.cls-5{opacity:0.7;}.cls-6{opacity:0.05;}.cls-7{opacity:0.9;}.cls-8{opacity:0.75;}.cls-17,.cls-26,.cls-9{opacity:0.5;}.cls-10,.cls-14{opacity:0.3;}.cls-11,.cls-20{opacity:0.6;}.cls-12{fill:#fafafa;}.cls-13{opacity:0.45;}.cls-14,.cls-30{fill:#263238;}.cls-15{opacity:0.4;}.cls-16{fill:#455a64;}.cls-18,.cls-25{opacity:0.15;}.cls-19{fill:#37474f;}.cls-22{fill:#ebebeb;}.cls-23{fill:none;stroke:#455a64;stroke-linecap:round;stroke-linejoin:round;}.cls-24,.cls-27{opacity:0.35;}.cls-28{fill:#f28f8f;}.cls-29{fill:#ffa8a7;}.cls-31{opacity:0.2;}</style></defs><g id="Version_control-amico" data-name="Version control-amico"><g id="freepik--Floor--inject-75"><ellipse id="freepik--floor--inject-75-2" class="cls-1" cx="540" cy="723.88" rx="540" ry="311.77"/></g><g id="freepik--Shadows--inject-75"><path id="freepik--Shadow--inject-75" class="cls-2" d="M388.19,984.49,32.55,779.17a1.63,1.63,0,0,1,0-3.09L578.69,460.77a5.91,5.91,0,0,1,5.34,0L939.67,666.1a1.62,1.62,0,0,1,1,2.07,1.6,1.6,0,0,1-1,1L393.53,984.49a5.91,5.91,0,0,1-5.34,0Z"/></g><g id="freepik--Plant--inject-75"><g id="freepik--Plants--inject-75"><path id="Path_510" data-name="Path 510" class="cls-3" d="M895.27,643.5l-25.79-13.64a574.65,574.65,0,0,1,1.11-70.67c4.3-43.89,36.94-94.87,70.77-82.51S925.87,533.8,914.87,571,895.27,643.5,895.27,643.5Z"/><path id="Path_511" data-name="Path 511" class="cls-4" d="M895.27,643.5l-25.79-13.64a574.65,574.65,0,0,1,1.11-70.67c4.3-43.89,36.94-94.87,70.77-82.51S925.87,533.8,914.87,571,895.27,643.5,895.27,643.5Z"/><path id="Path_512" data-name="Path 512" class="cls-2" d="M882.77,638.93h0a1.14,1.14,0,0,0,1.1-1.19h0c-3.3-97.55,45.27-146.69,45.83-147.11a1.13,1.13,0,0,0-1.6-1.6c-.51.48-49.77,50.27-46.42,148.8A1.14,1.14,0,0,0,882.77,638.93Z"/><path id="Path_513" data-name="Path 513" class="cls-3" d="M908.6,651.29l-13.32-7.75a150,150,0,0,1,8.32-65.06c12.31-33.72,44.4-52.1,59.21-47.06,18,6.12,18.15,23.38,11.57,34.75C966.66,579.53,918.34,613.38,908.6,651.29Z"/><path id="Path_514" data-name="Path 514" class="cls-2" d="M901.52,648.35h0a1.16,1.16,0,0,0,1.12-1.14c-.27-61.68,57.64-103.38,58.24-103.79a1.14,1.14,0,1,0-1-2,1.31,1.31,0,0,0-.28.2c-.59.41-59.45,42.79-59.18,105.64A1.14,1.14,0,0,0,901.52,648.35Z"/></g></g><g id="freepik--Gears--inject-75"><g id="freepik--gears--inject-75-2"><path id="Path_515" data-name="Path 515" class="cls-3" d="M310.79,58.75h0a1.92,1.92,0,0,0-2.07.16l-4.28,2.82-.94,2.57a5,5,0,0,0,1.14,4.77,18.6,18.6,0,0,1,2,2.29,2.91,2.91,0,0,0,4,.9h0l10-6.58a2,2,0,0,1,2-.21ZM295.41,95.42C294,87.33,288.85,83.31,282.16,84a19,19,0,0,1,1.37,4.73c2.3,12.83-5.91,31.05-18.13,40.66a24.86,24.86,0,0,1-12.81,5.73c4,8.62,14.14,9.42,24.69,1.13,12.17-9.72,20.28-27.94,18.06-40.78Zm.23-54.85h0a3.36,3.36,0,0,0-.79-.32l-7.52-1.69a4.08,4.08,0,0,0-4.27,2L276,54a6.22,6.22,0,0,1-1.58,1.81h0a6.22,6.22,0,0,1-1.22.79l2.3,7.37a2.54,2.54,0,0,0,3.13,1.76,2.6,2.6,0,0,0,.42-.15,36.68,36.68,0,0,1,4.58-1.52,7.9,7.9,0,0,0,2.68-1.4,5.68,5.68,0,0,0,1.61-1.84L295,47.35a4.08,4.08,0,0,1,4.26-2l7.55,1.7a3.33,3.33,0,0,1,.75.26ZM274.41,171.23a2.31,2.31,0,0,1-.71-1.15l-2.55-8.46a2.57,2.57,0,0,0-3.17-1.77l-.38.14a35.2,35.2,0,0,1-4.58,1.54,5.55,5.55,0,0,0-1.47.6l.34,1.1a2.16,2.16,0,0,0,1,1.31h0ZM260,47.45a1.9,1.9,0,0,0-.85-.2,2.3,2.3,0,0,0-1.37.52l-11.3,8.88a2.43,2.43,0,0,0-.44.41c-.1.1-.2.21-.29.32a9,9,0,0,0-1,1.79,2.16,2.16,0,0,1-.14.43h0a5.91,5.91,0,0,0-.29,1.81L245,72.16a8.47,8.47,0,0,1-1.76,5.19q-2.79,3.42-5.23,6.87a5.77,5.77,0,0,1-2.49,1.9,4.35,4.35,0,0,1-1,.3,1.93,1.93,0,0,1-.48,0,3.42,3.42,0,0,1-.64,0l-7.25-.37H226a3,3,0,0,0-.6,0,1.51,1.51,0,0,0-.52,0h0a3.92,3.92,0,0,0-.6.23,6.15,6.15,0,0,0-1,.65,4.15,4.15,0,0,0-1.17,1.49l-6.88,15.27a2.87,2.87,0,0,0,1.15,3.67l8,4.59a3.61,3.61,0,0,1,.19,2.08,69.41,69.41,0,0,0-1.26,7.29,9.21,9.21,0,0,1-2.43,5h0l-9.9,9.17a2.24,2.24,0,0,0-.49.53h0a2.73,2.73,0,0,0-.39.66,5.68,5.68,0,0,0-.75,3.65l1.9,10.88a2.14,2.14,0,0,0,.85,1.5l11.83,6.87a2,2,0,0,1-.83-1.44L221,147.75a5.09,5.09,0,0,1,.14-2.09,5.82,5.82,0,0,1,1.56-2.84l9.86-9.17h.14a9.15,9.15,0,0,0,2.45-5,62.47,62.47,0,0,1,1.28-7.29,3.69,3.69,0,0,0-2-4l-5.87-2.48a2.93,2.93,0,0,1-1.54-3.85v0l6.87-15.28a4,4,0,0,1,1.17-1.49,4.54,4.54,0,0,1,3-1.08l7.27.34a4.61,4.61,0,0,0,2.1-.41,5.68,5.68,0,0,0,2.48-1.9c1.65-2.29,3.42-4.72,5.25-6.88A8.28,8.28,0,0,0,256.87,79l-.66-10.72a5,5,0,0,1,.26-1.85,6.07,6.07,0,0,1,1.88-2.93l11.17-8.94a1.91,1.91,0,0,1,2.29-.32ZM243.06,161.39a5,5,0,0,0-1.17-4.76,17.07,17.07,0,0,1-1.95-2.3,2.92,2.92,0,0,0-4-.89l-5.7,3.74L226,168.38a2.49,2.49,0,0,0,1,3.05h0l11.92,6.88a2.5,2.5,0,0,1-1-3.1Z"/><path id="Path_516" data-name="Path 516" class="cls-5" d="M310.79,58.75h0a1.92,1.92,0,0,0-2.07.16l-4.28,2.82-.94,2.57a5,5,0,0,0,1.14,4.77,18.6,18.6,0,0,1,2,2.29,2.91,2.91,0,0,0,4,.9h0l10-6.58a2,2,0,0,1,2-.21ZM295.41,95.42C294,87.33,288.85,83.31,282.16,84a19,19,0,0,1,1.37,4.73c2.3,12.83-5.91,31.05-18.13,40.66a24.86,24.86,0,0,1-12.81,5.73c4,8.62,14.14,9.42,24.69,1.13,12.17-9.72,20.28-27.94,18.06-40.78Zm.23-54.85h0a3.36,3.36,0,0,0-.79-.32l-7.52-1.69a4.08,4.08,0,0,0-4.27,2L276,54a6.22,6.22,0,0,1-1.58,1.81h0a6.22,6.22,0,0,1-1.22.79l2.3,7.37a2.54,2.54,0,0,0,3.13,1.76,2.6,2.6,0,0,0,.42-.15,36.68,36.68,0,0,1,4.58-1.52,7.9,7.9,0,0,0,2.68-1.4,5.68,5.68,0,0,0,1.61-1.84L295,47.35a4.08,4.08,0,0,1,4.26-2l7.55,1.7a3.33,3.33,0,0,1,.75.26ZM274.41,171.23a2.31,2.31,0,0,1-.71-1.15l-2.55-8.46a2.57,2.57,0,0,0-3.17-1.77l-.38.14a35.2,35.2,0,0,1-4.58,1.54,5.55,5.55,0,0,0-1.47.6l.34,1.1a2.16,2.16,0,0,0,1,1.31h0ZM260,47.45a1.9,1.9,0,0,0-.85-.2,2.3,2.3,0,0,0-1.37.52l-11.3,8.88a2.43,2.43,0,0,0-.44.41c-.1.1-.2.21-.29.32a9,9,0,0,0-1,1.79,2.16,2.16,0,0,1-.14.43h0a5.91,5.91,0,0,0-.29,1.81L245,72.16a8.47,8.47,0,0,1-1.76,5.19q-2.79,3.42-5.23,6.87a5.77,5.77,0,0,1-2.49,1.9,4.35,4.35,0,0,1-1,.3,1.93,1.93,0,0,1-.48,0,3.42,3.42,0,0,1-.64,0l-7.25-.37H226a3,3,0,0,0-.6,0,1.51,1.51,0,0,0-.52,0h0a3.92,3.92,0,0,0-.6.23,6.15,6.15,0,0,0-1,.65,4.15,4.15,0,0,0-1.17,1.49l-6.88,15.27a2.87,2.87,0,0,0,1.15,3.67l8,4.59a3.61,3.61,0,0,1,.19,2.08,69.41,69.41,0,0,0-1.26,7.29,9.21,9.21,0,0,1-2.43,5h0l-9.9,9.17a2.24,2.24,0,0,0-.49.53h0a2.73,2.73,0,0,0-.39.66,5.68,5.68,0,0,0-.75,3.65l1.9,10.88a2.14,2.14,0,0,0,.85,1.5l11.83,6.87a2,2,0,0,1-.83-1.44L221,147.75a5.09,5.09,0,0,1,.14-2.09,5.82,5.82,0,0,1,1.56-2.84l9.86-9.17h.14a9.15,9.15,0,0,0,2.45-5,62.47,62.47,0,0,1,1.28-7.29,3.69,3.69,0,0,0-2-4l-5.87-2.48a2.93,2.93,0,0,1-1.54-3.85v0l6.87-15.28a4,4,0,0,1,1.17-1.49,4.54,4.54,0,0,1,3-1.08l7.27.34a4.61,4.61,0,0,0,2.1-.41,5.68,5.68,0,0,0,2.48-1.9c1.65-2.29,3.42-4.72,5.25-6.88A8.28,8.28,0,0,0,256.87,79l-.66-10.72a5,5,0,0,1,.26-1.85,6.07,6.07,0,0,1,1.88-2.93l11.17-8.94a1.91,1.91,0,0,1,2.29-.32ZM243.06,161.39a5,5,0,0,0-1.17-4.76,17.07,17.07,0,0,1-1.95-2.3,2.92,2.92,0,0,0-4-.89l-5.7,3.74L226,168.38a2.49,2.49,0,0,0,1,3.05h0l11.92,6.88a2.5,2.5,0,0,1-1-3.1Z"/><path id="Path_517" data-name="Path 517" class="cls-6" d="M310.79,58.75h0a1.92,1.92,0,0,0-2.07.16l-4.28,2.82-.94,2.57a5,5,0,0,0,1.14,4.77,18.6,18.6,0,0,1,2,2.29,2.91,2.91,0,0,0,4,.9h0l10-6.58a2,2,0,0,1,2-.21ZM295.41,95.42C294,87.33,288.85,83.31,282.16,84a19,19,0,0,1,1.37,4.73c2.3,12.83-5.91,31.05-18.13,40.66a24.86,24.86,0,0,1-12.81,5.73c4,8.62,14.14,9.42,24.69,1.13,12.17-9.72,20.28-27.94,18.06-40.78Zm.23-54.85h0a3.36,3.36,0,0,0-.79-.32l-7.52-1.69a4.08,4.08,0,0,0-4.27,2L276,54a6.22,6.22,0,0,1-1.58,1.81h0a6.22,6.22,0,0,1-1.22.79l2.3,7.37a2.54,2.54,0,0,0,3.13,1.76,2.6,2.6,0,0,0,.42-.15,36.68,36.68,0,0,1,4.58-1.52,7.9,7.9,0,0,0,2.68-1.4,5.68,5.68,0,0,0,1.61-1.84L295,47.35a4.08,4.08,0,0,1,4.26-2l7.55,1.7a3.33,3.33,0,0,1,.75.26ZM274.41,171.23a2.31,2.31,0,0,1-.71-1.15l-2.55-8.46a2.57,2.57,0,0,0-3.17-1.77l-.38.14a35.2,35.2,0,0,1-4.58,1.54,5.55,5.55,0,0,0-1.47.6l.34,1.1a2.16,2.16,0,0,0,1,1.31h0ZM260,47.45a1.9,1.9,0,0,0-.85-.2,2.3,2.3,0,0,0-1.37.52l-11.3,8.88a2.43,2.43,0,0,0-.44.41c-.1.1-.2.21-.29.32a9,9,0,0,0-1,1.79,2.16,2.16,0,0,1-.14.43h0a5.91,5.91,0,0,0-.29,1.81L245,72.16a8.47,8.47,0,0,1-1.76,5.19q-2.79,3.42-5.23,6.87a5.77,5.77,0,0,1-2.49,1.9,4.35,4.35,0,0,1-1,.3,1.93,1.93,0,0,1-.48,0,3.42,3.42,0,0,1-.64,0l-7.25-.37H226a3,3,0,0,0-.6,0,1.51,1.51,0,0,0-.52,0h0a3.92,3.92,0,0,0-.6.23,6.15,6.15,0,0,0-1,.65,4.15,4.15,0,0,0-1.17,1.49l-6.88,15.27a2.87,2.87,0,0,0,1.15,3.67l8,4.59a3.61,3.61,0,0,1,.19,2.08,69.41,69.41,0,0,0-1.26,7.29,9.21,9.21,0,0,1-2.43,5h0l-9.9,9.17a2.24,2.24,0,0,0-.49.53h0a2.73,2.73,0,0,0-.39.66,5.68,5.68,0,0,0-.75,3.65l1.9,10.88a2.14,2.14,0,0,0,.85,1.5l11.83,6.87a2,2,0,0,1-.83-1.44L221,147.75a5.09,5.09,0,0,1,.14-2.09,5.82,5.82,0,0,1,1.56-2.84l9.86-9.17h.14a9.15,9.15,0,0,0,2.45-5,62.47,62.47,0,0,1,1.28-7.29,3.69,3.69,0,0,0-2-4l-5.87-2.48a2.93,2.93,0,0,1-1.54-3.85v0l6.87-15.28a4,4,0,0,1,1.17-1.49,4.54,4.54,0,0,1,3-1.08l7.27.34a4.61,4.61,0,0,0,2.1-.41,5.68,5.68,0,0,0,2.48-1.9c1.65-2.29,3.42-4.72,5.25-6.88A8.28,8.28,0,0,0,256.87,79l-.66-10.72a5,5,0,0,1,.26-1.85,6.07,6.07,0,0,1,1.88-2.93l11.17-8.94a1.91,1.91,0,0,1,2.29-.32ZM243.06,161.39a5,5,0,0,0-1.17-4.76,17.07,17.07,0,0,1-1.95-2.3,2.92,2.92,0,0,0-4-.89l-5.7,3.74L226,168.38a2.49,2.49,0,0,0,1,3.05h0l11.92,6.88a2.5,2.5,0,0,1-1-3.1Z"/><path id="Path_518" data-name="Path 518" class="cls-3" d="M232.56,133.66l-9.86,9.17a5.78,5.78,0,0,0-1.56,2.84l-11.85-6.88a5.83,5.83,0,0,1,.59-1.55,2.62,2.62,0,0,1,.39-.67h0a2.24,2.24,0,0,1,.49-.53l9.9-9.16Z"/><path id="Path_519" data-name="Path 519" class="cls-3" d="M247.34,93a4.61,4.61,0,0,1-2.1.41L238,93.07a4.58,4.58,0,0,0-3,1.07l-11.87-6.87a5.52,5.52,0,0,1,1-.64,3.1,3.1,0,0,1,.6-.23h0a1.14,1.14,0,0,1,.52,0,2,2,0,0,1,.6,0h.18l7.25.36a2.29,2.29,0,0,0,.64,0h.48a5.14,5.14,0,0,0,.94-.3h0Z"/><path id="Path_520" data-name="Path 520" class="cls-3" d="M322.57,65.56a1.9,1.9,0,0,0-2,.26l-10,6.56a2.9,2.9,0,0,1-4-.9,18.6,18.6,0,0,0-2-2.29,5,5,0,0,1-1.17-4.76l1-2.55,4.29-2.82a1.89,1.89,0,0,1,2.06-.2h0Z"/><path id="Path_521" data-name="Path 521" class="cls-3" d="M307.42,47.41a3.44,3.44,0,0,0-.76-.27l-7.54-1.69a4.06,4.06,0,0,0-4.26,2l-7,13.5a5.65,5.65,0,0,1-1.6,1.84l-11.85-6.87A6.22,6.22,0,0,0,276,54.08l7.08-13.5a4.08,4.08,0,0,1,4.26-2l7.52,1.69a3.19,3.19,0,0,1,.79.32h0Z"/><path id="Path_522" data-name="Path 522" class="cls-3" d="M271.82,54.26a1.91,1.91,0,0,0-2.29.32l-11.28,8.88a6.07,6.07,0,0,0-1.88,2.93L244.5,59.51a3.22,3.22,0,0,0,.14-.44,9.43,9.43,0,0,1,1-1.79l.3-.32a2.46,2.46,0,0,1,.44-.41l11.3-8.87a2.29,2.29,0,0,1,1.37-.53,1.78,1.78,0,0,1,.85.21Z"/><path id="Path_523" data-name="Path 523" class="cls-7" d="M232.56,133.66l-9.86,9.17a5.78,5.78,0,0,0-1.56,2.84l-11.85-6.88a5.83,5.83,0,0,1,.59-1.55,2.62,2.62,0,0,1,.39-.67h0a2.24,2.24,0,0,1,.49-.53l9.9-9.16Z"/><path id="Path_524" data-name="Path 524" class="cls-7" d="M247.34,93a4.61,4.61,0,0,1-2.1.41L238,93.07a4.58,4.58,0,0,0-3,1.07l-11.87-6.87a5.52,5.52,0,0,1,1-.64,3.1,3.1,0,0,1,.6-.23h0a1.14,1.14,0,0,1,.52,0,2,2,0,0,1,.6,0h.18l7.25.36a2.29,2.29,0,0,0,.64,0h.48a5.14,5.14,0,0,0,.94-.3h0Z"/><path id="Path_525" data-name="Path 525" class="cls-7" d="M322.57,65.56a1.9,1.9,0,0,0-2,.26l-10,6.56a2.9,2.9,0,0,1-4-.9,18.6,18.6,0,0,0-2-2.29,5,5,0,0,1-1.17-4.76l1-2.55,4.29-2.82a1.89,1.89,0,0,1,2.06-.2h0Z"/><path id="Path_526" data-name="Path 526" class="cls-7" d="M307.42,47.41a3.44,3.44,0,0,0-.76-.27l-7.54-1.69a4.06,4.06,0,0,0-4.26,2l-7,13.5a5.65,5.65,0,0,1-1.6,1.84l-11.85-6.87A6.22,6.22,0,0,0,276,54.08l7.08-13.5a4.08,4.08,0,0,1,4.26-2l7.52,1.69a3.19,3.19,0,0,1,.79.32h0Z"/><path id="Path_527" data-name="Path 527" class="cls-7" d="M271.82,54.26a1.91,1.91,0,0,0-2.29.32l-11.28,8.88a6.07,6.07,0,0,0-1.88,2.93L244.5,59.51a3.22,3.22,0,0,0,.14-.44,9.43,9.43,0,0,1,1-1.79l.3-.32a2.46,2.46,0,0,1,.44-.41l11.3-8.87a2.29,2.29,0,0,1,1.37-.53,1.78,1.78,0,0,1,.85.21Z"/><path id="Path_528" data-name="Path 528" class="cls-3" d="M325.39,78,323.51,67.1a1.79,1.79,0,0,0-3-1.29l-10,6.56a2.89,2.89,0,0,1-4-.88h0a22.56,22.56,0,0,0-1.95-2.3,4.9,4.9,0,0,1-1.17-4.76l5.09-13.76a2.5,2.5,0,0,0-1.33-3.27,2.46,2.46,0,0,0-.51-.15l-7.55-1.7a4.05,4.05,0,0,0-4.26,2l-7,13.36a7.31,7.31,0,0,1-4.29,3.21A36.72,36.72,0,0,0,279,65.64a2.54,2.54,0,0,1-3.39-1.19,2.5,2.5,0,0,1-.16-.43l-2.55-8.43a1.87,1.87,0,0,0-3.18-1l-11.29,8.87a6.32,6.32,0,0,0-2.16,4.79L257,79a8.56,8.56,0,0,1-1.77,5.21Q252.44,87.6,250,91a5.83,5.83,0,0,1-4.58,2.29L238.13,93A4.57,4.57,0,0,0,234,95.53l-6.87,15.28a2.87,2.87,0,0,0,1.4,3.81l.11,0,5.85,2.5a3.64,3.64,0,0,1,2,4.06,69,69,0,0,0-1.26,7.29,9.14,9.14,0,0,1-2.43,5l-10,9.18a6,6,0,0,0-1.7,4.93L223,158.46a1.82,1.82,0,0,0,3,1.32l10-6.59a2.92,2.92,0,0,1,4,.89,17.07,17.07,0,0,0,1.95,2.3,5,5,0,0,1,1.17,4.76L238,174.9a2.49,2.49,0,0,0,1.33,3.27,2.15,2.15,0,0,0,.51.15l7.52,1.7a4.12,4.12,0,0,0,4.28-2l7.06-13.5a7.44,7.44,0,0,1,4.29-3.21,35.2,35.2,0,0,0,4.58-1.54,2.6,2.6,0,0,1,3.44,1.26c0,.12.1.24.14.37l2.54,8.43a1.88,1.88,0,0,0,3.19,1L288.13,162a6.26,6.26,0,0,0,2.13-4.77l-.67-10.75a8.49,8.49,0,0,1,1.74-5.18,85,85,0,0,0,5.25-6.88,5.75,5.75,0,0,1,4.59-2.29l7.26.35a4.6,4.6,0,0,0,4.15-2.55l6.88-15.28A2.91,2.91,0,0,0,318,110.8l-.06,0-5.86-2.5a3.63,3.63,0,0,1-2-4A66.91,66.91,0,0,0,311.32,97a9.12,9.12,0,0,1,2.45-5l10-9.17A6.09,6.09,0,0,0,325.39,78Zm-48.13,58.08c-12.22,9.63-23.93,6.87-26.15-5.85S257,99.19,269.26,89.58s23.93-7,26.13,5.85-6,31.06-18.18,40.66Z"/><path id="Path_529" data-name="Path 529" class="cls-8" d="M325.39,78,323.51,67.1a1.79,1.79,0,0,0-3-1.29l-10,6.56a2.89,2.89,0,0,1-4-.88h0a22.56,22.56,0,0,0-1.95-2.3,4.9,4.9,0,0,1-1.17-4.76l5.09-13.76a2.5,2.5,0,0,0-1.33-3.27,2.46,2.46,0,0,0-.51-.15l-7.55-1.7a4.05,4.05,0,0,0-4.26,2l-7,13.36a7.31,7.31,0,0,1-4.29,3.21A36.72,36.72,0,0,0,279,65.64a2.54,2.54,0,0,1-3.39-1.19,2.5,2.5,0,0,1-.16-.43l-2.55-8.43a1.87,1.87,0,0,0-3.18-1l-11.29,8.87a6.32,6.32,0,0,0-2.16,4.79L257,79a8.56,8.56,0,0,1-1.77,5.21Q252.44,87.6,250,91a5.83,5.83,0,0,1-4.58,2.29L238.13,93A4.57,4.57,0,0,0,234,95.53l-6.87,15.28a2.87,2.87,0,0,0,1.4,3.81l.11,0,5.85,2.5a3.64,3.64,0,0,1,2,4.06,69,69,0,0,0-1.26,7.29,9.14,9.14,0,0,1-2.43,5l-10,9.18a6,6,0,0,0-1.7,4.93L223,158.46a1.82,1.82,0,0,0,3,1.32l10-6.59a2.92,2.92,0,0,1,4,.89,17.07,17.07,0,0,0,1.95,2.3,5,5,0,0,1,1.17,4.76L238,174.9a2.49,2.49,0,0,0,1.33,3.27,2.15,2.15,0,0,0,.51.15l7.52,1.7a4.12,4.12,0,0,0,4.28-2l7.06-13.5a7.44,7.44,0,0,1,4.29-3.21,35.2,35.2,0,0,0,4.58-1.54,2.6,2.6,0,0,1,3.44,1.26c0,.12.1.24.14.37l2.54,8.43a1.88,1.88,0,0,0,3.19,1L288.13,162a6.26,6.26,0,0,0,2.13-4.77l-.67-10.75a8.49,8.49,0,0,1,1.74-5.18,85,85,0,0,0,5.25-6.88,5.75,5.75,0,0,1,4.59-2.29l7.26.35a4.6,4.6,0,0,0,4.15-2.55l6.88-15.28A2.91,2.91,0,0,0,318,110.8l-.06,0-5.86-2.5a3.63,3.63,0,0,1-2-4A66.91,66.91,0,0,0,311.32,97a9.12,9.12,0,0,1,2.45-5l10-9.17A6.09,6.09,0,0,0,325.39,78Zm-48.13,58.08c-12.22,9.63-23.93,6.87-26.15-5.85S257,99.19,269.26,89.58s23.93-7,26.13,5.85-6,31.06-18.18,40.66Z"/><path id="Path_530" data-name="Path 530" class="cls-3" d="M187.63,97.51h0a2.3,2.3,0,0,0-2.52.21l-5.18,3.42-1.15,3.07a6,6,0,0,0,1.36,5.8,27.67,27.67,0,0,1,2.29,2.89,3.47,3.47,0,0,0,4.8,1.1l0,0,12.08-8a2.29,2.29,0,0,1,2.46-.26ZM169,141.82c-1.69-9.77-7.93-14.67-16-14a23.37,23.37,0,0,1,1.67,5.71c2.68,15.52-7.15,37.5-21.91,49.12a29.87,29.87,0,0,1-15.5,6.88c4.86,10.4,17.13,11.46,29.8,1.35C161.92,179.34,171.7,157.32,169,141.82Zm.27-66.27h0a3,3,0,0,0-1-.36l-9.17-2.07A4.94,4.94,0,0,0,154,75.41l-8.55,16.34A7.55,7.55,0,0,1,143.55,94h0a7,7,0,0,1-1.45,1l2.66,8.92a3.11,3.11,0,0,0,3.87,2.11,3.29,3.29,0,0,0,.44-.16,44.08,44.08,0,0,1,5.59-1.85,9.93,9.93,0,0,0,3.26-1.69,7.5,7.5,0,0,0,1.93-2.3l8.59-16.23a5,5,0,0,1,5.16-2.29l9.17,2.07a3.29,3.29,0,0,1,.91.32ZM143.67,233.41a2.71,2.71,0,0,1-.85-1.37l-3.07-10.23a3.07,3.07,0,0,0-3.77-2.15,3.16,3.16,0,0,0-.54.2,42.54,42.54,0,0,1-5.59,1.85,7.59,7.59,0,0,0-1.77.73l.42,1.32a2.46,2.46,0,0,0,1.17,1.58h0ZM126.25,83.79a2.36,2.36,0,0,0-1-.26,2.51,2.51,0,0,0-1.67.64L109.93,94.89a3.64,3.64,0,0,0-.53.51,2.86,2.86,0,0,0-.36.41,9.08,9.08,0,0,0-1.19,2.13,2.49,2.49,0,0,1-.16.53h0a6.62,6.62,0,0,0-.37,2.29l.82,13A10.33,10.33,0,0,1,106,120a100.8,100.8,0,0,0-6.32,8.37,6.91,6.91,0,0,1-3,2.29,4.56,4.56,0,0,1-1.19.37,2.81,2.81,0,0,1-.58,0,3.48,3.48,0,0,1-.79,0l-8.75-.43h-.21a2.24,2.24,0,0,0-.73,0l-.65.13h0a4.71,4.71,0,0,0-.71.27,5.92,5.92,0,0,0-1.26.79,5.63,5.63,0,0,0-1.42,1.79L72.18,152a3.51,3.51,0,0,0,1.4,4.45L83.29,162a4.33,4.33,0,0,1,.23,2.54,82.18,82.18,0,0,0-1.53,8.8,11,11,0,0,1-2.94,6h-.13l-12,11a4.35,4.35,0,0,0-.57.64h0a4,4,0,0,0-.48.79,6.83,6.83,0,0,0-.9,4.4l2.29,13.17a2.64,2.64,0,0,0,1.06,1.79l14.28,8.23a2.61,2.61,0,0,1-1-1.74L79.28,205a6,6,0,0,1,.16-2.52,6.84,6.84,0,0,1,1.88-3.44l11.92-11h.14a11.17,11.17,0,0,0,3-6,74.9,74.9,0,0,1,1.51-8.8,4.4,4.4,0,0,0-2.55-5.11l-7.07-3a3.51,3.51,0,0,1-1.85-4.59l8.23-18.33a4.9,4.9,0,0,1,1.4-1.79,5.39,5.39,0,0,1,3.62-1.32l8.78.42a5.74,5.74,0,0,0,2.55-.51,6.66,6.66,0,0,0,3-2.29c2-2.87,4.1-5.68,6.32-8.37a10.1,10.1,0,0,0,2.11-6.28l-.79-13a6.17,6.17,0,0,1,.32-2.29,7.75,7.75,0,0,1,2.29-3.55L138,92.64a2.32,2.32,0,0,1,2.69-.38ZM105.8,221.43a6,6,0,0,0-1.44-5.73,26.41,26.41,0,0,1-2.29-2.89,3.5,3.5,0,0,0-4.84-1.08l-6.88,4.58-5,13.55a3,3,0,0,0,1.21,3.69h0l14.28,8.18A3,3,0,0,1,99.63,238Z"/><path id="Path_531" data-name="Path 531" class="cls-5" d="M187.63,97.51h0a2.3,2.3,0,0,0-2.52.21l-5.18,3.42-1.15,3.07a6,6,0,0,0,1.36,5.8,27.67,27.67,0,0,1,2.29,2.89,3.47,3.47,0,0,0,4.8,1.1l0,0,12.08-8a2.29,2.29,0,0,1,2.46-.26ZM169,141.82c-1.69-9.77-7.93-14.67-16-14a23.37,23.37,0,0,1,1.67,5.71c2.68,15.52-7.15,37.5-21.91,49.12a29.87,29.87,0,0,1-15.5,6.88c4.86,10.4,17.13,11.46,29.8,1.35C161.92,179.34,171.7,157.32,169,141.82Zm.27-66.27h0a3,3,0,0,0-1-.36l-9.17-2.07A4.94,4.94,0,0,0,154,75.41l-8.55,16.34A7.55,7.55,0,0,1,143.55,94h0a7,7,0,0,1-1.45,1l2.66,8.92a3.11,3.11,0,0,0,3.87,2.11,3.29,3.29,0,0,0,.44-.16,44.08,44.08,0,0,1,5.59-1.85,9.93,9.93,0,0,0,3.26-1.69,7.5,7.5,0,0,0,1.93-2.3l8.59-16.23a5,5,0,0,1,5.16-2.29l9.17,2.07a3.29,3.29,0,0,1,.91.32ZM143.67,233.41a2.71,2.71,0,0,1-.85-1.37l-3.07-10.23a3.07,3.07,0,0,0-3.77-2.15,3.16,3.16,0,0,0-.54.2,42.54,42.54,0,0,1-5.59,1.85,7.59,7.59,0,0,0-1.77.73l.42,1.32a2.46,2.46,0,0,0,1.17,1.58h0ZM126.25,83.79a2.36,2.36,0,0,0-1-.26,2.51,2.51,0,0,0-1.67.64L109.93,94.89a3.64,3.64,0,0,0-.53.51,2.86,2.86,0,0,0-.36.41,9.08,9.08,0,0,0-1.19,2.13,2.49,2.49,0,0,1-.16.53h0a6.62,6.62,0,0,0-.37,2.29l.82,13A10.33,10.33,0,0,1,106,120a100.8,100.8,0,0,0-6.32,8.37,6.91,6.91,0,0,1-3,2.29,4.56,4.56,0,0,1-1.19.37,2.81,2.81,0,0,1-.58,0,3.48,3.48,0,0,1-.79,0l-8.75-.43h-.21a2.24,2.24,0,0,0-.73,0l-.65.13h0a4.71,4.71,0,0,0-.71.27,5.92,5.92,0,0,0-1.26.79,5.63,5.63,0,0,0-1.42,1.79L72.18,152a3.51,3.51,0,0,0,1.4,4.45L83.29,162a4.33,4.33,0,0,1,.23,2.54,82.18,82.18,0,0,0-1.53,8.8,11,11,0,0,1-2.94,6h-.13l-12,11a4.35,4.35,0,0,0-.57.64h0a4,4,0,0,0-.48.79,6.83,6.83,0,0,0-.9,4.4l2.29,13.17a2.64,2.64,0,0,0,1.06,1.79l14.28,8.23a2.61,2.61,0,0,1-1-1.74L79.28,205a6,6,0,0,1,.16-2.52,6.84,6.84,0,0,1,1.88-3.44l11.92-11h.14a11.17,11.17,0,0,0,3-6,74.9,74.9,0,0,1,1.51-8.8,4.4,4.4,0,0,0-2.55-5.11l-7.07-3a3.51,3.51,0,0,1-1.85-4.59l8.23-18.33a4.9,4.9,0,0,1,1.4-1.79,5.39,5.39,0,0,1,3.62-1.32l8.78.42a5.74,5.74,0,0,0,2.55-.51,6.66,6.66,0,0,0,3-2.29c2-2.87,4.1-5.68,6.32-8.37a10.1,10.1,0,0,0,2.11-6.28l-.79-13a6.17,6.17,0,0,1,.32-2.29,7.75,7.75,0,0,1,2.29-3.55L138,92.64a2.32,2.32,0,0,1,2.69-.38ZM105.8,221.43a6,6,0,0,0-1.44-5.73,26.41,26.41,0,0,1-2.29-2.89,3.5,3.5,0,0,0-4.84-1.08l-6.88,4.58-5,13.55a3,3,0,0,0,1.21,3.69h0l14.28,8.18A3,3,0,0,1,99.63,238Z"/><path id="Path_532" data-name="Path 532" class="cls-6" d="M187.63,97.51h0a2.3,2.3,0,0,0-2.52.21l-5.18,3.42-1.15,3.07a6,6,0,0,0,1.36,5.8,27.67,27.67,0,0,1,2.29,2.89,3.47,3.47,0,0,0,4.8,1.1l0,0,12.08-8a2.29,2.29,0,0,1,2.46-.26ZM169,141.82c-1.69-9.77-7.93-14.67-16-14a23.37,23.37,0,0,1,1.67,5.71c2.68,15.52-7.15,37.5-21.91,49.12a29.87,29.87,0,0,1-15.5,6.88c4.86,10.4,17.13,11.46,29.8,1.35C161.92,179.34,171.7,157.32,169,141.82Zm.27-66.27h0a3,3,0,0,0-1-.36l-9.17-2.07A4.94,4.94,0,0,0,154,75.41l-8.55,16.34A7.55,7.55,0,0,1,143.55,94h0a7,7,0,0,1-1.45,1l2.66,8.92a3.11,3.11,0,0,0,3.87,2.11,3.29,3.29,0,0,0,.44-.16,44.08,44.08,0,0,1,5.59-1.85,9.93,9.93,0,0,0,3.26-1.69,7.5,7.5,0,0,0,1.93-2.3l8.59-16.23a5,5,0,0,1,5.16-2.29l9.17,2.07a3.29,3.29,0,0,1,.91.32ZM143.67,233.41a2.71,2.71,0,0,1-.85-1.37l-3.07-10.23a3.07,3.07,0,0,0-3.77-2.15,3.16,3.16,0,0,0-.54.2,42.54,42.54,0,0,1-5.59,1.85,7.59,7.59,0,0,0-1.77.73l.42,1.32a2.46,2.46,0,0,0,1.17,1.58h0ZM126.25,83.79a2.36,2.36,0,0,0-1-.26,2.51,2.51,0,0,0-1.67.64L109.93,94.89a3.64,3.64,0,0,0-.53.51,2.86,2.86,0,0,0-.36.41,9.08,9.08,0,0,0-1.19,2.13,2.49,2.49,0,0,1-.16.53h0a6.62,6.62,0,0,0-.37,2.29l.82,13A10.33,10.33,0,0,1,106,120a100.8,100.8,0,0,0-6.32,8.37,6.91,6.91,0,0,1-3,2.29,4.56,4.56,0,0,1-1.19.37,2.81,2.81,0,0,1-.58,0,3.48,3.48,0,0,1-.79,0l-8.75-.43h-.21a2.24,2.24,0,0,0-.73,0l-.65.13h0a4.71,4.71,0,0,0-.71.27,5.92,5.92,0,0,0-1.26.79,5.63,5.63,0,0,0-1.42,1.79L72.18,152a3.51,3.51,0,0,0,1.4,4.45L83.29,162a4.33,4.33,0,0,1,.23,2.54,82.18,82.18,0,0,0-1.53,8.8,11,11,0,0,1-2.94,6h-.13l-12,11a4.35,4.35,0,0,0-.57.64h0a4,4,0,0,0-.48.79,6.83,6.83,0,0,0-.9,4.4l2.29,13.17a2.64,2.64,0,0,0,1.06,1.79l14.28,8.23a2.61,2.61,0,0,1-1-1.74L79.28,205a6,6,0,0,1,.16-2.52,6.84,6.84,0,0,1,1.88-3.44l11.92-11h.14a11.17,11.17,0,0,0,3-6,74.9,74.9,0,0,1,1.51-8.8,4.4,4.4,0,0,0-2.55-5.11l-7.07-3a3.51,3.51,0,0,1-1.85-4.59l8.23-18.33a4.9,4.9,0,0,1,1.4-1.79,5.39,5.39,0,0,1,3.62-1.32l8.78.42a5.74,5.74,0,0,0,2.55-.51,6.66,6.66,0,0,0,3-2.29c2-2.87,4.1-5.68,6.32-8.37a10.1,10.1,0,0,0,2.11-6.28l-.79-13a6.17,6.17,0,0,1,.32-2.29,7.75,7.75,0,0,1,2.29-3.55L138,92.64a2.32,2.32,0,0,1,2.69-.38ZM105.8,221.43a6,6,0,0,0-1.44-5.73,26.41,26.41,0,0,1-2.29-2.89,3.5,3.5,0,0,0-4.84-1.08l-6.88,4.58-5,13.55a3,3,0,0,0,1.21,3.69h0l14.28,8.18A3,3,0,0,1,99.63,238Z"/><path id="Path_533" data-name="Path 533" class="cls-3" d="M93.2,188,81.28,199a6.84,6.84,0,0,0-1.88,3.44l-14.33-8.26a9.07,9.07,0,0,1,.72-1.9,4,4,0,0,1,.48-.79h0a4.35,4.35,0,0,1,.57-.64l12-11Z"/><path id="Path_534" data-name="Path 534" class="cls-3" d="M111.05,138.88a5.6,5.6,0,0,1-2.55.51L99.72,139a5.33,5.33,0,0,0-3.62,1.31L81.78,132a5.92,5.92,0,0,1,1.26-.79,3.64,3.64,0,0,1,.72-.26h0l.64-.14a3,3,0,0,1,.73,0h.21l8.75.43a2.62,2.62,0,0,0,.79,0h.58a11.79,11.79,0,0,0,1.14-.39h0Z"/><path id="Path_535" data-name="Path 535" class="cls-3" d="M201.94,105.74a2.3,2.3,0,0,0-2.46.3L187.4,114a3.5,3.5,0,0,1-4.83-1.1h0a26.77,26.77,0,0,0-2.29-2.9,5.92,5.92,0,0,1-1.42-5.73l1.14-3.09,5.18-3.4a2.3,2.3,0,0,1,2.52-.26h0Z"/><path id="Path_536" data-name="Path 536" class="cls-3" d="M183.62,83.8a4.18,4.18,0,0,0-.92-.32l-9.17-2.06a5,5,0,0,0-5.15,2.29L159.83,100a7.37,7.37,0,0,1-1.93,2.3L143.55,94a7.58,7.58,0,0,0,1.93-2.29L154,75.41a4.94,4.94,0,0,1,5.16-2.29l9.17,2.07a3.16,3.16,0,0,1,.94.36h0Z"/><path id="Path_537" data-name="Path 537" class="cls-3" d="M140.6,92.08a2.29,2.29,0,0,0-2.68.39l-13.75,10.7a7.67,7.67,0,0,0-2.3,3.56l-14.32-8.26a.69.69,0,0,1,.16-.52,9.08,9.08,0,0,1,1.19-2.13,3.62,3.62,0,0,1,.36-.42,4.18,4.18,0,0,1,.53-.5l13.64-10.71a2.54,2.54,0,0,1,1.69-.64,2.4,2.4,0,0,1,1,.26Z"/><path id="Path_538" data-name="Path 538" class="cls-7" d="M93.2,188,81.28,199a6.84,6.84,0,0,0-1.88,3.44l-14.33-8.26a9.07,9.07,0,0,1,.72-1.9,4,4,0,0,1,.48-.79h0a4.35,4.35,0,0,1,.57-.64l12-11Z"/><path id="Path_539" data-name="Path 539" class="cls-7" d="M111.05,138.88a5.6,5.6,0,0,1-2.55.51L99.72,139a5.33,5.33,0,0,0-3.62,1.31L81.78,132a5.92,5.92,0,0,1,1.26-.79,3.64,3.64,0,0,1,.72-.26h0l.64-.14a3,3,0,0,1,.73,0h.21l8.75.43a2.62,2.62,0,0,0,.79,0h.58a11.79,11.79,0,0,0,1.14-.39h0Z"/><path id="Path_540" data-name="Path 540" class="cls-7" d="M201.94,105.74a2.3,2.3,0,0,0-2.46.3L187.4,114a3.5,3.5,0,0,1-4.83-1.1h0a26.77,26.77,0,0,0-2.29-2.9,5.92,5.92,0,0,1-1.42-5.73l1.14-3.09,5.18-3.4a2.3,2.3,0,0,1,2.52-.26h0Z"/><path id="Path_541" data-name="Path 541" class="cls-7" d="M183.62,83.8a4.18,4.18,0,0,0-.92-.32l-9.17-2.06a5,5,0,0,0-5.15,2.29L159.83,100a7.37,7.37,0,0,1-1.93,2.3L143.55,94a7.58,7.58,0,0,0,1.93-2.29L154,75.41a4.94,4.94,0,0,1,5.16-2.29l9.17,2.07a3.16,3.16,0,0,1,.94.36h0Z"/><path id="Path_542" data-name="Path 542" class="cls-7" d="M140.6,92.08a2.29,2.29,0,0,0-2.68.39l-13.75,10.7a7.67,7.67,0,0,0-2.3,3.56l-14.32-8.26a.69.69,0,0,1,.16-.52,9.08,9.08,0,0,1,1.19-2.13,3.62,3.62,0,0,1,.36-.42,4.18,4.18,0,0,1,.53-.5l13.64-10.71a2.54,2.54,0,0,1,1.69-.64,2.4,2.4,0,0,1,1,.26Z"/><path id="Path_543" data-name="Path 543" class="cls-3" d="M205.35,120.75l-2.29-13.15a2.29,2.29,0,0,0-2.58-2,2.23,2.23,0,0,0-1,.41L187.38,114a3.48,3.48,0,0,1-4.81-1.06l0,0a24.3,24.3,0,0,0-2.3-2.87,6,6,0,0,1-1.44-5.79L185,87.57a3,3,0,0,0-1.67-4,3.38,3.38,0,0,0-.62-.18l-9.17-2a4.9,4.9,0,0,0-5.15,2.29L159.78,100a8.93,8.93,0,0,1-5.15,3.88A49.7,49.7,0,0,0,149,105.7a3.1,3.1,0,0,1-4.12-1.5,3.26,3.26,0,0,1-.17-.47l-3.09-10.2a2.31,2.31,0,0,0-2.7-1.8,2.33,2.33,0,0,0-1.13.59l-13.76,10.74a7.61,7.61,0,0,0-2.59,5.78l.82,13a10.29,10.29,0,0,1-2.13,6.26,93.89,93.89,0,0,0-6.32,8.39,7,7,0,0,1-5.56,2.79l-8.75-.41a5.61,5.61,0,0,0-5,3.07l-8.22,18.47A3.54,3.54,0,0,0,88.1,165l7.24,3.25a4.4,4.4,0,0,1,2.43,4.88,82.4,82.4,0,0,0-1.54,8.81,10.89,10.89,0,0,1-2.93,6L81.22,199a7.35,7.35,0,0,0-1.92,6.08l2.29,13.17a2.29,2.29,0,0,0,2.58,2,2.42,2.42,0,0,0,1-.4l12.08-7.95a3.48,3.48,0,0,1,4.81,1.06l0,0a27.78,27.78,0,0,0,2.29,2.9,5.93,5.93,0,0,1,1.4,5.73L99.65,238.2a3.06,3.06,0,0,0,1.68,4,2.51,2.51,0,0,0,.61.17l9.17,2a4.94,4.94,0,0,0,5.16-2.41l8.55-16.27a8.86,8.86,0,0,1,5.16-3.89,40.92,40.92,0,0,0,5.61-1.85,3.09,3.09,0,0,1,4.11,1.5,2.68,2.68,0,0,1,.18.47l3.07,10.2a2.3,2.3,0,0,0,2.68,1.83,2.36,2.36,0,0,0,1.17-.61l13.64-10.71a7.65,7.65,0,0,0,2.59-5.78l-.83-13a10.33,10.33,0,0,1,2.13-6.28q3.33-4,6.33-8.37a7,7,0,0,1,5.54-2.81l8.76.43a5.64,5.64,0,0,0,5-3.09l8.23-18.48a3.52,3.52,0,0,0-1.84-4.58l-7.09-3.21a4.41,4.41,0,0,1-2.43-4.88,75.62,75.62,0,0,0,1.52-8.82,11.26,11.26,0,0,1,3-6l12.08-11.09a7.35,7.35,0,0,0,1.93-6Zm-58.21,70.19c-14.75,11.62-28.91,8.46-31.59-7.06s7.12-37.5,21.91-49.13,28.93-8.45,31.59,7.06-7.13,37.53-21.92,49.13Z"/><path id="Path_544" data-name="Path 544" class="cls-8" d="M205.35,120.75l-2.29-13.15a2.29,2.29,0,0,0-2.58-2,2.23,2.23,0,0,0-1,.41L187.38,114a3.48,3.48,0,0,1-4.81-1.06l0,0a24.3,24.3,0,0,0-2.3-2.87,6,6,0,0,1-1.44-5.79L185,87.57a3,3,0,0,0-1.67-4,3.38,3.38,0,0,0-.62-.18l-9.17-2a4.9,4.9,0,0,0-5.15,2.29L159.78,100a8.93,8.93,0,0,1-5.15,3.88A49.7,49.7,0,0,0,149,105.7a3.1,3.1,0,0,1-4.12-1.5,3.26,3.26,0,0,1-.17-.47l-3.09-10.2a2.31,2.31,0,0,0-2.7-1.8,2.33,2.33,0,0,0-1.13.59l-13.76,10.74a7.61,7.61,0,0,0-2.59,5.78l.82,13a10.29,10.29,0,0,1-2.13,6.26,93.89,93.89,0,0,0-6.32,8.39,7,7,0,0,1-5.56,2.79l-8.75-.41a5.61,5.61,0,0,0-5,3.07l-8.22,18.47A3.54,3.54,0,0,0,88.1,165l7.24,3.25a4.4,4.4,0,0,1,2.43,4.88,82.4,82.4,0,0,0-1.54,8.81,10.89,10.89,0,0,1-2.93,6L81.22,199a7.35,7.35,0,0,0-1.92,6.08l2.29,13.17a2.29,2.29,0,0,0,2.58,2,2.42,2.42,0,0,0,1-.4l12.08-7.95a3.48,3.48,0,0,1,4.81,1.06l0,0a27.78,27.78,0,0,0,2.29,2.9,5.93,5.93,0,0,1,1.4,5.73L99.65,238.2a3.06,3.06,0,0,0,1.68,4,2.51,2.51,0,0,0,.61.17l9.17,2a4.94,4.94,0,0,0,5.16-2.41l8.55-16.27a8.86,8.86,0,0,1,5.16-3.89,40.92,40.92,0,0,0,5.61-1.85,3.09,3.09,0,0,1,4.11,1.5,2.68,2.68,0,0,1,.18.47l3.07,10.2a2.3,2.3,0,0,0,2.68,1.83,2.36,2.36,0,0,0,1.17-.61l13.64-10.71a7.65,7.65,0,0,0,2.59-5.78l-.83-13a10.33,10.33,0,0,1,2.13-6.28q3.33-4,6.33-8.37a7,7,0,0,1,5.54-2.81l8.76.43a5.64,5.64,0,0,0,5-3.09l8.23-18.48a3.52,3.52,0,0,0-1.84-4.58l-7.09-3.21a4.41,4.41,0,0,1-2.43-4.88,75.62,75.62,0,0,0,1.52-8.82,11.26,11.26,0,0,1,3-6l12.08-11.09a7.35,7.35,0,0,0,1.93-6Zm-58.21,70.19c-14.75,11.62-28.91,8.46-31.59-7.06s7.12-37.5,21.91-49.13,28.93-8.45,31.59,7.06-7.13,37.53-21.92,49.13Z"/></g></g><g id="freepik--Device--inject-75"><g id="freepik--Laptop--inject-75"><path id="Path_545" data-name="Path 545" class="cls-3" d="M84.88,767a27.66,27.66,0,0,0,12.93,21.46L379.13,950.92a28.6,28.6,0,0,0,25.86,0l495.42-286a24.27,24.27,0,0,0,0-42.91L619.09,459.49a28.54,28.54,0,0,0-25.86,0l-495.42,286A27.84,27.84,0,0,0,84.88,767Z"/><path id="Path_546" data-name="Path 546" class="cls-9" d="M913.34,643.43a27.68,27.68,0,0,1-12.91,21.45L405,951A26.7,26.7,0,0,1,392.08,954V926A26.38,26.38,0,0,0,405,922.93l495.45-286c6.23-3.59,7-9.17,2.29-13.27A27.6,27.6,0,0,1,913.34,643.43Z"/><path id="Path_547" data-name="Path 547" class="cls-10" d="M97.81,760.46,379.13,922.93a28.6,28.6,0,0,0,25.86,0l495.42-286c7.16-4.12,7.16-10.81,0-14.92L619.09,459.48a28.6,28.6,0,0,0-25.86,0L97.81,745.54C90.75,749.64,90.75,756.34,97.81,760.46Z"/><path id="Path_548" data-name="Path 548" class="cls-11" d="M392.07,926.05v28a26.47,26.47,0,0,1-12.91-3.07L97.78,788.45a24.2,24.2,0,0,1-1.31-42.08c-5.78,4.14-5.34,10.24,1.31,14.09L379.16,922.93a26.3,26.3,0,0,0,12.91,3.12Z"/><path id="Path_549" data-name="Path 549" class="cls-3" d="M72.75,746c-6.69-3.88-6.32-10.41-6.32-18.64V338.73a28.61,28.61,0,0,1,12.86-22.37l495.48-286c7.13-4.13,13.76-1.15,20.4,2.72s11,7.2,11,15.45V437.11a28.6,28.6,0,0,1-12.93,22.39L97.8,745.54A27.87,27.87,0,0,1,72.75,746Z"/><path id="Path_550" data-name="Path 550" class="cls-10" d="M606.15,48.48c0-8.23-5.79-11.46-12.93-7.45l-495.45,286a26.34,26.34,0,0,0-9.17,9.67L70.12,326h0a26.65,26.65,0,0,1,9.17-9.67l495.46-286c7.15-4.13,13.75-1.15,20.42,2.72S606.15,40.25,606.15,48.48Z"/><path id="Path_551" data-name="Path 551" class="cls-9" d="M84.88,349.46V738.07c0,8.25,5.77,11.46,12.93,7.47l495.41-286a28.62,28.62,0,0,0,12.93-22.39V48.51c0-8.25-5.79-11.59-12.93-7.47l-495.41,286a28.51,28.51,0,0,0-12.93,22.39Z"/><path id="Path_552" data-name="Path 552" class="cls-11" d="M96.27,746.32A27.8,27.8,0,0,1,72.75,746c-6.69-3.86-6.32-10.39-6.32-18.62V338.74A26.16,26.16,0,0,1,70.12,326L88.56,336.7h0a26.35,26.35,0,0,0-3.69,12.77v388.6C84.88,745.71,89.85,749.14,96.27,746.32Z"/><path id="Path_553" data-name="Path 553" class="cls-12" d="M104.75,342,582.4,66.27c4.28-2.47,7.74-.46,7.74,4.48V410a17.15,17.15,0,0,1-7.74,13.44L104.75,699.13c-4.29,2.47-7.75.45-7.75-4.59V355.31A17.17,17.17,0,0,1,104.75,342Z"/><path id="Path_554" data-name="Path 554" class="cls-3" d="M133.56,746.29l459.87-265.5a14.26,14.26,0,0,1,12.91,0l13.38,7c3.58,2.06,3.58,5.41,0,7.47L159.78,760.74a14.28,14.28,0,0,1-12.92,0l-13.3-7C130,751.68,130,748.29,133.56,746.29Z"/><path id="Path_555" data-name="Path 555" class="cls-13" d="M133.56,746.29l459.87-265.5a14.26,14.26,0,0,1,12.91,0l13.38,7c3.58,2.06,3.58,5.41,0,7.47L159.78,760.74a14.28,14.28,0,0,1-12.92,0l-13.3-7C130,751.68,130,748.29,133.56,746.29Z"/><path id="Path_556" data-name="Path 556" class="cls-14" d="M169.62,767.75,629.39,502.23a13.15,13.15,0,0,1,11.81-.64l119.69,69.1c3,1.72,2.45,4.77-1.12,6.88L300.54,842.66a13.24,13.24,0,0,1-11.82.66l-120.2-68.75C165.56,772.84,166.06,769.79,169.62,767.75Z"/><path id="Path_557" data-name="Path 557" class="cls-3" d="M564.3,612.67l14.39-8.32c.62-.35.71-.88.21-1.15l-12.7-7.34a2.31,2.31,0,0,0-2,.12l-14.39,8.3c-.62.36-.72.87-.21,1.17l12.7,7.33A2.28,2.28,0,0,0,564.3,612.67Zm-20.08-28.22-14.4,8.3c-.62.36-.71.87-.2,1.17l12.7,7.33a2.26,2.26,0,0,0,2-.11l14.4-8.32c.62-.35.71-.88.2-1.17l-12.69-7.32A2.31,2.31,0,0,0,544.22,584.45Zm-46.53,26.84-24.37,14.07c-.59.35-.69.88-.2,1.17l12.72,7.34a2.26,2.26,0,0,0,2-.12l24.37-14.07c.6-.35.69-.87.18-1.17l-12.69-7.33A2.28,2.28,0,0,0,497.69,611.29Zm25.49-14.69-14.42,8.29c-.6.37-.69.88-.19,1.17l12.7,7.34a2.31,2.31,0,0,0,2,0l14.4-8.32c.62-.35.71-.88.2-1.15l-12.7-7.33a2.22,2.22,0,0,0-2,0Zm-56.53,32.51-14.39,8.33c-.62.34-.69.87-.21,1.17l12.72,7.33a2.3,2.3,0,0,0,2-.11l14.41-8.32c.6-.35.69-.87.19-1.17L468.67,629A2.35,2.35,0,0,0,466.65,629.11Zm-21,12.15-14.37,8.49c-.62.36-.71.87-.2,1.17l12.7,7.33a2.29,2.29,0,0,0,2-.11l14.42-8.33c.59-.34.69-.87.18-1.17l-12.7-7.33a2.26,2.26,0,0,0-2,.05ZM499,673.35l14.4-8.29c.62-.37.71-.9.2-1.17l-12.7-7.34a2.29,2.29,0,0,0-2,.12L484.46,665c-.62.34-.71.87-.2,1.14l12.7,7.34a2.27,2.27,0,0,0,2,0Zm-21,12.15,14.4-8.3c.62-.36.71-.87.2-1.17l-12.7-7.33a2.26,2.26,0,0,0-2,.11l-14.38,8.43c-.62.35-.71.87-.2,1.15l12.7,7.33a2.32,2.32,0,0,0,2-.13Zm-21,12.15,14.4-8.3c.61-.36.71-.87.2-1.17l-12.7-7.33a2.28,2.28,0,0,0-2,.11l-14.39,8.32c-.62.35-.71.88-.21,1.15l12.7,7.33a2.29,2.29,0,0,0,2,0Zm-21,12.15,14.39-8.3c.62-.36.72-.87.21-1.17L437.75,693a2.25,2.25,0,0,0-2,0l-14.39,8.32c-.62.34-.71.87-.21,1.17l12.7,7.31a2.29,2.29,0,0,0,2,.09Zm107.38-85.06,14.4-8.32c.62-.35.71-.88.21-1.15l-12.7-7.34a2.31,2.31,0,0,0-2,.12l-14.4,8.29c-.62.37-.71.9-.2,1.17l12.7,7.34a2.32,2.32,0,0,0,2,0ZM520,661.2l32.09-18.54c.62-.34.71-.87.2-1.17l-32.66-18.86a2.28,2.28,0,0,0-2,.11L501,632.44c-.62.34-.71.87-.2,1.17L519,644.08c.51.3.42.79-.18,1.17l-13.3,7.68c-.62.34-.71.87-.2,1.15l12.7,7.33a2.3,2.3,0,0,0,2-.22Zm-95.44-7.77-14.4,8.3c-.62.37-.71.87-.21,1.17l12.7,7.34a2.31,2.31,0,0,0,2-.12l14.44-8.23c.62-.34.71-.87.21-1.17l-12.7-7.33a2.24,2.24,0,0,0-2.06.14Zm-21.05,12.15-14.39,8.3c-.62.37-.71.87-.21,1.17l12.7,7.33a2.31,2.31,0,0,0,2,0l14.4-8.32c.61-.34.71-.87.2-1.17l-12.7-7.31a2.32,2.32,0,0,0-2,.2Zm-117,129.48a2.25,2.25,0,0,0,2,0l14.4-8.32c.61-.34.71-.87.2-1.17l-12.7-7.33a2.31,2.31,0,0,0-2,.13l-14.32,8.19c-.62.36-.71.87-.21,1.17ZM235.2,763l-14.4,8.26c-.59.34-.69.87-.2,1.14l12.72,7.34a2.13,2.13,0,0,0,2-.12l14.42-8.29c.59-.37.69-.88.18-1.17l-12.7-7.34a2.27,2.27,0,0,0-2.06.07ZM261,786.83a2.28,2.28,0,0,0,2-.11l14.39-8.3c.62-.36.72-.89.21-1.17L265,769.92a2.28,2.28,0,0,0-2,.11l-14.39,8.33c-.62.34-.71.87-.21,1.14Zm58.59,13.37L334,791.88c.62-.35.71-.88.21-1.15l-12.7-7.34a2.31,2.31,0,0,0-2,.12l-14.39,8.29c-.62.37-.72.88-.21,1.17l12.7,7.34a2.29,2.29,0,0,0,2-.23Zm-23.06,12.26a2.31,2.31,0,0,0,2-.11L313,804c.62-.34.69-.87.21-1.14l-12.72-7.34a2.15,2.15,0,0,0-2,.12L284.05,804c-.6.36-.69.89-.19,1.17ZM256.24,750.7,241.84,759c-.59.35-.69.87-.18,1.15l12.7,7.33a2.29,2.29,0,0,0,2-.11l14.4-8.3c.59-.37.69-.87.18-1.17l-12.7-7.34A2.29,2.29,0,0,0,256.24,750.7ZM361.47,690l-14.4,8.3c-.62.37-.71.89-.2,1.17l12.7,7.34a2.29,2.29,0,0,0,2-.12l14.4-8.32c.62-.34.71-.87.21-1.14l-12.68-7.34A2.32,2.32,0,0,0,361.47,690Zm-84.17,48.6-14.41,8.3c-.6.34-.69.87-.19,1.15l12.69,7.34a2.26,2.26,0,0,0,2-.11l14.4-8.3c.62-.37.69-.89.21-1.17l-12.72-7.34a2.32,2.32,0,0,0-2,.12Zm105.21-60.75-14.42,8.3c-.62.37-.71.87-.2,1.17l12.7,7.34a2.29,2.29,0,0,0,2-.12l14.4-8.32c.62-.34.71-.87.21-1.14l-12.7-7.34a2.3,2.3,0,0,0-2,.11Zm-42.08,24.3-14.4,8.3c-.62.37-.71.89-.2,1.17l12.69,7.33a2.28,2.28,0,0,0,2-.11l14.4-8.32c.62-.35.71-.87.2-1.15L342.44,702a2.26,2.26,0,0,0-2,.11Zm-21.05,12.15L305,722.58c-.62.35-.71.87-.21,1.15l12.7,7.33a2.31,2.31,0,0,0,2-.12l14.4-8.32c.62-.34.71-.87.2-1.15l-12.7-7.33a2.28,2.28,0,0,0-2,.11Zm-21,12.15-14.41,8.32c-.6.35-.69.87-.19,1.15l12.7,7.33a2.31,2.31,0,0,0,2,0l14.39-8.32c.62-.34.69-.87.21-1.14l-12.7-7.34a2.31,2.31,0,0,0-2,0Zm95.45,7.79,14.39-8.32c.6-.36.69-.87.21-1.17l-12.72-7.33a2.28,2.28,0,0,0-2,.11l-14.4,8.32c-.59.35-.68.88-.18,1.17l12.7,7.34a2.32,2.32,0,0,0,2-.12ZM590.73,557.6l-14.4,8.32c-.62.34-.71.87-.21,1.14l12.7,7.34a2.31,2.31,0,0,0,2-.12l14.4-8.32c.62-.34.71-.87.2-1.14l-12.7-7.34a2.26,2.26,0,0,0-2,.11Zm-25.52,14.71-14.39,8.3c-.62.36-.71.87-.21,1.17l12.7,7.33a2.28,2.28,0,0,0,2-.11l14.4-8.32c.61-.35.71-.88.2-1.17l-12.7-7.34a2.31,2.31,0,0,0-2,.13Zm46.51-26.87-14.42,8.3c-.62.36-.68.89-.2,1.17l12.72,7.33a2.13,2.13,0,0,0,2-.11l14.42-8.32c.59-.35.69-.87.18-1.15l-12.7-7.33a2.26,2.26,0,0,0-2,.11ZM494.48,653l14.39-8.32c.62-.36.72-.87.21-1.17l-12.7-7.33a2.28,2.28,0,0,0-2,.11L480,644.57c-.62.34-.71.87-.21,1.17l12.7,7.34a2.27,2.27,0,0,0,2.06-.12Zm140.3-119.78a2.28,2.28,0,0,0-2,.12l-14.39,8.29c-.6.37-.69.9-.19,1.17l12.7,7.34a2.31,2.31,0,0,0,2,0l14.42-8.33c.6-.34.69-.87.19-1.14ZM414.73,722l14.4-8.29c.62-.37.69-.88.2-1.17l-12.72-7.34a2.28,2.28,0,0,0-2,.12l-14.42,8.32c-.59.34-.68.87-.18,1.17l12.7,7.33a2.31,2.31,0,0,0,2.11-.13Zm258-149,14.42-8.3c.59-.37.68-.89.18-1.17l-12.7-7.34a2.32,2.32,0,0,0-2,.12l-14.39,8.32c-.62.35-.71.87-.21,1.15l12.7,7.33a2.31,2.31,0,0,0,2.18-.11Zm-41,.62,14.4-8.3c.62-.37.71-.89.2-1.17l-12.69-7.33a2.25,2.25,0,0,0-2,0l-14.4,8.32c-.62.34-.71.87-.2,1.14l12.7,7.34a2.29,2.29,0,0,0,2.1,0Zm22.92-28.95a2.28,2.28,0,0,0-2,.11l-14.39,8.32c-.62.35-.71.88-.21,1.15l12.7,7.34a2.31,2.31,0,0,0,2-.12l14.39-8.3c.62-.36.72-.89.21-1.17Zm4.42-2.57L691.8,561a2.13,2.13,0,0,0,2-.11l14.42-8.3c.59-.37.69-.9.18-1.17l-32.66-18.87a2.32,2.32,0,0,0-2,.12L659.32,541c-.51.36-.6.89-.14,1.17Zm-48.52,27-14.42,8.32c-.59.34-.68.87-.18,1.14l12.7,7.34a2.28,2.28,0,0,0,2-.12l14.39-8.29c.62-.37.71-.9.21-1.17L612.61,569a2.29,2.29,0,0,0-1.9.12ZM452.2,660.55l-14.39,8.32c-.62.35-.71.87-.21,1.17l12.7,7.34a2.31,2.31,0,0,0,2-.12l14.4-8.32c.61-.34.71-.87.2-1.17l-12.7-7.33a2.3,2.3,0,0,0-1.9.11ZM649.7,585.3a2.32,2.32,0,0,0,2-.12l14.39-8.3c.62-.36.71-.87.21-1.16l-12.7-7.34a2.31,2.31,0,0,0-2,.12l-14.39,8.32c-.62.34-.72.87-.21,1.14ZM473.21,648.4l-14.39,8.32c-.62.35-.72.87-.21,1.17l12.7,7.34a2.32,2.32,0,0,0,2-.12l14.39-8.32c.62-.35.71-.87.21-1.17l-12.7-7.34a2.27,2.27,0,0,0-1.84.12ZM307.58,782.9a2.28,2.28,0,0,0,2-.11l14.4-8.32c.62-.35.71-.87.2-1.17L311.5,766a2.29,2.29,0,0,0-2,.12l-14.4,8.32c-.62.36-.71.87-.21,1.17ZM284,757.69l-14.44,8.39c-.62.34-.71.87-.2,1.14l12.7,7.34a2.31,2.31,0,0,0,2,0l14.39-8.32c.62-.35.71-.87.21-1.15L286,757.76a2.27,2.27,0,0,0-2,0Zm46.67,12.88,14.4-8.32c.62-.35.71-.87.2-1.17l-12.7-7.34a2.31,2.31,0,0,0-2,0l-14.39,8.32c-.62.35-.71.87-.21,1.17l12.7,7.34a2.31,2.31,0,0,0,2,.07Zm21-12.15,14.42-8.32c.59-.35.69-.87.18-1.17l-12.7-7.34a2.29,2.29,0,0,0-2,.12L337.17,750c-.62.35-.69.87-.2,1.17l12.72,7.34a2.28,2.28,0,0,0,2,0Zm21.08-12.15L387.15,738c.6-.37.69-.87.19-1.17l-12.7-7.33a2.28,2.28,0,0,0-2,.11l-14.4,8.32c-.59.35-.68.88-.18,1.17l12.7,7.34a2.26,2.26,0,0,0,1.95,0ZM305,745.54l-14.39,8.3c-.62.36-.71.89-.21,1.17l12.7,7.33a2.28,2.28,0,0,0,2-.11l14.4-8.33c.61-.34.71-.87.2-1.14L307,745.43a2.29,2.29,0,0,0-2,.18Zm21.05-12.15-14.4,8.3c-.62.36-.69.87-.21,1.17l12.72,7.33a2.3,2.3,0,0,0,2-.11l14.42-8.32c.59-.35.68-.88.18-1.15l-12.71-7.33a2.29,2.29,0,0,0-2,.18Zm84.19-48.59-14.42,8.48c-.6.37-.69.87-.19,1.17l12.7,7.34a2.31,2.31,0,0,0,2-.12l14.4-8.32c.62-.34.68-.87.2-1.17l-12.7-7.33a2.26,2.26,0,0,0-2,0ZM389.21,697l-14.41,8.3c-.6.36-.69.87-.19,1.17l12.7,7.33a2.31,2.31,0,0,0,2,0l14.4-8.32c.61-.34.68-.87.2-1.17l-12.72-7.33a2.25,2.25,0,0,0-2,.09Zm42.09-24.3L416.9,681c-.62.37-.71.88-.2,1.17l12.69,7.34a2.31,2.31,0,0,0,2-.11l14.4-8.33c.62-.34.71-.87.2-1.17l-12.7-7.33a2.28,2.28,0,0,0-2,.11Zm-84.19,48.62-14.4,8.3c-.59.36-.69.87-.2,1.16l12.72,7.34a2.29,2.29,0,0,0,2-.11l14.4-8.33c.59-.34.69-.87.18-1.14l-12.7-7.34a2.3,2.3,0,0,0-2,.16Zm21-12.15-14.4,8.3c-.59.36-.68.87-.18,1.17l12.7,7.33a2.28,2.28,0,0,0,2-.11l14.39-8.32c.6-.35.69-.88.19-1.17L370.17,709a2.36,2.36,0,0,0-2.07.16Zm-27.51,78.76,14.4-8.32c.62-.35.71-.87.2-1.17l-12.67-7.18a2.31,2.31,0,0,0-2,.12l-14.4,8.29c-.61.37-.71.88-.2,1.17l12.7,7.34a2.31,2.31,0,0,0,2-.21Zm-111.79-5.72-12.7-7.33a2.25,2.25,0,0,0-2,0l-14.4,8.32c-.61.34-.68.87-.2,1.17l12.7,7.51a2.28,2.28,0,0,0,2-.11l14.41-8.3c.62-.41.71-.91.21-1.21Zm27.73,7.06-12.7-7.32a2.28,2.28,0,0,0-2,.11L219.72,794.8c-.62.35-.71.87-.2,1.17l12.7,7.33a2.22,2.22,0,0,0,2,0l22.15-12.79c.64-.43.73-1,.23-1.23Zm-46.44-21.69-12.69-7.33a2.14,2.14,0,0,0-2,0l-17.6,10.38c-.6.37-.69.87-.19,1.17l12.7,7.33a2.28,2.28,0,0,0,2-.11l17.72-10.25c.48-.34.57-.87.07-1.14Zm13.55-7.79a2.31,2.31,0,0,0,2-.11l14.4-8.3c.61-.37.71-.87.2-1.17l-12.7-7.34a2.32,2.32,0,0,0-2,.12l-14.39,8.32c-.62.35-.71.87-.21,1.15Zm58.36,37.87-12.52-7.34a2.29,2.29,0,0,0-2,.12l-27.69,16.05c-.62.35-.72.87-.21,1.17l12.7,7.34a2.32,2.32,0,0,0,2-.12l27.68-16c.51-.37.6-.89.1-1.2Zm10,17.3-12.72-7.33a2.12,2.12,0,0,0-2,.11L259.6,817.91c-.59.37-.68.88-.18,1.17l12.7,7.34a2.29,2.29,0,0,0,2-.21L291.83,816c.62-.27.79-.79.3-1.08Zm88.08-145.5a2.31,2.31,0,0,0,2-.12l14.4-8.3c.62-.36.71-.87.2-1.17l-12.63-7.35a2.28,2.28,0,0,0-2,.11l-14.39,8.32c-.62.35-.71.87-.21,1.15Zm-42.08,24.32a2.35,2.35,0,0,0,2-.14l14.39-8.3c.62-.37.72-.87.21-1.17L342,676.78a2.32,2.32,0,0,0-2,.12l-14.39,8.32c-.62.34-.71.87-.21,1.17Zm-93.33,53.86a2.26,2.26,0,0,0,2-.12l14.4-8.29c.62-.37.71-.87.2-1.17l-12.7-7.34a2.29,2.29,0,0,0-2,.12l-14.33,8.32c-.62.34-.71.87-.2,1.15Zm114.37-66a2.31,2.31,0,0,0,2-.12l14.4-8.3c.62-.36.71-.87.2-1.17L363,664.64a2.28,2.28,0,0,0-2,.11l-14.39,8.32c-.62.35-.71.88-.21,1.17ZM317,705.87a2.31,2.31,0,0,0,2-.13l14.39-8.3c.62-.37.71-.87.21-1.17l-12.7-7.33a2.25,2.25,0,0,0-2,0l-14.39,8.32c-.62.34-.72.87-.21,1.17ZM303.91,816.51a2.28,2.28,0,0,0-2,.11l-22.14,12.79c-.62.37-.71.87-.21,1.17l12.7,7.34a2.31,2.31,0,0,0,2-.12L316.42,825c.6-.34.69-.87.19-1.17ZM287,723.26a2.14,2.14,0,0,0,2,0L303.4,715c.6-.36.69-.89.19-1.17l-12.7-7.33a2.28,2.28,0,0,0-2,.11l-14.39,8.32c-.62.35-.69.88-.21,1.15Zm-21.07,12.15a2.32,2.32,0,0,0,2-.12l14.39-8.3c.62-.36.71-.89.21-1.17l-12.79-7.35a2.28,2.28,0,0,0-2,.11l-14.39,8.32c-.62.35-.71.88-.21,1.15Zm427.86-144a2.28,2.28,0,0,0-2,.11L656.33,612c-.62.34-.71.87-.21,1.17l12.7,7.34a2.32,2.32,0,0,0,2-.12L706.28,600c.61-.36.71-.87.2-1.17Zm-46.53,26.86a2.31,2.31,0,0,0-2,0l-14.51,8.51c-.6.34-.69.87-.19,1.14l12.7,7.34a2.31,2.31,0,0,0,2-.12l14.39-8.29c.62-.37.69-.9.21-1.17ZM361.71,775.81l14.39-8.33c.62-.34.71-.87.21-1.17L363.61,759a2.28,2.28,0,0,0-2,.14l-14.39,8.29c-.62.37-.71.87-.21,1.17l12.69,7.33a2.28,2.28,0,0,0,2-.11ZM605.08,642.63a2.29,2.29,0,0,0-2,.12l-14.4,8.32c-.59.34-.69.87-.2,1.17l12.72,7.31a2.12,2.12,0,0,0,2,0l14.42-8.3c.59-.36.68-.87.18-1.17Zm109.65-63.3a2.28,2.28,0,0,0-2,.11l-14.39,8.42c-.62.34-.71.87-.21,1.17l12.7,7.33a2.28,2.28,0,0,0,2-.11l14.39-8.33c.62-.36.72-.87.21-1.16Zm33.74-4.81-32.66-18.87a2.31,2.31,0,0,0-2,.12l-14.4,8.32c-.61.35-.71.87-.2,1.15l32.66,18.88a2.28,2.28,0,0,0,2-.11l14.4-8.32c.62-.39.71-.89.32-1.19ZM526.46,688a2.31,2.31,0,0,0-2,.12l-17.72,10.22c-.62.36-.71.87-.2,1.17l12.7,7.33a2.26,2.26,0,0,0,2-.11L539,696.5c.62-.34.71-.87.21-1.14Zm53.15-30.69a2.32,2.32,0,0,0-2,.12l-22.14,12.79c-.62.34-.71.87-.2,1.14l12.7,7.34a2.29,2.29,0,0,0,2-.11l22.15-12.79c.62-.35.71-.88.2-1.15ZM477.69,716.2a2.31,2.31,0,0,0-2,0L357.16,784.62c-.6.37-.69.89-.19,1.17l12.7,7.33a2.28,2.28,0,0,0,2-.11l118.5-68.42c.62-.34.69-.87.21-1.17ZM352.55,788.48a2.31,2.31,0,0,0-2,.11l-17.71,10.13c-.62.37-.69.88-.21,1.17l12.72,7.34a2.27,2.27,0,0,0,2-.12l17.74-10.24c.59-.35.68-.87.18-1.15Zm149.52-86.32a2.15,2.15,0,0,0-2,.11L482.33,712.5c-.59.34-.69.87-.18,1.17l12.7,7.33a2.26,2.26,0,0,0,2-.11l17.72-10.25c.62-.34.69-.87.21-1.17ZM328.19,802.52a2.28,2.28,0,0,0-2,.14L308.5,812.81c-.62.34-.69.87-.21,1.17L321,821.32a2.28,2.28,0,0,0,2-.12L340.75,811c.59-.35.68-.88.18-1.17ZM550.82,674a2.28,2.28,0,0,0-2,.12l-17.72,10.22c-.62.37-.71.89-.2,1.17l12.7,7.33a2.29,2.29,0,0,0,2,0l17.72-10.22c.62-.37.71-.87.21-1.17Zm75.3-43.55a2.31,2.31,0,0,0-2,.11l-14.4,8.32c-.59.35-.69.88-.18,1.15l12.7,7.34a2.29,2.29,0,0,0,2-.12l14.33-8.3c.59-.36.69-.87.18-1.17Zm45.71-33.74,14.39-8.29c.62-.37.69-.87.21-1.17l-12.72-7.34a2.33,2.33,0,0,0-2,0l-14.41,8.32c-.6.35-.69.87-.19,1.17l12.7,7.31A2.25,2.25,0,0,0,671.83,596.71Zm-86.49,3.81,14.42-8.32c.6-.35.69-.87.19-1.17l-12.7-7.31a2.28,2.28,0,0,0-2,.11l-14.4,8.3c-.62.36-.68.87-.2,1.17l12.7,7.33a2.26,2.26,0,0,0,2-.11Zm-55.28,78.05,42-24.25c.62-.35.68-.88.2-1.17l-12.72-7.32a2.13,2.13,0,0,0-2,.12l-42.11,24.3c-.59.34-.69.87-.18,1.17l12.7,7.31a2.32,2.32,0,0,0,2-.16ZM648.77,609a2.26,2.26,0,0,0,2-.11l14.4-8.32c.6-.37.69-.88.18-1.17l-12.69-7.34a2.3,2.3,0,0,0-2,.12l-14.41,8.31c-.59.35-.68.88-.18,1.17Zm-18-11.67L645.19,589c.62-.37.71-.88.21-1.17l-12.7-7.34a2.31,2.31,0,0,0-2,.12L616.28,589c-.61.35-.71.87-.2,1.17l12.7,7.31a2.28,2.28,0,0,0,2-.11ZM509,690.71l14.39-8.29c.6-.37.69-.87.19-1.17l-12.7-7.34a2.31,2.31,0,0,0-2,.11l-14.4,8.33c-.59.34-.68.87-.18,1.17l12.7,7.31A2.32,2.32,0,0,0,509,690.71Zm93.22-54.87a2.29,2.29,0,0,0,2-.11l14.4-8.3c.62-.37.71-.89.21-1.17l-12.7-7.34a2.31,2.31,0,0,0-2,.12l-14.4,8.32c-.62.34-.71.87-.2,1.15ZM403.79,751.48l14.39-8.32c.62-.35.71-.87.21-1.17l-12.7-7.34a2.31,2.31,0,0,0-2,.12l-14.4,8.32c-.61.37-.71.87-.2,1.17l12.7,7.33A2.28,2.28,0,0,0,403.79,751.48Zm21-12.15L439.22,731c.62-.34.71-.87.21-1.17l-12.7-7.34a2.31,2.31,0,0,0-2,.12l-14.39,8.32c-.62.35-.72.87-.21,1.17l12.7,7.34a2.32,2.32,0,0,0,2-.12Zm-42.09,24.3,14.4-8.32c.62-.35.71-.88.21-1.17l-12.7-7.34a2.31,2.31,0,0,0-2,0l-14.4,8.37c-.62.37-.71.87-.2,1.17l12.7,7.33A2.29,2.29,0,0,0,382.74,763.63ZM466.91,715l14.42-8.33c.59-.36.68-.87.18-1.17l-12.7-7.33a2.32,2.32,0,0,0-2,.12l-14.39,8.32c-.62.34-.69.87-.21,1.17l12.7,7.33a2.28,2.28,0,0,0,2-.11Zm-21,12.14,14.39-8.32c.62-.34.72-.87.21-1.17l-12.7-7.33a2.28,2.28,0,0,0-2,.11l-14.39,8.32c-.62.35-.71.88-.21,1.17l12.7,7.34A2.32,2.32,0,0,0,445.87,727.18ZM488,702.87l14.42-8.3c.59-.37.69-.87.18-1.17l-12.7-7.33a2.22,2.22,0,0,0-2,0l-14.31,8.42c-.59.35-.68.88-.18,1.17l12.7,7.34a2.3,2.3,0,0,0,1.9-.14ZM604.19,534.69a2.28,2.28,0,0,0,2-.11l14.42-8.32c.59-.35.68-.88.18-1.15l-3.37-2a2.31,2.31,0,0,0-2,.11L601,531.58c-.62.36-.71.87-.21,1.16Zm-104.94,66a2.28,2.28,0,0,0,2-.11l14.4-8.3c.61-.36.71-.89.2-1.17l-12.7-7.33a2.31,2.31,0,0,0-2,0l-14.39,8.32c-.62.34-.71.87-.21,1.15Zm42.09-24.29a2.29,2.29,0,0,0,2-.12l14.4-8.32c.62-.34.71-.87.2-1.14l-12.69-7.34a2.31,2.31,0,0,0-2,.12l-14.4,8.32c-.62.34-.71.87-.2,1.14Zm-67.8,39.15a2.26,2.26,0,0,0,2-.14l14.4-8.3c.62-.36.71-.87.2-1.17l-12.7-7.33a2.26,2.26,0,0,0-2,.11L461,607c-.62.35-.71.87-.2,1.17Zm46.75-27a2.31,2.31,0,0,0,2-.12l14.4-8.3c.62-.36.71-.89.2-1.17l-12.7-7.33a2.26,2.26,0,0,0-2,.11l-14.28,8.32c-.62.35-.72.88-.21,1.15Zm-88.82,51.29a2.28,2.28,0,0,0,2-.11l14.4-8.32c.62-.35.71-.88.2-1.17l-12.7-7.34a2.29,2.29,0,0,0-2,0l-14.4,8.5c-.62.35-.71.88-.21,1.17Zm21-12.15a2.28,2.28,0,0,0,2-.11L469,619.25c.62-.37.71-.87.2-1.17l-12.69-7.33a2.28,2.28,0,0,0-2,.11L440,619.18c-.62.35-.71.88-.2,1.17Zm109.64-68.75a2.28,2.28,0,0,0,2-.11l14.39-8.32c.62-.35.71-.87.21-1.15l-3.37-2a2.31,2.31,0,0,0-2,.12l-14.4,8.3c-.61.36-.71.87-.2,1.17Zm63.15-36.44a2.26,2.26,0,0,0,2-.12l14.4-8.32c.59-.34.69-.87.18-1.14l-3.37-2a2.26,2.26,0,0,0-2,.11l-14.4,8.32c-.62.35-.71.88-.2,1.17ZM652,537.89a2.28,2.28,0,0,0,2-.11l14.39-8.33c.6-.34.69-.87.21-1.14L655.88,521a2.25,2.25,0,0,0-2,0l-14.4,8.29c-.59.37-.68.9-.18,1.17Zm40.89,46.63,14.46-8.12c.62-.36.72-.87.21-1.17l-12.7-7.33a2.28,2.28,0,0,0-2,.11l-14.41,8.3c-.59.35-.69.88-.18,1.17l12.7,7.32a2.31,2.31,0,0,0,2-.23ZM583.19,546.79a2.31,2.31,0,0,0,2-.12l14.42-8.32c.59-.34.68-.87.18-1.14l-3.37-2a2.31,2.31,0,0,0-2,.13L580,543.67c-.62.37-.71.87-.21,1.17ZM410.43,652a2.28,2.28,0,0,0,2-.11l14.39-8.33c.62-.34.71-.87.21-1.16l-12.7-7.34a2.28,2.28,0,0,0-2,.12l-14.44,8.27c-.59.34-.69.87-.18,1.17Z"/><path id="Path_558" data-name="Path 558" class="cls-4" d="M564.3,612.67l14.39-8.32c.62-.35.71-.88.21-1.15l-12.7-7.34a2.31,2.31,0,0,0-2,.12l-14.39,8.3c-.62.36-.72.87-.21,1.17l12.7,7.33A2.28,2.28,0,0,0,564.3,612.67Zm-20.08-28.22-14.4,8.3c-.62.36-.71.87-.2,1.17l12.7,7.33a2.26,2.26,0,0,0,2-.11l14.4-8.32c.62-.35.71-.88.2-1.17l-12.69-7.32A2.31,2.31,0,0,0,544.22,584.45Zm-46.53,26.84-24.37,14.07c-.59.35-.69.88-.2,1.17l12.72,7.34a2.26,2.26,0,0,0,2-.12l24.37-14.07c.6-.35.69-.87.18-1.17l-12.69-7.33A2.28,2.28,0,0,0,497.69,611.29Zm25.49-14.69-14.42,8.29c-.6.37-.69.88-.19,1.17l12.7,7.34a2.31,2.31,0,0,0,2,0l14.4-8.32c.62-.35.71-.88.2-1.15l-12.7-7.33a2.22,2.22,0,0,0-2,0Zm-56.53,32.51-14.39,8.33c-.62.34-.69.87-.21,1.17l12.72,7.33a2.3,2.3,0,0,0,2-.11l14.41-8.32c.6-.35.69-.87.19-1.17L468.67,629A2.35,2.35,0,0,0,466.65,629.11Zm-21,12.15-14.37,8.49c-.62.36-.71.87-.2,1.17l12.7,7.33a2.29,2.29,0,0,0,2-.11l14.42-8.33c.59-.34.69-.87.18-1.17l-12.7-7.33a2.26,2.26,0,0,0-2,.05ZM499,673.35l14.4-8.29c.62-.37.71-.9.2-1.17l-12.7-7.34a2.29,2.29,0,0,0-2,.12L484.46,665c-.62.34-.71.87-.2,1.14l12.7,7.34a2.27,2.27,0,0,0,2,0Zm-21,12.15,14.4-8.3c.62-.36.71-.87.2-1.17l-12.7-7.33a2.26,2.26,0,0,0-2,.11l-14.38,8.43c-.62.35-.71.87-.2,1.15l12.7,7.33a2.32,2.32,0,0,0,2-.13Zm-21,12.15,14.4-8.3c.61-.36.71-.87.2-1.17l-12.7-7.33a2.28,2.28,0,0,0-2,.11l-14.39,8.32c-.62.35-.71.88-.21,1.15l12.7,7.33a2.29,2.29,0,0,0,2,0Zm-21,12.15,14.39-8.3c.62-.36.72-.87.21-1.17L437.75,693a2.25,2.25,0,0,0-2,0l-14.39,8.32c-.62.34-.71.87-.21,1.17l12.7,7.31a2.29,2.29,0,0,0,2,.09Zm107.38-85.06,14.4-8.32c.62-.35.71-.88.21-1.15l-12.7-7.34a2.31,2.31,0,0,0-2,.12l-14.4,8.29c-.62.37-.71.9-.2,1.17l12.7,7.34a2.32,2.32,0,0,0,2,0ZM520,661.2l32.09-18.54c.62-.34.71-.87.2-1.17l-32.66-18.86a2.28,2.28,0,0,0-2,.11L501,632.44c-.62.34-.71.87-.2,1.17L519,644.08c.51.3.42.79-.18,1.17l-13.3,7.68c-.62.34-.71.87-.2,1.15l12.7,7.33a2.3,2.3,0,0,0,2-.22Zm-95.44-7.77-14.4,8.3c-.62.37-.71.87-.21,1.17l12.7,7.34a2.31,2.31,0,0,0,2-.12l14.44-8.23c.62-.34.71-.87.21-1.17l-12.7-7.33a2.24,2.24,0,0,0-2.06.14Zm-21.05,12.15-14.39,8.3c-.62.37-.71.87-.21,1.17l12.7,7.33a2.31,2.31,0,0,0,2,0l14.4-8.32c.61-.34.71-.87.2-1.17l-12.7-7.31a2.32,2.32,0,0,0-2,.2Zm-117,129.48a2.25,2.25,0,0,0,2,0l14.4-8.32c.61-.34.71-.87.2-1.17l-12.7-7.33a2.31,2.31,0,0,0-2,.13l-14.32,8.19c-.62.36-.71.87-.21,1.17ZM235.2,763l-14.4,8.26c-.59.34-.69.87-.2,1.14l12.72,7.34a2.13,2.13,0,0,0,2-.12l14.42-8.29c.59-.37.69-.88.18-1.17l-12.7-7.34a2.27,2.27,0,0,0-2.06.07ZM261,786.83a2.28,2.28,0,0,0,2-.11l14.39-8.3c.62-.36.72-.89.21-1.17L265,769.92a2.28,2.28,0,0,0-2,.11l-14.39,8.33c-.62.34-.71.87-.21,1.14Zm58.59,13.37L334,791.88c.62-.35.71-.88.21-1.15l-12.7-7.34a2.31,2.31,0,0,0-2,.12l-14.39,8.29c-.62.37-.72.88-.21,1.17l12.7,7.34a2.29,2.29,0,0,0,2-.23Zm-23.06,12.26a2.31,2.31,0,0,0,2-.11L313,804c.62-.34.69-.87.21-1.14l-12.72-7.34a2.15,2.15,0,0,0-2,.12L284.05,804c-.6.36-.69.89-.19,1.17ZM256.24,750.7,241.84,759c-.59.35-.69.87-.18,1.15l12.7,7.33a2.29,2.29,0,0,0,2-.11l14.4-8.3c.59-.37.69-.87.18-1.17l-12.7-7.34A2.29,2.29,0,0,0,256.24,750.7ZM361.47,690l-14.4,8.3c-.62.37-.71.89-.2,1.17l12.7,7.34a2.29,2.29,0,0,0,2-.12l14.4-8.32c.62-.34.71-.87.21-1.14l-12.68-7.34A2.32,2.32,0,0,0,361.47,690Zm-84.17,48.6-14.41,8.3c-.6.34-.69.87-.19,1.15l12.69,7.34a2.26,2.26,0,0,0,2-.11l14.4-8.3c.62-.37.69-.89.21-1.17l-12.72-7.34a2.32,2.32,0,0,0-2,.12Zm105.21-60.75-14.42,8.3c-.62.37-.71.87-.2,1.17l12.7,7.34a2.29,2.29,0,0,0,2-.12l14.4-8.32c.62-.34.71-.87.21-1.14l-12.7-7.34a2.3,2.3,0,0,0-2,.11Zm-42.08,24.3-14.4,8.3c-.62.37-.71.89-.2,1.17l12.69,7.33a2.28,2.28,0,0,0,2-.11l14.4-8.32c.62-.35.71-.87.2-1.15L342.44,702a2.26,2.26,0,0,0-2,.11Zm-21.05,12.15L305,722.58c-.62.35-.71.87-.21,1.15l12.7,7.33a2.31,2.31,0,0,0,2-.12l14.4-8.32c.62-.34.71-.87.2-1.15l-12.7-7.33a2.28,2.28,0,0,0-2,.11Zm-21,12.15-14.41,8.32c-.6.35-.69.87-.19,1.15l12.7,7.33a2.31,2.31,0,0,0,2,0l14.39-8.32c.62-.34.69-.87.21-1.14l-12.7-7.34a2.31,2.31,0,0,0-2,0Zm95.45,7.79,14.39-8.32c.6-.36.69-.87.21-1.17l-12.72-7.33a2.28,2.28,0,0,0-2,.11l-14.4,8.32c-.59.35-.68.88-.18,1.17l12.7,7.34a2.32,2.32,0,0,0,2-.12ZM590.73,557.6l-14.4,8.32c-.62.34-.71.87-.21,1.14l12.7,7.34a2.31,2.31,0,0,0,2-.12l14.4-8.32c.62-.34.71-.87.2-1.14l-12.7-7.34a2.26,2.26,0,0,0-2,.11Zm-25.52,14.71-14.39,8.3c-.62.36-.71.87-.21,1.17l12.7,7.33a2.28,2.28,0,0,0,2-.11l14.4-8.32c.61-.35.71-.88.2-1.17l-12.7-7.34a2.31,2.31,0,0,0-2,.13Zm46.51-26.87-14.42,8.3c-.62.36-.68.89-.2,1.17l12.72,7.33a2.13,2.13,0,0,0,2-.11l14.42-8.32c.59-.35.69-.87.18-1.15l-12.7-7.33a2.26,2.26,0,0,0-2,.11ZM494.48,653l14.39-8.32c.62-.36.72-.87.21-1.17l-12.7-7.33a2.28,2.28,0,0,0-2,.11L480,644.57c-.62.34-.71.87-.21,1.17l12.7,7.34a2.27,2.27,0,0,0,2.06-.12Zm140.3-119.78a2.28,2.28,0,0,0-2,.12l-14.39,8.29c-.6.37-.69.9-.19,1.17l12.7,7.34a2.31,2.31,0,0,0,2,0l14.42-8.33c.6-.34.69-.87.19-1.14ZM414.73,722l14.4-8.29c.62-.37.69-.88.2-1.17l-12.72-7.34a2.28,2.28,0,0,0-2,.12l-14.42,8.32c-.59.34-.68.87-.18,1.17l12.7,7.33a2.31,2.31,0,0,0,2.11-.13Zm258-149,14.42-8.3c.59-.37.68-.89.18-1.17l-12.7-7.34a2.32,2.32,0,0,0-2,.12l-14.39,8.32c-.62.35-.71.87-.21,1.15l12.7,7.33a2.31,2.31,0,0,0,2.18-.11Zm-41,.62,14.4-8.3c.62-.37.71-.89.2-1.17l-12.69-7.33a2.25,2.25,0,0,0-2,0l-14.4,8.32c-.62.34-.71.87-.2,1.14l12.7,7.34a2.29,2.29,0,0,0,2.1,0Zm22.92-28.95a2.28,2.28,0,0,0-2,.11l-14.39,8.32c-.62.35-.71.88-.21,1.15l12.7,7.34a2.31,2.31,0,0,0,2-.12l14.39-8.3c.62-.36.72-.89.21-1.17Zm4.42-2.57L691.8,561a2.13,2.13,0,0,0,2-.11l14.42-8.3c.59-.37.69-.9.18-1.17l-32.66-18.87a2.32,2.32,0,0,0-2,.12L659.32,541c-.51.36-.6.89-.14,1.17Zm-48.52,27-14.42,8.32c-.59.34-.68.87-.18,1.14l12.7,7.34a2.28,2.28,0,0,0,2-.12l14.39-8.29c.62-.37.71-.9.21-1.17L612.61,569a2.29,2.29,0,0,0-1.9.12ZM452.2,660.55l-14.39,8.32c-.62.35-.71.87-.21,1.17l12.7,7.34a2.31,2.31,0,0,0,2-.12l14.4-8.32c.61-.34.71-.87.2-1.17l-12.7-7.33a2.3,2.3,0,0,0-1.9.11ZM649.7,585.3a2.32,2.32,0,0,0,2-.12l14.39-8.3c.62-.36.71-.87.21-1.16l-12.7-7.34a2.31,2.31,0,0,0-2,.12l-14.39,8.32c-.62.34-.72.87-.21,1.14ZM473.21,648.4l-14.39,8.32c-.62.35-.72.87-.21,1.17l12.7,7.34a2.32,2.32,0,0,0,2-.12l14.39-8.32c.62-.35.71-.87.21-1.17l-12.7-7.34a2.27,2.27,0,0,0-1.84.12ZM307.58,782.9a2.28,2.28,0,0,0,2-.11l14.4-8.32c.62-.35.71-.87.2-1.17L311.5,766a2.29,2.29,0,0,0-2,.12l-14.4,8.32c-.62.36-.71.87-.21,1.17ZM284,757.69l-14.44,8.39c-.62.34-.71.87-.2,1.14l12.7,7.34a2.31,2.31,0,0,0,2,0l14.39-8.32c.62-.35.71-.87.21-1.15L286,757.76a2.27,2.27,0,0,0-2,0Zm46.67,12.88,14.4-8.32c.62-.35.71-.87.2-1.17l-12.7-7.34a2.31,2.31,0,0,0-2,0l-14.39,8.32c-.62.35-.71.87-.21,1.17l12.7,7.34a2.31,2.31,0,0,0,2,.07Zm21-12.15,14.42-8.32c.59-.35.69-.87.18-1.17l-12.7-7.34a2.29,2.29,0,0,0-2,.12L337.17,750c-.62.35-.69.87-.2,1.17l12.72,7.34a2.28,2.28,0,0,0,2,0Zm21.08-12.15L387.15,738c.6-.37.69-.87.19-1.17l-12.7-7.33a2.28,2.28,0,0,0-2,.11l-14.4,8.32c-.59.35-.68.88-.18,1.17l12.7,7.34a2.26,2.26,0,0,0,1.95,0ZM305,745.54l-14.39,8.3c-.62.36-.71.89-.21,1.17l12.7,7.33a2.28,2.28,0,0,0,2-.11l14.4-8.33c.61-.34.71-.87.2-1.14L307,745.43a2.29,2.29,0,0,0-2,.18Zm21.05-12.15-14.4,8.3c-.62.36-.69.87-.21,1.17l12.72,7.33a2.3,2.3,0,0,0,2-.11l14.42-8.32c.59-.35.68-.88.18-1.15l-12.71-7.33a2.29,2.29,0,0,0-2,.18Zm84.19-48.59-14.42,8.48c-.6.37-.69.87-.19,1.17l12.7,7.34a2.31,2.31,0,0,0,2-.12l14.4-8.32c.62-.34.68-.87.2-1.17l-12.7-7.33a2.26,2.26,0,0,0-2,0ZM389.21,697l-14.41,8.3c-.6.36-.69.87-.19,1.17l12.7,7.33a2.31,2.31,0,0,0,2,0l14.4-8.32c.61-.34.68-.87.2-1.17l-12.72-7.33a2.25,2.25,0,0,0-2,.09Zm42.09-24.3L416.9,681c-.62.37-.71.88-.2,1.17l12.69,7.34a2.31,2.31,0,0,0,2-.11l14.4-8.33c.62-.34.71-.87.2-1.17l-12.7-7.33a2.28,2.28,0,0,0-2,.11Zm-84.19,48.62-14.4,8.3c-.59.36-.69.87-.2,1.16l12.72,7.34a2.29,2.29,0,0,0,2-.11l14.4-8.33c.59-.34.69-.87.18-1.14l-12.7-7.34a2.3,2.3,0,0,0-2,.16Zm21-12.15-14.4,8.3c-.59.36-.68.87-.18,1.17l12.7,7.33a2.28,2.28,0,0,0,2-.11l14.39-8.32c.6-.35.69-.88.19-1.17L370.17,709a2.36,2.36,0,0,0-2.07.16Zm-27.51,78.76,14.4-8.32c.62-.35.71-.87.2-1.17l-12.67-7.18a2.31,2.31,0,0,0-2,.12l-14.4,8.29c-.61.37-.71.88-.2,1.17l12.7,7.34a2.31,2.31,0,0,0,2-.21Zm-111.79-5.72-12.7-7.33a2.25,2.25,0,0,0-2,0l-14.4,8.32c-.61.34-.68.87-.2,1.17l12.7,7.51a2.28,2.28,0,0,0,2-.11l14.41-8.3c.62-.41.71-.91.21-1.21Zm27.73,7.06-12.7-7.32a2.28,2.28,0,0,0-2,.11L219.72,794.8c-.62.35-.71.87-.2,1.17l12.7,7.33a2.22,2.22,0,0,0,2,0l22.15-12.79c.64-.43.73-1,.23-1.23Zm-46.44-21.69-12.69-7.33a2.14,2.14,0,0,0-2,0l-17.6,10.38c-.6.37-.69.87-.19,1.17l12.7,7.33a2.28,2.28,0,0,0,2-.11l17.72-10.25c.48-.34.57-.87.07-1.14Zm13.55-7.79a2.31,2.31,0,0,0,2-.11l14.4-8.3c.61-.37.71-.87.2-1.17l-12.7-7.34a2.32,2.32,0,0,0-2,.12l-14.39,8.32c-.62.35-.71.87-.21,1.15Zm58.36,37.87-12.52-7.34a2.29,2.29,0,0,0-2,.12l-27.69,16.05c-.62.35-.72.87-.21,1.17l12.7,7.34a2.32,2.32,0,0,0,2-.12l27.68-16c.51-.37.6-.89.1-1.2Zm10,17.3-12.72-7.33a2.12,2.12,0,0,0-2,.11L259.6,817.91c-.59.37-.68.88-.18,1.17l12.7,7.34a2.29,2.29,0,0,0,2-.21L291.83,816c.62-.27.79-.79.3-1.08Zm88.08-145.5a2.31,2.31,0,0,0,2-.12l14.4-8.3c.62-.36.71-.87.2-1.17l-12.63-7.35a2.28,2.28,0,0,0-2,.11l-14.39,8.32c-.62.35-.71.87-.21,1.15Zm-42.08,24.32a2.35,2.35,0,0,0,2-.14l14.39-8.3c.62-.37.72-.87.21-1.17L342,676.78a2.32,2.32,0,0,0-2,.12l-14.39,8.32c-.62.34-.71.87-.21,1.17Zm-93.33,53.86a2.26,2.26,0,0,0,2-.12l14.4-8.29c.62-.37.71-.87.2-1.17l-12.7-7.34a2.29,2.29,0,0,0-2,.12l-14.33,8.32c-.62.34-.71.87-.2,1.15Zm114.37-66a2.31,2.31,0,0,0,2-.12l14.4-8.3c.62-.36.71-.87.2-1.17L363,664.64a2.28,2.28,0,0,0-2,.11l-14.39,8.32c-.62.35-.71.88-.21,1.17ZM317,705.87a2.31,2.31,0,0,0,2-.13l14.39-8.3c.62-.37.71-.87.21-1.17l-12.7-7.33a2.25,2.25,0,0,0-2,0l-14.39,8.32c-.62.34-.72.87-.21,1.17ZM303.91,816.51a2.28,2.28,0,0,0-2,.11l-22.14,12.79c-.62.37-.71.87-.21,1.17l12.7,7.34a2.31,2.31,0,0,0,2-.12L316.42,825c.6-.34.69-.87.19-1.17ZM287,723.26a2.14,2.14,0,0,0,2,0L303.4,715c.6-.36.69-.89.19-1.17l-12.7-7.33a2.28,2.28,0,0,0-2,.11l-14.39,8.32c-.62.35-.69.88-.21,1.15Zm-21.07,12.15a2.32,2.32,0,0,0,2-.12l14.39-8.3c.62-.36.71-.89.21-1.17l-12.79-7.35a2.28,2.28,0,0,0-2,.11l-14.39,8.32c-.62.35-.71.88-.21,1.15Zm427.86-144a2.28,2.28,0,0,0-2,.11L656.33,612c-.62.34-.71.87-.21,1.17l12.7,7.34a2.32,2.32,0,0,0,2-.12L706.28,600c.61-.36.71-.87.2-1.17Zm-46.53,26.86a2.31,2.31,0,0,0-2,0l-14.51,8.51c-.6.34-.69.87-.19,1.14l12.7,7.34a2.31,2.31,0,0,0,2-.12l14.39-8.29c.62-.37.69-.9.21-1.17ZM361.71,775.81l14.39-8.33c.62-.34.71-.87.21-1.17L363.61,759a2.28,2.28,0,0,0-2,.14l-14.39,8.29c-.62.37-.71.87-.21,1.17l12.69,7.33a2.28,2.28,0,0,0,2-.11ZM605.08,642.63a2.29,2.29,0,0,0-2,.12l-14.4,8.32c-.59.34-.69.87-.2,1.17l12.72,7.31a2.12,2.12,0,0,0,2,0l14.42-8.3c.59-.36.68-.87.18-1.17Zm109.65-63.3a2.28,2.28,0,0,0-2,.11l-14.39,8.42c-.62.34-.71.87-.21,1.17l12.7,7.33a2.28,2.28,0,0,0,2-.11l14.39-8.33c.62-.36.72-.87.21-1.16Zm33.74-4.81-32.66-18.87a2.31,2.31,0,0,0-2,.12l-14.4,8.32c-.61.35-.71.87-.2,1.15l32.66,18.88a2.28,2.28,0,0,0,2-.11l14.4-8.32c.62-.39.71-.89.32-1.19ZM526.46,688a2.31,2.31,0,0,0-2,.12l-17.72,10.22c-.62.36-.71.87-.2,1.17l12.7,7.33a2.26,2.26,0,0,0,2-.11L539,696.5c.62-.34.71-.87.21-1.14Zm53.15-30.69a2.32,2.32,0,0,0-2,.12l-22.14,12.79c-.62.34-.71.87-.2,1.14l12.7,7.34a2.29,2.29,0,0,0,2-.11l22.15-12.79c.62-.35.71-.88.2-1.15ZM477.69,716.2a2.31,2.31,0,0,0-2,0L357.16,784.62c-.6.37-.69.89-.19,1.17l12.7,7.33a2.28,2.28,0,0,0,2-.11l118.5-68.42c.62-.34.69-.87.21-1.17ZM352.55,788.48a2.31,2.31,0,0,0-2,.11l-17.71,10.13c-.62.37-.69.88-.21,1.17l12.72,7.34a2.27,2.27,0,0,0,2-.12l17.74-10.24c.59-.35.68-.87.18-1.15Zm149.52-86.32a2.15,2.15,0,0,0-2,.11L482.33,712.5c-.59.34-.69.87-.18,1.17l12.7,7.33a2.26,2.26,0,0,0,2-.11l17.72-10.25c.62-.34.69-.87.21-1.17ZM328.19,802.52a2.28,2.28,0,0,0-2,.14L308.5,812.81c-.62.34-.69.87-.21,1.17L321,821.32a2.28,2.28,0,0,0,2-.12L340.75,811c.59-.35.68-.88.18-1.17ZM550.82,674a2.28,2.28,0,0,0-2,.12l-17.72,10.22c-.62.37-.71.89-.2,1.17l12.7,7.33a2.29,2.29,0,0,0,2,0l17.72-10.22c.62-.37.71-.87.21-1.17Zm75.3-43.55a2.31,2.31,0,0,0-2,.11l-14.4,8.32c-.59.35-.69.88-.18,1.15l12.7,7.34a2.29,2.29,0,0,0,2-.12l14.33-8.3c.59-.36.69-.87.18-1.17Zm45.71-33.74,14.39-8.29c.62-.37.69-.87.21-1.17l-12.72-7.34a2.33,2.33,0,0,0-2,0l-14.41,8.32c-.6.35-.69.87-.19,1.17l12.7,7.31A2.25,2.25,0,0,0,671.83,596.71Zm-86.49,3.81,14.42-8.32c.6-.35.69-.87.19-1.17l-12.7-7.31a2.28,2.28,0,0,0-2,.11l-14.4,8.3c-.62.36-.68.87-.2,1.17l12.7,7.33a2.26,2.26,0,0,0,2-.11Zm-55.28,78.05,42-24.25c.62-.35.68-.88.2-1.17l-12.72-7.32a2.13,2.13,0,0,0-2,.12l-42.11,24.3c-.59.34-.69.87-.18,1.17l12.7,7.31a2.32,2.32,0,0,0,2-.16ZM648.77,609a2.26,2.26,0,0,0,2-.11l14.4-8.32c.6-.37.69-.88.18-1.17l-12.69-7.34a2.3,2.3,0,0,0-2,.12l-14.41,8.31c-.59.35-.68.88-.18,1.17Zm-18-11.67L645.19,589c.62-.37.71-.88.21-1.17l-12.7-7.34a2.31,2.31,0,0,0-2,.12L616.28,589c-.61.35-.71.87-.2,1.17l12.7,7.31a2.28,2.28,0,0,0,2-.11ZM509,690.71l14.39-8.29c.6-.37.69-.87.19-1.17l-12.7-7.34a2.31,2.31,0,0,0-2,.11l-14.4,8.33c-.59.34-.68.87-.18,1.17l12.7,7.31A2.32,2.32,0,0,0,509,690.71Zm93.22-54.87a2.29,2.29,0,0,0,2-.11l14.4-8.3c.62-.37.71-.89.21-1.17l-12.7-7.34a2.31,2.31,0,0,0-2,.12l-14.4,8.32c-.62.34-.71.87-.2,1.15ZM403.79,751.48l14.39-8.32c.62-.35.71-.87.21-1.17l-12.7-7.34a2.31,2.31,0,0,0-2,.12l-14.4,8.32c-.61.37-.71.87-.2,1.17l12.7,7.33A2.28,2.28,0,0,0,403.79,751.48Zm21-12.15L439.22,731c.62-.34.71-.87.21-1.17l-12.7-7.34a2.31,2.31,0,0,0-2,.12l-14.39,8.32c-.62.35-.72.87-.21,1.17l12.7,7.34a2.32,2.32,0,0,0,2-.12Zm-42.09,24.3,14.4-8.32c.62-.35.71-.88.21-1.17l-12.7-7.34a2.31,2.31,0,0,0-2,0l-14.4,8.37c-.62.37-.71.87-.2,1.17l12.7,7.33A2.29,2.29,0,0,0,382.74,763.63ZM466.91,715l14.42-8.33c.59-.36.68-.87.18-1.17l-12.7-7.33a2.32,2.32,0,0,0-2,.12l-14.39,8.32c-.62.34-.69.87-.21,1.17l12.7,7.33a2.28,2.28,0,0,0,2-.11Zm-21,12.14,14.39-8.32c.62-.34.72-.87.21-1.17l-12.7-7.33a2.28,2.28,0,0,0-2,.11l-14.39,8.32c-.62.35-.71.88-.21,1.17l12.7,7.34A2.32,2.32,0,0,0,445.87,727.18ZM488,702.87l14.42-8.3c.59-.37.69-.87.18-1.17l-12.7-7.33a2.22,2.22,0,0,0-2,0l-14.31,8.42c-.59.35-.68.88-.18,1.17l12.7,7.34a2.3,2.3,0,0,0,1.9-.14ZM604.19,534.69a2.28,2.28,0,0,0,2-.11l14.42-8.32c.59-.35.68-.88.18-1.15l-3.37-2a2.31,2.31,0,0,0-2,.11L601,531.58c-.62.36-.71.87-.21,1.16Zm-104.94,66a2.28,2.28,0,0,0,2-.11l14.4-8.3c.61-.36.71-.89.2-1.17l-12.7-7.33a2.31,2.31,0,0,0-2,0l-14.39,8.32c-.62.34-.71.87-.21,1.15Zm42.09-24.29a2.29,2.29,0,0,0,2-.12l14.4-8.32c.62-.34.71-.87.2-1.14l-12.69-7.34a2.31,2.31,0,0,0-2,.12l-14.4,8.32c-.62.34-.71.87-.2,1.14Zm-67.8,39.15a2.26,2.26,0,0,0,2-.14l14.4-8.3c.62-.36.71-.87.2-1.17l-12.7-7.33a2.26,2.26,0,0,0-2,.11L461,607c-.62.35-.71.87-.2,1.17Zm46.75-27a2.31,2.31,0,0,0,2-.12l14.4-8.3c.62-.36.71-.89.2-1.17l-12.7-7.33a2.26,2.26,0,0,0-2,.11l-14.28,8.32c-.62.35-.72.88-.21,1.15Zm-88.82,51.29a2.28,2.28,0,0,0,2-.11l14.4-8.32c.62-.35.71-.88.2-1.17l-12.7-7.34a2.29,2.29,0,0,0-2,0l-14.4,8.5c-.62.35-.71.88-.21,1.17Zm21-12.15a2.28,2.28,0,0,0,2-.11L469,619.25c.62-.37.71-.87.2-1.17l-12.69-7.33a2.28,2.28,0,0,0-2,.11L440,619.18c-.62.35-.71.88-.2,1.17Zm109.64-68.75a2.28,2.28,0,0,0,2-.11l14.39-8.32c.62-.35.71-.87.21-1.15l-3.37-2a2.31,2.31,0,0,0-2,.12l-14.4,8.3c-.61.36-.71.87-.2,1.17Zm63.15-36.44a2.26,2.26,0,0,0,2-.12l14.4-8.32c.59-.34.69-.87.18-1.14l-3.37-2a2.26,2.26,0,0,0-2,.11l-14.4,8.32c-.62.35-.71.88-.2,1.17ZM652,537.89a2.28,2.28,0,0,0,2-.11l14.39-8.33c.6-.34.69-.87.21-1.14L655.88,521a2.25,2.25,0,0,0-2,0l-14.4,8.29c-.59.37-.68.9-.18,1.17Zm40.89,46.63,14.46-8.12c.62-.36.72-.87.21-1.17l-12.7-7.33a2.28,2.28,0,0,0-2,.11l-14.41,8.3c-.59.35-.69.88-.18,1.17l12.7,7.32a2.31,2.31,0,0,0,2-.23ZM583.19,546.79a2.31,2.31,0,0,0,2-.12l14.42-8.32c.59-.34.68-.87.18-1.14l-3.37-2a2.31,2.31,0,0,0-2,.13L580,543.67c-.62.37-.71.87-.21,1.17ZM410.43,652a2.28,2.28,0,0,0,2-.11l14.39-8.33c.62-.34.71-.87.21-1.16l-12.7-7.34a2.28,2.28,0,0,0-2,.12l-14.44,8.27c-.59.34-.69.87-.18,1.17Z"/><path id="Path_559" data-name="Path 559" class="cls-15" d="M474.86,760.65l2.95,1.69,78.42,45.27L695.68,727.1l2.9-1.65-81.38-47Z"/><path id="Path_560" data-name="Path 560" class="cls-3" d="M477.82,762.34l78.41,45.27,139.45-80.52L617.2,681.82Z"/><path id="Path_561" data-name="Path 561" class="cls-13" d="M477.82,762.34l78.41,45.27,139.45-80.52L617.2,681.82Z"/><path id="Path_562" data-name="Path 562" class="cls-3" d="M72.75,746a20.47,20.47,0,0,0,4,1.7,17.8,17.8,0,0,1-4-1.68,9.6,9.6,0,0,1-1.24-.79A11.78,11.78,0,0,1,72.75,746Z"/><path id="Path_563" data-name="Path 563" class="cls-3" d="M95.33,747.19l.21-.18-.17.16Z"/></g></g><g id="freepik--Windows--inject-75"><g id="freepik--Window--inject-75"><g id="freepik--window--inject-75-2"><path id="Path_564" data-name="Path 564" class="cls-16" d="M676.7,71.84a2.92,2.92,0,0,0-.16-.92v-.18a3.88,3.88,0,0,0-.23-.89,4.08,4.08,0,0,0-.59-1.27,1.56,1.56,0,0,0-.32-.52,1.52,1.52,0,0,0-.3-.37,3.23,3.23,0,0,0-.64-.64h0a3.57,3.57,0,0,0-.85-.48,7.25,7.25,0,0,0-6.69.84L161.46,358.52a22,22,0,0,0-10,17.23V741a6.87,6.87,0,0,0,3.43,6l.41.26.5.3a4.2,4.2,0,0,0,.85.27A5.07,5.07,0,0,0,158,748a6.4,6.4,0,0,0,3.3-1l.27-.14h0l9.58-5.45,495.69-285.6a22,22,0,0,0,9.95-17.24V73.08A10.19,10.19,0,0,0,676.7,71.84Z"/><path id="Path_565" data-name="Path 565" class="cls-3" d="M673.52,66.5a7.24,7.24,0,0,0-6.7.85L161.37,358.45a22,22,0,0,0-10,17.23v32.48l-12.7-7.45V368.39a22,22,0,0,1,9.92-17.19L654.14,60.11a6.87,6.87,0,0,1,7.2-.6C663.16,60.66,671.41,65.38,673.52,66.5Z"/><path id="Path_566" data-name="Path 566" class="cls-3" d="M676.75,73c0-6.28-4.59-8.8-9.93-5.66l-505.48,291a22,22,0,0,0-9.92,17.19v32.5L676.75,105.53Z"/><path id="Path_567" data-name="Path 567" class="cls-17" d="M666.82,67.35l-505.45,291a20,20,0,0,0-6.88,7.36l-12.63-7.31a20.07,20.07,0,0,1,6.87-7.25L654.23,60.1a6.87,6.87,0,0,1,7.19-.57c1.79,1.08,10,5.77,12.12,6.87A7.16,7.16,0,0,0,666.82,67.35Z"/><path id="Path_568" data-name="Path 568" class="cls-18" d="M138.72,400.69V368.4a20.23,20.23,0,0,1,3-9.94l12.64,7.29a20,20,0,0,0-3,9.87V408.1Z"/><path id="Path_569" data-name="Path 569" class="cls-12" d="M617.93,109.84a14.82,14.82,0,0,0-5.61,11.88c0,4.76,2.52,7.19,5.61,5.41a14.83,14.83,0,0,0,5.62-11.9C623.55,110.44,621.1,108.06,617.93,109.84Z"/><path id="Path_570" data-name="Path 570" class="cls-12" d="M638.22,98.15A14.83,14.83,0,0,0,632.6,110c0,4.77,2.52,7.2,5.62,5.42a14.89,14.89,0,0,0,5.62-11.9C643.84,98.75,641.31,96.37,638.22,98.15Z"/><path id="Path_571" data-name="Path 571" class="cls-12" d="M658.41,86.46c-3.09,1.79-5.59,7.11-5.59,11.87s2.5,7.2,5.59,5.41A14.82,14.82,0,0,0,664,91.85C664,87.06,661.48,84.68,658.41,86.46Z"/><path id="Path_572" data-name="Path 572" class="cls-19" d="M154.92,747l-.55-.3L143.9,740.6a10.5,10.5,0,0,1-5-7.69,11.53,11.53,0,0,1,0-1.44V400.64l12.7,7.45V740.93a6.74,6.74,0,0,0,3.16,5.75Z"/></g><g id="freepik--Code--inject-75"><path id="Path_573" data-name="Path 573" class="cls-3" d="M212.07,400.48l145.36-84.39c1.95-1.12,3.53-.34,3.53,1.79a7.51,7.51,0,0,1-3.53,5.84L212.07,408.14c-1.95,1.12-3.53.32-3.53-1.79a7.56,7.56,0,0,1,3.53-5.87Z"/><path id="Path_574" data-name="Path 574" class="cls-3" d="M249.84,471.88,641.45,244.51c1.95-1.13,3.53-.33,3.53,1.78a7.59,7.59,0,0,1-3.53,5.87L249.84,479.54c-2,1.12-3.53.32-3.53-1.79A7.63,7.63,0,0,1,249.84,471.88Z"/><path id="Path_575" data-name="Path 575" class="cls-3" d="M249.84,498.45l391.61-227.4c1.95-1.12,3.53-.32,3.53,1.79a7.59,7.59,0,0,1-3.53,5.86L249.84,506c-2,1.13-3.53.32-3.53-1.79A7.55,7.55,0,0,1,249.84,498.45Z"/><path id="Path_576" data-name="Path 576" class="cls-3" d="M371.12,308.2,643.6,151.06c1.95-1.13,3.53-.32,3.53,1.79a7.54,7.54,0,0,1-3.53,5.86L371.12,315.84c-1.95,1.12-3.53.32-3.53-1.79A7.57,7.57,0,0,1,371.12,308.2Z"/><path id="Path_577" data-name="Path 577" class="cls-3" d="M212.07,422.47l76.53-44.72c1.95-1.13,3.53-.35,3.53,1.78a7.56,7.56,0,0,1-3.53,5.85L212.07,430.1c-1.95,1.12-3.53.34-3.53-1.79A7.51,7.51,0,0,1,212.07,422.47Z"/><path id="Path_578" data-name="Path 578" class="cls-20" d="M212.07,422.47l76.53-44.72c1.95-1.13,3.53-.35,3.53,1.78a7.56,7.56,0,0,1-3.53,5.85L212.07,430.1c-1.95,1.12-3.53.34-3.53-1.79A7.51,7.51,0,0,1,212.07,422.47Z"/><path id="Path_579" data-name="Path 579" class="cls-3" d="M212.07,444.3l41-23.79c1.95-1.14,3.53-.34,3.53,1.77a7.56,7.56,0,0,1-3.53,5.87l-41,23.83c-1.95,1.13-3.53.33-3.53-1.78A7.54,7.54,0,0,1,212.07,444.3Z"/><path id="Path_580" data-name="Path 580" class="cls-20" d="M212.07,444.3l41-23.79c1.95-1.14,3.53-.34,3.53,1.77a7.56,7.56,0,0,1-3.53,5.87l-41,23.83c-1.95,1.13-3.53.33-3.53-1.78A7.54,7.54,0,0,1,212.07,444.3Z"/><path id="Path_581" data-name="Path 581" class="cls-3" d="M302.28,369.85l41.91-24.12c1.95-1.13,3.53-.33,3.53,1.78a7.54,7.54,0,0,1-3.53,5.87l-41.91,24.11c-1.95,1.12-3.53.32-3.53-1.79A7.57,7.57,0,0,1,302.28,369.85Z"/><path id="Path_582" data-name="Path 582" class="cls-20" d="M302.28,369.85l41.91-24.12c1.95-1.13,3.53-.33,3.53,1.78a7.54,7.54,0,0,1-3.53,5.87l-41.91,24.11c-1.95,1.12-3.53.32-3.53-1.79A7.57,7.57,0,0,1,302.28,369.85Z"/><path id="Path_583" data-name="Path 583" class="cls-21" d="M379.55,474.08,643.6,322c1.95-1.14,3.53-.34,3.53,1.77a7.54,7.54,0,0,1-3.53,5.87l-264,152.15c-1.95,1.12-3.53.32-3.53-1.79a7.61,7.61,0,0,1,3.53-5.87Z"/><path id="Path_584" data-name="Path 584" class="cls-21" d="M384.71,449.4,643.72,300c1.95-1.12,3.53-.32,3.53,1.79a7.59,7.59,0,0,1-3.53,5.87L384.82,457.06c-1.95,1.12-3.53.32-3.53-1.79A7.58,7.58,0,0,1,384.71,449.4Z"/><path id="Path_585" data-name="Path 585" class="cls-21" d="M275.53,513.33l95.49-56c2-1.13,3.53-.33,3.53,1.78a7.51,7.51,0,0,1-3.53,5.85l-95.49,56c-1.94,1.12-3.53.32-3.53-1.79a7.63,7.63,0,0,1,3.53-5.87Z"/><path id="Path_586" data-name="Path 586" class="cls-22" d="M270,410.71,556.82,244.57c1.95-1.12,3.53-.32,3.53,1.79a7.54,7.54,0,0,1-3.53,5.87L270,418.36c-2,1.13-3.53.33-3.53-1.78a7.54,7.54,0,0,1,3.53-5.87Z"/><path id="Path_587" data-name="Path 587" class="cls-22" d="M572.27,235.75l69.25-39c2-1.12,3.53-.32,3.53,1.79a7.59,7.59,0,0,1-3.53,5.87l-69.25,39c-1.95,1.13-3.53.33-3.53-1.78a7.59,7.59,0,0,1,3.53-5.87Z"/><path id="Path_588" data-name="Path 588" class="cls-3" d="M235.79,454.9l105.8-62.37c2-1.12,3.53-.32,3.53,1.79a7.52,7.52,0,0,1-3.53,5.85l-105.8,62.36c-1.95,1.13-3.53.33-3.53-1.78A7.56,7.56,0,0,1,235.79,454.9Z"/><path id="Path_589" data-name="Path 589" class="cls-20" d="M235.79,454.9l105.8-62.37c2-1.12,3.53-.32,3.53,1.79a7.52,7.52,0,0,1-3.53,5.85l-105.8,62.36c-1.95,1.13-3.53.33-3.53-1.78A7.56,7.56,0,0,1,235.79,454.9Z"/><path id="Path_590" data-name="Path 590" class="cls-3" d="M355.28,384.53,641.52,220.21c2-1.12,3.53-.32,3.53,1.79a7.63,7.63,0,0,1-3.53,5.87L355.28,392.19c-1.95,1.12-3.53.32-3.53-1.79a7.54,7.54,0,0,1,3.53-5.87Z"/><path id="Path_591" data-name="Path 591" class="cls-20" d="M355.28,384.53,641.52,220.21c2-1.12,3.53-.32,3.53,1.79a7.63,7.63,0,0,1-3.53,5.87L355.28,392.19c-1.95,1.12-3.53.32-3.53-1.79a7.54,7.54,0,0,1,3.53-5.87Z"/><path id="Path_592" data-name="Path 592" class="cls-22" d="M235.79,580.74,643.61,344.65c1.95-1.12,3.53-.32,3.53,1.79a7.54,7.54,0,0,1-3.53,5.87L235.79,588.38c-1.95,1.13-3.53.32-3.53-1.79A7.57,7.57,0,0,1,235.79,580.74Z"/><path id="Path_593" data-name="Path 593" class="cls-22" d="M235.79,602.63,643.61,366.54c1.95-1.12,3.53-.32,3.53,1.79a7.63,7.63,0,0,1-3.53,5.87L235.79,610.28c-1.95,1.15-3.53.35-3.53-1.76A7.53,7.53,0,0,1,235.79,602.63Z"/><path id="Path_594" data-name="Path 594" class="cls-22" d="M235.79,624.52,643.61,388.43c1.95-1.12,3.53-.32,3.53,1.79a7.63,7.63,0,0,1-3.53,5.87L235.79,632.16c-1.95,1.12-3.53.32-3.53-1.79a7.52,7.52,0,0,1,3.53-5.86Z"/><path id="Path_595" data-name="Path 595" class="cls-3" d="M266.41,635.47l103.52-60.28c1.95-1.15,3.53-.35,3.53,1.76a7.54,7.54,0,0,1-3.53,5.87L266.41,643.13c-2,1.12-3.53.32-3.53-1.79A7.59,7.59,0,0,1,266.41,635.47Z"/><path id="Path_596" data-name="Path 596" class="cls-3" d="M383.63,567l260-149.59c1.95-1.12,3.53-.32,3.53,1.79a7.51,7.51,0,0,1-3.53,5.89l-260,149.56c-1.95,1.12-3.53.32-3.53-1.79a7.63,7.63,0,0,1,3.53-5.87Z"/><path id="Path_597" data-name="Path 597" class="cls-3" d="M215.23,664.77l32.66-18.89c2-1.12,3.53-.32,3.53,1.79a7.57,7.57,0,0,1-3.53,5.87l-32.66,18.88c-1.95,1.12-3.53.32-3.53-1.79A7.59,7.59,0,0,1,215.23,664.77Z"/><path id="Path_598" data-name="Path 598" class="cls-20" d="M215.23,664.77l32.66-18.89c2-1.12,3.53-.32,3.53,1.79a7.57,7.57,0,0,1-3.53,5.87l-32.66,18.88c-1.95,1.12-3.53.32-3.53-1.79A7.59,7.59,0,0,1,215.23,664.77Z"/><path id="Path_599" data-name="Path 599" class="cls-3" d="M215.23,684.55l32.66-18.77c2-1.12,3.53-.32,3.53,1.79a7.57,7.57,0,0,1-3.53,5.87l-32.66,18.88c-1.95,1.13-3.53.33-3.53-1.78A7.64,7.64,0,0,1,215.23,684.55Z"/><path id="Path_600" data-name="Path 600" class="cls-20" d="M215.23,684.55l32.66-18.77c2-1.12,3.53-.32,3.53,1.79a7.57,7.57,0,0,1-3.53,5.87l-32.66,18.88c-1.95,1.13-3.53.33-3.53-1.78A7.64,7.64,0,0,1,215.23,684.55Z"/><path id="Path_601" data-name="Path 601" class="cls-21" d="M266.53,654.32,643.6,436.56c1.95-1.12,3.53-.34,3.53,1.79a7.52,7.52,0,0,1-3.53,5.85L266.53,661.86c-1.95,1.12-3.53.32-3.53-1.79a7.59,7.59,0,0,1,3.53-5.75Z"/><path id="Path_602" data-name="Path 602" class="cls-2" d="M173,698l19.21-11.09c1.92-1.1,3.48-.21,3.48,2V696a7.75,7.75,0,0,1-3.48,6L173,713.16c-1.93,1.1-3.49.21-3.49-2v-7.06A7.8,7.8,0,0,1,173,698Z"/><path id="Path_603" data-name="Path 603" class="cls-2" d="M173,613.79l19.21-11.1c1.92-1.1,3.48-.2,3.48,2v7.06a7.76,7.76,0,0,1-3.48,6.06L173,628.89c-1.93,1.13-3.49.23-3.49-2v-6.94A7.69,7.69,0,0,1,173,613.8Z"/><path id="Path_604" data-name="Path 604" class="cls-2" d="M173,641.89,192.2,630.8c1.92-1.13,3.48-.21,3.48,2v7.06a7.69,7.69,0,0,1-3.48,6L173,657c-1.93,1.13-3.49.21-3.49-2v-7.06a7.71,7.71,0,0,1,3.49-6Z"/><path id="Path_605" data-name="Path 605" class="cls-2" d="M173,670,192.2,658.9c1.92-1.12,3.48-.22,3.48,2v7.17a7.71,7.71,0,0,1-3.48,6.06L173,685.23c-1.93,1.1-3.49.2-3.49-2v-7.06A7.76,7.76,0,0,1,173,670Z"/><path id="Path_606" data-name="Path 606" class="cls-2" d="M173,529.55l19.21-11.09c1.92-1.13,3.48-.21,3.48,2v7.06a7.7,7.7,0,0,1-3.48,6L173,544.66c-1.93,1.12-3.49.2-3.49-2v-7.07a7.71,7.71,0,0,1,3.49-6Z"/><path id="Path_607" data-name="Path 607" class="cls-2" d="M173,557.63l19.21-11c1.92-1.1,3.48-.21,3.48,2v7.06a7.76,7.76,0,0,1-3.48,6.06L173,572.82c-1.93,1.1-3.49.2-3.49-2v-7.06a7.78,7.78,0,0,1,3.49-6.1Z"/><path id="Path_608" data-name="Path 608" class="cls-2" d="M173,585.73l19.21-11.09c1.92-1.1,3.48-.21,3.48,2v7.06a7.75,7.75,0,0,1-3.48,6L173,600.84c-1.93,1.12-3.49.23-3.49-2v-7.06a7.76,7.76,0,0,1,3.49-6Z"/><path id="Path_609" data-name="Path 609" class="cls-2" d="M173,445.3l19.21-11c1.92-1.1,3.48-.2,3.48,2v7.06a7.76,7.76,0,0,1-3.48,6.06L173,460.5c-1.93,1.1-3.49.21-3.49-2v-7.06a7.75,7.75,0,0,1,3.49-6.12Z"/><path id="Path_610" data-name="Path 610" class="cls-2" d="M173,473.4l19.21-11.1c1.92-1.1,3.48-.2,3.48,2v7.06a7.76,7.76,0,0,1-3.48,6.06L173,488.5c-1.93,1.12-3.49.23-3.49-2v-7.06A7.75,7.75,0,0,1,173,473.4Z"/><path id="Path_611" data-name="Path 611" class="cls-2" d="M173,501.5l19.21-11.1c1.92-1.12,3.48-.2,3.48,2v7.06a7.7,7.7,0,0,1-3.48,6L173,516.61c-1.93,1.12-3.49.2-3.49-2v-7a7.7,7.7,0,0,1,3.49-6.12Z"/><path id="Path_612" data-name="Path 612" class="cls-2" d="M173,417.24l19.21-11.06c1.92-1.13,3.48-.23,3.48,2v7.06a7.69,7.69,0,0,1-3.48,6.06L173,432.38c-1.93,1.1-3.49.21-3.49-2v-7.06A7.8,7.8,0,0,1,173,417.24Z"/></g></g><g id="freepik--window--inject-75-3"><path id="Path_613" data-name="Path 613" class="cls-12" d="M823.88,131.41a4.13,4.13,0,0,0-.16-.92v-.2a4.29,4.29,0,0,0-.23-.87,5.22,5.22,0,0,0-.6-1.29,1.58,1.58,0,0,0-.32-.5,1.12,1.12,0,0,0-.29-.36,2.86,2.86,0,0,0-.65-.65h0a4.52,4.52,0,0,0-.85-.5,7.23,7.23,0,0,0-6.69.85L308.5,418a22,22,0,0,0-9.93,17.21V800.52a6.87,6.87,0,0,0,3.58,6,3.62,3.62,0,0,1,.41.27l.53.26a4.08,4.08,0,0,0,.85.3,6.14,6.14,0,0,0,1.28.16,6.25,6.25,0,0,0,3.28-.94l.26-.16h0l9.47-5.48L814,515.35a21.93,21.93,0,0,0,10-17.21V132.65A10.31,10.31,0,0,0,823.88,131.41Z"/><path id="Path_614" data-name="Path 614" class="cls-3" d="M820.69,126.06a7.23,7.23,0,0,0-6.69.85L308.51,418a22,22,0,0,0-9.93,17.21v32.48l-12.7-7.42V428a22,22,0,0,1,9.93-17.19L801.3,119.72a6.89,6.89,0,0,1,7.19-.57C810.31,120.25,818.56,125,820.69,126.06Z"/><path id="Path_615" data-name="Path 615" class="cls-3" d="M823.93,132.58c0-6.28-4.48-8.82-9.93-5.66L308.51,418a22,22,0,0,0-9.93,17.22v32.5L823.9,165.11Z"/><path id="Path_616" data-name="Path 616" class="cls-17" d="M814,126.92,308.51,418a20.61,20.61,0,0,0-6.88,7.37L289,418a19.51,19.51,0,0,1,6.88-7.24l505.4-291a7.05,7.05,0,0,1,7.22-.59c1.79,1.1,10,5.79,12.12,6.87A7.16,7.16,0,0,0,814,126.92Z"/><path id="Path_617" data-name="Path 617" class="cls-18" d="M285.87,460.26V428a20.4,20.4,0,0,1,3-9.93l12.64,7.29a20,20,0,0,0-3,9.86v32.5Z"/><path id="Path_618" data-name="Path 618" class="cls-12" d="M765.18,169.39a14.89,14.89,0,0,0-5.62,11.9c0,4.77,2.52,7.2,5.62,5.39a14.85,14.85,0,0,0,5.61-11.88C770.79,170,768.28,167.6,765.18,169.39Z"/><path id="Path_619" data-name="Path 619" class="cls-12" d="M785.39,157.7a14.82,14.82,0,0,0-5.61,11.9c0,4.77,2.5,7.2,5.61,5.41s5.6-7.13,5.6-11.9S788.49,155.91,785.39,157.7Z"/><path id="Path_620" data-name="Path 620" class="cls-12" d="M805.59,146a14.92,14.92,0,0,0-5.62,11.9c0,4.77,2.52,7.19,5.62,5.41a14.86,14.86,0,0,0,5.61-11.9C811.2,146.65,808.68,144.22,805.59,146Z"/><path id="Path_621" data-name="Path 621" class="cls-2" d="M302.19,806.53l-.55-.3-10.47-6.05a10.42,10.42,0,0,1-5.18-7.71,9.87,9.87,0,0,1-.12-1.44V460.22l12.7,7.45V800.5a6.88,6.88,0,0,0,3.19,5.75,2.34,2.34,0,0,1,.43.26Z"/></g><g id="freepik--version-control--inject-75"><path id="Path_622" data-name="Path 622" class="cls-23" d="M392.27,546.1V517.29c0-18.7,13.34-41.53,29.8-51L539.31,399c16.48-9.47,29.8-2.11,29.8,16.41v28.47"/><line id="Line_2" data-name="Line 2" class="cls-23" x1="345.72" y1="572.99" x2="774" y2="325.67"/><path id="Path_623" data-name="Path 623" class="cls-23" d="M615.64,417.08V386.87c0-17.88,13.34-40,29.8-49.52l128.49-74"/><path id="Path_624" data-name="Path 624" class="cls-23" d="M438.83,519.22v33.32c0,18.34,13.31,25.61,29.79,16.05l158.3-91.41c16.45-9.48,29.79-32.09,29.79-50.42V393.42"/><path id="Path_625" data-name="Path 625" class="cls-23" d="M666.75,387.6v33.33c0,18.34,13.34,25.63,29.8,16l77.24-44.47"/><path id="Path_626" data-name="Path 626" class="cls-3" d="M345.72,560c6.17-3.55,11.16-.66,11.16,6.46a24.73,24.73,0,0,1-11.16,19.35c-6.17,3.55-11.19.66-11.19-6.47A24.79,24.79,0,0,1,345.72,560Z"/><path id="Path_627" data-name="Path 627" class="cls-17" d="M774,312.79c6.17-3.56,11.19-.67,11.19,6.46A24.79,24.79,0,0,1,774,338.6c-6.16,3.55-11.16.66-11.16-6.47A24.71,24.71,0,0,1,774,312.79Z"/><path id="Path_628" data-name="Path 628" class="cls-3" d="M480.72,419.76c6.17-3.57,11.17-.69,11.17,6.44a24.67,24.67,0,0,1-11.17,19.35c-6.18,3.57-11.18.68-11.18-6.44A24.65,24.65,0,0,1,480.72,419.76Z"/><path id="Path_629" data-name="Path 629" class="cls-3" d="M392.27,533.17c6.17-3.57,11.17-.68,11.17,6.44A24.69,24.69,0,0,1,392.27,559c-6.16,3.57-11.18.69-11.18-6.44A24.71,24.71,0,0,1,392.27,533.17Z"/><path id="Path_630" data-name="Path 630" class="cls-3" d="M569.19,431c6.17-3.57,11.16-.69,11.16,6.44a24.68,24.68,0,0,1-11.16,19.35c-6.19,3.57-11.19.68-11.19-6.45A24.66,24.66,0,0,1,569.19,431Z"/><g id="Group_122" data-name="Group 122" class="cls-24"><path id="Path_631" data-name="Path 631" d="M480.72,419.76c6.17-3.57,11.17-.69,11.17,6.44a24.67,24.67,0,0,1-11.17,19.35c-6.18,3.57-11.18.68-11.18-6.44A24.65,24.65,0,0,1,480.72,419.76Z"/><path id="Path_632" data-name="Path 632" d="M392.27,533.18c6.17-3.58,11.17-.69,11.17,6.44A24.68,24.68,0,0,1,392.27,559c-6.16,3.58-11.18.69-11.18-6.44A24.67,24.67,0,0,1,392.27,533.18Z"/><path id="Path_633" data-name="Path 633" d="M569.19,431c6.17-3.57,11.16-.69,11.16,6.44a24.68,24.68,0,0,1-11.16,19.35c-6.19,3.57-11.19.69-11.19-6.44A24.66,24.66,0,0,1,569.19,431Z"/></g><path id="Path_634" data-name="Path 634" class="cls-3" d="M615.64,404.15c6.17-3.55,11.16-.66,11.16,6.44A24.72,24.72,0,0,1,615.64,430c-6.19,3.55-11.19.66-11.19-6.46A24.66,24.66,0,0,1,615.64,404.15Z"/><path id="Path_635" data-name="Path 635" class="cls-3" d="M662.28,314.92c6.17-3.55,11.17-.66,11.17,6.46a24.67,24.67,0,0,1-11.17,19.35c-6.19,3.57-11.18.69-11.18-6.44A24.7,24.7,0,0,1,662.28,314.92Z"/><path id="Path_636" data-name="Path 636" class="cls-3" d="M718.14,282.67c6.17-3.55,11.17-.66,11.17,6.46a24.69,24.69,0,0,1-11.17,19.35C712,312,707,309.14,707,302a24.77,24.77,0,0,1,11.18-19.37Z"/><path id="Path_637" data-name="Path 637" class="cls-3" d="M774,250.41c6.17-3.55,11.19-.66,11.19,6.46A24.79,24.79,0,0,1,774,276.22c-6.16,3.55-11.16.66-11.16-6.47A24.71,24.71,0,0,1,774,250.41Z"/><g id="Group_123" data-name="Group 123" class="cls-25"><path id="Path_638" data-name="Path 638" d="M615.64,404.15c6.17-3.55,11.16-.66,11.16,6.44A24.72,24.72,0,0,1,615.64,430c-6.19,3.55-11.19.66-11.19-6.46A24.66,24.66,0,0,1,615.64,404.15Z"/><path id="Path_639" data-name="Path 639" d="M662.28,314.92c6.17-3.55,11.17-.66,11.17,6.46a24.67,24.67,0,0,1-11.17,19.35c-6.18,3.57-11.18.69-11.18-6.44A24.73,24.73,0,0,1,662.28,314.92Z"/><path id="Path_640" data-name="Path 640" d="M718.14,282.67c6.17-3.55,11.17-.66,11.17,6.46a24.69,24.69,0,0,1-11.17,19.35C712,312,707,309.14,707,302a24.77,24.77,0,0,1,11.18-19.37Z"/><path id="Path_641" data-name="Path 641" d="M774,250.41c6.17-3.55,11.19-.66,11.19,6.46A24.76,24.76,0,0,1,774,276.22c-6.16,3.55-11.16.66-11.16-6.47A24.74,24.74,0,0,1,774,250.41Z"/></g><path id="Path_642" data-name="Path 642" class="cls-3" d="M438.83,506.29c6.16-3.58,11.16-.69,11.16,6.44a24.76,24.76,0,0,1-11.16,19.37c-6.17,3.55-11.19.66-11.19-6.47A24.66,24.66,0,0,1,438.83,506.29Z"/><path id="Path_643" data-name="Path 643" class="cls-3" d="M550.54,508.44c6.17-3.57,11.19-.69,11.19,6.44a24.7,24.7,0,0,1-11.19,19.35c-6.16,3.57-11.16.69-11.16-6.44A24.68,24.68,0,0,1,550.54,508.44Z"/><path id="Path_644" data-name="Path 644" class="cls-3" d="M662.49,377.36c6.19-3.58,11.19-.69,11.19,6.44a24.75,24.75,0,0,1-11.19,19.37c-6.17,3.55-11.16.66-11.16-6.47a24.65,24.65,0,0,1,11.16-19.34Z"/><path id="Path_645" data-name="Path 645" class="cls-3" d="M774,379.6c6.17-3.57,11.19-.68,11.19,6.44A24.78,24.78,0,0,1,774,405.41c-6.16,3.56-11.16.67-11.16-6.46A24.68,24.68,0,0,1,774,379.6Z"/><path id="Path_646" data-name="Path 646" class="cls-3" d="M718.14,411.85c6.17-3.55,11.17-.66,11.17,6.44a24.73,24.73,0,0,1-11.17,19.37c-6.16,3.56-11.18.67-11.18-6.46A24.71,24.71,0,0,1,718.14,411.85Z"/><g id="Group_124" data-name="Group 124" class="cls-26"><path id="Path_647" data-name="Path 647" class="cls-17" d="M438.83,506.29c6.16-3.57,11.16-.69,11.16,6.44a24.75,24.75,0,0,1-11.16,19.37c-6.17,3.55-11.19.66-11.19-6.46A24.67,24.67,0,0,1,438.83,506.29Z"/><path id="Path_648" data-name="Path 648" class="cls-17" d="M550.54,508.44c6.17-3.57,11.19-.68,11.19,6.45a24.7,24.7,0,0,1-11.19,19.34c-6.16,3.57-11.16.69-11.16-6.44A24.68,24.68,0,0,1,550.54,508.44Z"/><path id="Path_649" data-name="Path 649" class="cls-17" d="M662.49,377.36c6.19-3.58,11.19-.69,11.19,6.44a24.73,24.73,0,0,1-11.19,19.37c-6.16,3.55-11.16.66-11.16-6.47a24.65,24.65,0,0,1,11.16-19.34Z"/><path id="Path_650" data-name="Path 650" class="cls-17" d="M774,379.6c6.17-3.57,11.19-.68,11.19,6.44A24.78,24.78,0,0,1,774,405.41c-6.16,3.56-11.16.67-11.16-6.46A24.68,24.68,0,0,1,774,379.6Z"/><path id="Path_651" data-name="Path 651" class="cls-17" d="M718.14,411.85c6.17-3.55,11.17-.66,11.17,6.44a24.73,24.73,0,0,1-11.17,19.37c-6.16,3.56-11.18.67-11.18-6.46A24.71,24.71,0,0,1,718.14,411.85Z"/></g><path id="Path_652" data-name="Path 652" class="cls-3" d="M336.41,732V719.22a5.54,5.54,0,0,1,2.48-4.31l32.27-18.63c1.38-.79,2.48-.14,2.48,1.44v12.72a5.48,5.48,0,0,1-2.48,4.31l-32.27,18.63C337.52,734.17,336.41,733.53,336.41,732Z"/><path id="Path_653" data-name="Path 653" class="cls-2" d="M385.44,695.76l41.58-24c1.38-.79,2.5-.23,2.5,1.23a5.32,5.32,0,0,1-2.5,4.13l-41.58,24c-1.37.79-2.47.23-2.47-1.26A5.31,5.31,0,0,1,385.44,695.76Z"/><path id="Path_654" data-name="Path 654" class="cls-3" d="M457.48,662.08V649.34A5.53,5.53,0,0,1,460,645l32.27-18.64c1.38-.79,2.48-.14,2.48,1.44v12.72a5.47,5.47,0,0,1-2.48,4.31l-32.31,18.62C458.56,664.31,457.48,663.66,457.48,662.08Z"/><path id="Path_655" data-name="Path 655" class="cls-27" d="M457.48,662.08V649.34A5.53,5.53,0,0,1,460,645l32.27-18.64c1.38-.79,2.48-.14,2.48,1.44v12.72a5.47,5.47,0,0,1-2.48,4.31l-32.31,18.62C458.56,664.31,457.48,663.66,457.48,662.08Z"/><path id="Path_656" data-name="Path 656" class="cls-2" d="M506.49,625.87l41.58-24c1.37-.79,2.47-.23,2.47,1.26a5.25,5.25,0,0,1-2.47,4.1l-41.58,24c-1.38.79-2.5.23-2.5-1.26A5.35,5.35,0,0,1,506.49,625.87Z"/><path id="Path_657" data-name="Path 657" class="cls-3" d="M578.48,592.2V579.45a5.43,5.43,0,0,1,2.48-4.28l32.4-18.64c1.38-.79,2.5-.16,2.5,1.42V570.7a5.48,5.48,0,0,1-2.5,4.29l-32.29,18.63C579.59,594.41,578.48,593.78,578.48,592.2Z"/><path id="Path_658" data-name="Path 658" class="cls-17" d="M578.48,592.2V579.45a5.43,5.43,0,0,1,2.48-4.28l32.4-18.64c1.38-.79,2.5-.16,2.5,1.42V570.7a5.48,5.48,0,0,1-2.5,4.29l-32.29,18.63C579.59,594.41,578.48,593.78,578.48,592.2Z"/><path id="Path_659" data-name="Path 659" class="cls-2" d="M627.51,556l41.61-24c1.35-.79,2.47-.23,2.47,1.27a5.4,5.4,0,0,1-2.47,4.12l-41.61,24c-1.37.79-2.47.23-2.47-1.26A5.3,5.3,0,0,1,627.51,556Z"/><path id="Path_660" data-name="Path 660" class="cls-3" d="M699.53,522.31V509.57a5.43,5.43,0,0,1,2.48-4.29l32.27-18.63c1.38-.79,2.48-.16,2.48,1.42v12.67a5.43,5.43,0,0,1-2.48,4.29L702,523.66C700.63,524.53,699.53,523.89,699.53,522.31Z"/><path id="Path_661" data-name="Path 661" class="cls-17" d="M699.53,522.31V509.57a5.43,5.43,0,0,1,2.48-4.29l32.27-18.63c1.38-.79,2.48-.16,2.48,1.42v12.67a5.43,5.43,0,0,1-2.48,4.29L702,523.66C700.63,524.53,699.53,523.89,699.53,522.31Z"/><path id="Path_662" data-name="Path 662" class="cls-2" d="M748.58,486.12l41.58-24c1.38-.79,2.5-.23,2.5,1.26a5.35,5.35,0,0,1-2.5,4.12l-41.58,24.09c-1.37.79-2.47.23-2.47-1.24A5.28,5.28,0,0,1,748.58,486.12Z"/></g></g><g id="freepik--speech-bubbles--inject-75"><g id="freepik--speech-bubble--inject-75"><g id="freepik--speech-bubble--inject-75-2"><path id="Path_663" data-name="Path 663" class="cls-28" d="M965.74,278.41l-74.59,43.07a5.89,5.89,0,0,0-2.66,4.58V417.2a5.79,5.79,0,0,0,2.68,4.58l10.59,6a6,6,0,0,0,5.34,0l74.57-43.15a6,6,0,0,0,2.66-4.59V288.9a5.83,5.83,0,0,0-2.66-4.58l-10.59-5.91A6,6,0,0,0,965.74,278.41Z"/><path id="Path_664" data-name="Path 664" class="cls-28" d="M907.11,427.81a6.17,6.17,0,0,1-5.34,0l-10.59-6a5.77,5.77,0,0,1-2.69-4.58V326.08a5.45,5.45,0,0,1,.85-2.72l15.89,9.17c-.51.82-.79,1.76-.79.32V424C904.46,427.81,905.52,428.7,907.11,427.81Z"/><path id="Path_665" data-name="Path 665" class="cls-17" d="M984.3,288.42c-.2-1.31-1.31-1.81-2.63-1.05l-74.56,43.14a5.36,5.36,0,0,0-1.88,2l-15.91-9.17a5.26,5.26,0,0,1,1.84-1.88l74.59-43.05a6,6,0,0,1,5.34,0l10.56,6a5.82,5.82,0,0,1,2.66,4Z"/><path id="Path_666" data-name="Path 666" class="cls-29" d="M881.2,393.68c-1.67-1-14.41-8.18-14.83-8.43a2.46,2.46,0,0,1-.84-3.37,2.15,2.15,0,0,1,.32-.41l22.55-26,15.93,9.17-23.68,25.21a2.53,2.53,0,0,0,.22,3.56l.33.24Z"/><path id="Path_667" data-name="Path 667" class="cls-17" d="M881.2,393.68c-1.67-1-14.41-8.18-14.83-8.43a2.46,2.46,0,0,1-.84-3.37,2.15,2.15,0,0,1,.32-.41l22.55-26,15.93,9.17-23.68,25.21a2.53,2.53,0,0,0,.22,3.56l.33.24Z"/><path id="Path_668" data-name="Path 668" class="cls-29" d="M981.67,287.37l-74.56,43.14a5.87,5.87,0,0,0-2.66,4.58v29.52l-23.71,25.22a2.29,2.29,0,0,0-.36,3.22,2.33,2.33,0,0,0,1.87.86l22.17-1.63h0v33.88c0,1.69,1.19,2.29,2.65,1.53l74.57-43.13a6,6,0,0,0,2.65-4.59V288.9C984.33,287.21,983.13,286.52,981.67,287.37Z"/></g><path id="freepik--X--inject-75" class="cls-12" d="M966.91,368.28l-15.17-11.46,15.8-30.14a5.73,5.73,0,0,0-10.15-5.32l-14.91,28.47-13.64-10.32a5.73,5.73,0,1,0-6.87,9.17h0l15.17,11.46L922,389a5.76,5.76,0,0,0,2.43,7.75,5.83,5.83,0,0,0,2.66.64,5.64,5.64,0,0,0,5.06-3.07l14.23-27.18,13.75,10.31a5.56,5.56,0,0,0,3.46,1.17,5.73,5.73,0,0,0,3.46-10.29Z"/></g><g id="freepik--speech-bubble--inject-75-3"><g id="freepik--speech-bubble--inject-75-4"><path id="Path_669" data-name="Path 669" class="cls-30" d="M907.1,289a6.1,6.1,0,0,1-5.34,0l-10.59-6c-1.49-.82-2.68-2.9-2.68-2.29V189.54a8.71,8.71,0,0,1,.85-5l15.88,9.17a8.65,8.65,0,0,0-.79,4.91v91.14C904.44,289,905.52,289.87,907.1,289Z"/><path id="Path_670" data-name="Path 670" class="cls-16" d="M984.3,149.59c-.2-1.35-1.31-1.84-2.63-1.05l-74.56,43.13a5.39,5.39,0,0,0-1.88,2l-15.91-9.17a5.4,5.4,0,0,1,1.84-1.9l74.59-43.14a6,6,0,0,1,5.34,0l10.56,6a5.86,5.86,0,0,1,2.66,4.13Z"/><path id="Path_671" data-name="Path 671" class="cls-16" d="M881.2,254.82c-1.67-1-14.41-8.16-14.83-8.41a2.45,2.45,0,0,1-.84-3.36,2.59,2.59,0,0,1,.32-.42l22.55-26,15.93,9.17L880.65,251a2.51,2.51,0,0,0,.21,3.53,2.7,2.7,0,0,0,.34.25Z"/><path id="Path_672" data-name="Path 672" class="cls-19" d="M981.67,148.53l-74.56,43.15a5.87,5.87,0,0,0-2.66,4.58v29.52L880.74,251a2.29,2.29,0,0,0,1.51,4.08l22.17-1.6h0v33.85c0,1.72,1.19,2.29,2.65,1.53l74.57-43.13a5.89,5.89,0,0,0,2.65-4.59V150.06C984.33,148.37,983.13,147.75,981.67,148.53Z"/></g><path id="freepik--Bug--inject-75" class="cls-3" d="M971.88,212.83l-1.77-13a1.54,1.54,0,0,0-1-1.27,1.71,1.71,0,0,0-.59-.11,1.55,1.55,0,0,0-1,.36l-4.4,3.53a20.39,20.39,0,0,0-2.65-6.2h0l2.29-5.36,2.9-10.2a1.54,1.54,0,0,0-1-1.93l-.08,0a1.41,1.41,0,0,0-.41,0,1.56,1.56,0,0,0-1.51,1.15l-2.85,9.92-1.67,4a10.57,10.57,0,0,0-1.47-1.12,9.91,9.91,0,0,0-5-1.5l2.66-10.29a1.59,1.59,0,0,0-1.12-1.92h-.39a1.57,1.57,0,0,0-1.54,1.17l-3,11.46a16.33,16.33,0,0,0-3.49,1.37,18.24,18.24,0,0,0-2.43,1.56l-1.9-7a1.57,1.57,0,0,0-1.51-1.15,1.41,1.41,0,0,0-.41,0,1.56,1.56,0,0,0-1.11,1.91v0l2.3,8.39a41.94,41.94,0,0,0-8.07,11l-.69-1.1-2.29-6.87a1.58,1.58,0,0,0-1.42-1.4,1.77,1.77,0,0,0-.46,0,1.6,1.6,0,0,0-1,2l2.29,7.4,2,3.05a59.21,59.21,0,0,0-3.64,11.46h-.34l-5.48,1.45a1.57,1.57,0,0,0-1.15,1.26l-2.63,15.38a1.58,1.58,0,0,0,1.28,1.81h.26a1.56,1.56,0,0,0,1.54-1.32l2.47-14.39,3.47-.9a49.29,49.29,0,0,0-.51,5.69,34.44,34.44,0,0,0,1.38,11.46,1.59,1.59,0,0,0-.39.34L921.34,249a1.59,1.59,0,0,0-.2,1.7l4.88,9.9a1.56,1.56,0,0,0,1.42.87,1.4,1.4,0,0,0,.69-.16,1.56,1.56,0,0,0,.72-2.08v0l-4.43-9,3.72-4.58a13.33,13.33,0,0,0,4.58,5.27,10.06,10.06,0,0,0,5.36,1.51,13.58,13.58,0,0,0,6.49-1.79h0c6.88-3.78,13.11-12.93,16.55-23.33h.19l3.85.64-5,13.75a1.57,1.57,0,0,0,.94,2,2.53,2.53,0,0,0,.55,0,1.58,1.58,0,0,0,1.46-1l5.69-15.59a1.5,1.5,0,0,0-.14-1.32,1.45,1.45,0,0,0-1.1-.75l-5.5-.92a52.29,52.29,0,0,0,1.9-12.24,40.5,40.5,0,0,0-.29-6.51h.13l3.4-2.73,1.37,10.28a1.58,1.58,0,0,0,1.56,1.35h.21a1.63,1.63,0,0,0,1.35-1.77Zm-25.47-17.45a10.66,10.66,0,0,1,5-1.42,6.91,6.91,0,0,1,3.69,1.06,8,8,0,0,1,1.76,1.47,32.71,32.71,0,0,1-12.49,14.09,11.93,11.93,0,0,1-5.61,1.6,7,7,0,0,1-4.89-1.9A33.09,33.09,0,0,1,946.41,195.38Zm-17.8,36a53.38,53.38,0,0,1,3.95-18.1,9.92,9.92,0,0,0,6.14,2.06,14.18,14.18,0,0,0,4.77-.92l-1.06,34.18a10.33,10.33,0,0,1-4.19,1,6.87,6.87,0,0,1-3.71-1.06c-4-2.45-6.17-8.87-5.89-17.16Zm17,15.25,1-33.74a35.55,35.55,0,0,0,12.21-13.41A27.86,27.86,0,0,1,961,212.21c-.42,13.48-7.13,28.17-15.31,34.43Z"/></g><g id="freepik--speech-bubble--inject-75-5"><g id="freepik--speech-bubble--inject-75-6"><path id="Path_673" data-name="Path 673" class="cls-3" d="M965.74.65,891.15,43.79c-1.46.84-2.66,2.91-2.66,6.87v91.18c0-.59,1.2,1.45,2.69,2.29l10.59,6a6,6,0,0,0,5.34,0L981.67,107a5.9,5.9,0,0,0,2.66-4.59V11.23a5.79,5.79,0,0,0-2.66-4.58l-10.59-6A6,6,0,0,0,965.74.65Z"/><path id="Path_674" data-name="Path 674" class="cls-31" d="M907.1,150.05a6.17,6.17,0,0,1-5.34,0l-10.59-6c-1.49-.82-2.68-2.9-2.68-2.29v-91a8.68,8.68,0,0,1,.85-5l15.88,9.17c-.5.82-.79,1.76-.79.32v91.12C904.45,150.05,905.52,151,907.1,150.05Z"/><path id="Path_675" data-name="Path 675" class="cls-17" d="M984.3,10.76c-.2-1.35-1.31-1.85-2.63-1.06L907.11,52.85a5.46,5.46,0,0,0-1.89,2l-15.9-9.18a5.49,5.49,0,0,1,1.84-1.9L965.75.63a6,6,0,0,1,5.34,0l10.56,6A5.86,5.86,0,0,1,984.3,10.76Z"/><path id="Path_676" data-name="Path 676" class="cls-3" d="M881.2,116c-1.67-1-14.41-8.18-14.83-8.41a2.48,2.48,0,0,1-.52-3.81L888.4,77.83,904.33,87l-23.68,25.21a2.53,2.53,0,0,0,.25,3.56,2.86,2.86,0,0,0,.3.22Z"/><path id="Path_677" data-name="Path 677" class="cls-17" d="M881.2,116c-1.67-1-14.41-8.18-14.83-8.41a2.48,2.48,0,0,1-.52-3.81L888.4,77.83,904.33,87l-23.68,25.21a2.53,2.53,0,0,0,.25,3.56,2.86,2.86,0,0,0,.3.22Z"/><path id="Path_678" data-name="Path 678" class="cls-3" d="M981.67,9.7,907.11,52.84a5.87,5.87,0,0,0-2.66,4.58V87l-23.71,25.21a2.29,2.29,0,0,0,1.51,4.08l22.17-1.6h0v33.92c0,1.7,1.19,2.29,2.65,1.54L981.64,107a5.88,5.88,0,0,0,2.65-4.58V11.24C984.33,9.54,983.13,8.85,981.67,9.7Z"/></g><path id="freepik--Check--inject-75" class="cls-12" d="M967.85,35.14a6.68,6.68,0,0,0-8.7,3.56L934.24,98.27l-6-5.8a6.63,6.63,0,0,0-9.17,9.49L932,114.54a6.6,6.6,0,0,0,9.33-.17,6.75,6.75,0,0,0,1.38-2.12l28.71-68.42A6.66,6.66,0,0,0,967.85,35.14Z"/></g></g></g></svg>