<svg id="Layer_1" data-name="Layer 1" xmlns="http://www.w3.org/2000/svg" xmlns:xlink="http://www.w3.org/1999/xlink" viewBox="0 0 1080 1080"><defs><style>.cls-3{fill:url(#linear-gradient);}</style><linearGradient id="linear-gradient" x1="-2029.74" y1="2618.86" x2="-2008.85" y2="2611.62" gradientTransform="matrix(53.15, 0, 0, -31.89, 107841.41, 83942.25)" gradientUnits="userSpaceOnUse"><stop offset="0" stop-color="#2298bd"/><stop offset="1" stop-color="#0ed7b5"/></linearGradient></defs><path id="tailwindcss" class="cls-3" d="M540,216q-216,0-270,216,81-108,189-81c41.07,10.26,70.43,40.07,103,73.15C614.88,477.86,676.17,540,810,540q216,0,270-216-81,108-189,81c-41.07-10.26-70.44-40.07-103-73.16C735.12,278.15,673.85,216,540,216ZM270,540Q54,540,0,756q81-108,189-81c41.07,10.26,70.44,40.07,103,73.16C344.88,801.87,406.17,864.05,540,864.05q216,0,270-216-81,108-189,81c-41.07-10.26-70.43-40.07-103-73.15C465.12,602.06,403.83,540,270,540Z"/></svg>