<svg xmlns="http://www.w3.org/2000/svg" width="29.848" height="24.242" viewBox="0 0 29.848 24.242">
  <path id="Icon_awesome-twitter" data-name="Icon awesome-twitter" d="M26.78,9.422c.019.265.019.53.019.8,0,8.087-6.155,17.405-17.405,17.405A17.287,17.287,0,0,1,0,24.877a12.655,12.655,0,0,0,1.477.076,12.251,12.251,0,0,0,7.595-2.614A6.128,6.128,0,0,1,3.352,18.1a7.714,7.714,0,0,0,1.155.095,6.47,6.47,0,0,0,1.61-.208,6.118,6.118,0,0,1-4.905-6V11.9a6.161,6.161,0,0,0,2.765.776A6.126,6.126,0,0,1,2.083,4.5,17.388,17.388,0,0,0,14.7,10.9a6.906,6.906,0,0,1-.152-1.4A6.123,6.123,0,0,1,25.132,5.313a12.044,12.044,0,0,0,3.883-1.477,6.1,6.1,0,0,1-2.689,3.371,12.263,12.263,0,0,0,3.523-.947A13.15,13.15,0,0,1,26.78,9.422Z" transform="translate(0 -3.381)" fill="#fff"/>
</svg>
