<svg id="Layer_1" data-name="Layer 1" xmlns="http://www.w3.org/2000/svg" viewBox="0 0 1080 1080"><defs><style>.cls-1{fill:#2489ca;}.cls-2{fill:#1070b3;}.cls-3{fill:#0877b9;}.cls-4{fill:#3c99d4;}</style></defs><g id="visual-studio-code-1"><path id="Path_690" data-name="Path 690" class="cls-1" d="M10.27,378.47s-26.3-19,5.27-44.29l73.55-65.77a31.23,31.23,0,0,1,43.3-2.85L811.26,779.47V1026s-.33,38.61-50,34.43Z"/><path id="Path_691" data-name="Path 691" class="cls-2" d="M185.21,537.31l-175,159.07s-18,13.37,0,37.28l81.3,73.88a33.37,33.37,0,0,0,47.15-2.11c.23-.24.44-.49.66-.74L324.77,664Z"/><path id="Path_692" data-name="Path 692" class="cls-3" d="M492.37,538.63l320.86-245-2-245.12S797.5-5,751.78,22.86l-427,388.6Z"/><path id="Path_693" data-name="Path 693" class="cls-4" d="M761.2,1060.65a44.14,44.14,0,0,0,41.22,12.83l250-123.22a52.72,52.72,0,0,0,27.52-48.88V165.6a49.21,49.21,0,0,0-33.11-43.52L830.1,17.61a60.18,60.18,0,0,0-78.38,5.27s39.9-28.72,59.41,25.65V1021.4a44,44,0,0,1-4.27,19.19c-5.69,11.5-18.09,22.26-47.78,17.76Z"/></g></svg>