<svg id="Layer_1" data-name="Layer 1" xmlns="http://www.w3.org/2000/svg" viewBox="0 0 1080 1080"><defs><style>.cls-1{fill:#2e001e;}.cls-2{fill:#ff2bc2;}</style></defs><g id="adobe-xd"><path id="Path_685" data-name="Path 685" class="cls-1" d="M45,58.49h990v963H45Z"/><path id="Path_686" data-name="Path 686" class="cls-2" d="M0,13.49v1053H1080V13.49Zm45,45h990v963H45Z"/><path id="Path_687" data-name="Path 687" class="cls-2" d="M784.36,455.86a61.63,61.63,0,0,0-26.09-4.49c-56.7,0-94.5,43.65-94.5,116.09,0,82.8,38.61,116.1,89.09,116.1a84.61,84.61,0,0,0,31-5V455.86ZM582.77,571.06c0-104.86,67.51-186.76,178.2-186.76a198.5,198.5,0,0,1,23.39.9v-117a4.5,4.5,0,0,1,4.49-4.49H861.3c3.59,0,4.49,1.34,4.49,3.59V678.6A321.67,321.67,0,0,0,868,722.7c0,3.15,0,3.6-2.7,5a267.93,267.93,0,0,1-115.2,26.09c-97.73,0-167.39-60.29-167.39-182.71ZM429.32,498.17l126,244.35c2.26,3.59.9,7.19-2.7,7.19h-78.3a8.85,8.85,0,0,1-9.45-5.85q-43.2-89.1-88.2-184.93h-.89c-27,60.29-56.7,126-85.49,185.4a8.63,8.63,0,0,1-8.13,4.95H207.36c-4.49,0-5-3.59-2.7-6.3L328,505.83,208.7,270.1a4.07,4.07,0,0,1,3.15-6.75h77.41c4.49,0,6.75.89,8.13,5,28.45,59.85,57.14,118.8,84.15,179.09h.9c26.09-59.4,54.86-119.24,82.34-178.2,2.25-3.59,3.6-5.85,8.13-5.85h72.44c3.6,0,5,2.7,2.71,6.75Z"/></g></svg>